Jost-Light.ufo
<glyph name="exclam" format="1">
  <advance width="284"/>
  <unicode hex="0021"/>
  <outline>
    <contour>
      <point x="110" y="700" type="line"/>
      <point x="175" y="700" type="line"/>
      <point x="162" y="200" type="line"/>
      <point x="123" y="200" type="line"/>
    </contour>
    <contour>
      <point x="105" y="24" type="curve" smooth="yes"/>
      <point x="105" y="45"/>
      <point x="122" y="62"/>
      <point x="142" y="62" type="curve" smooth="yes"/>
      <point x="162" y="62"/>
      <point x="180" y="45"/>
      <point x="180" y="24" type="curve" smooth="yes"/>
      <point x="180" y="3"/>
      <point x="162" y="-13"/>
      <point x="142" y="-13" type="curve" smooth="yes"/>
      <point x="122" y="-13"/>
      <point x="105" y="3"/>
    </contour>
  </outline>
</glyph>
<glyph name="quotedbl" format="1">
  <advance width="440"/>
  <unicode hex="0022"/>
  <outline>
    <contour>
      <point x="134" y="700" type="line"/>
      <point x="196" y="700" type="line"/>
      <point x="120" y="408" type="line"/>
      <point x="84" y="408" type="line"/>
    </contour>
    <contour>
      <point x="314" y="700" type="line"/>
      <point x="376" y="700" type="line"/>
      <point x="300" y="408" type="line"/>
      <point x="264" y="408" type="line"/>
    </contour>
  </outline>
</glyph>
<glyph name="dollar" format="2">
  <advance width="580"/>
  <unicode hex="0024"/>
  <outline>
    <contour>
      <point x="254.6" y="818" type="line"/>
      <point x="303" y="818" type="line"/>
      <point x="303" y="680.8" type="line"/>
      <point x="254.6" y="680.8" type="line"/>
    </contour>
    <contour>
      <point x="255.4" y="28" type="line"/>
      <point x="303.8" y="28" type="line"/>
      <point x="303.8" y="-112" type="line"/>
      <point x="255.4" y="-112" type="line"/>
    </contour>
    <contour>
      <point x="435.6" y="527.6" type="line"/>
      <point x="410" y="589.2"/>
      <point x="366.2" y="656.2"/>
      <point x="277.6" y="656.2" type="curve" smooth="yes"/>
      <point x="193.6" y="656.2"/>
      <point x="143.8" y="611.4"/>
      <point x="143.8" y="540.4" type="curve" smooth="yes"/>
      <point x="143.8" y="454.8"/>
      <point x="228.8" y="416.4"/>
      <point x="313.8" y="384.8" type="curve" smooth="yes"/>
      <point x="391.2" y="356.6"/>
      <point x="488" y="303.4"/>
      <point x="488" y="184" type="curve" smooth="yes"/>
      <point x="488" y="73"/>
      <point x="424" y="-9.2"/>
      <point x="285" y="-9.2" type="curve" smooth="yes"/>
      <point x="166" y="-9.2"/>
      <point x="87" y="79.2"/>
      <point x="49" y="187" type="curve"/>
      <point x="96.2" y="214.4" type="line"/>
      <point x="132.6" y="119.2"/>
      <point x="187.4" y="43.2"/>
      <point x="288" y="43.2" type="curve" smooth="yes"/>
      <point x="388" y="43.2"/>
      <point x="430.8" y="98.6"/>
      <point x="430.8" y="179.8" type="curve" smooth="yes"/>
      <point x="430.8" y="275"/>
      <point x="344.8" y="317.8"/>
      <point x="266.4" y="346.4" type="curve" smooth="yes"/>
      <point x="192.4" y="373"/>
      <point x="86" y="424.6"/>
      <point x="86" y="544" type="curve" smooth="yes"/>
      <point x="86" y="640"/>
      <point x="171" y="709.2"/>
      <point x="277" y="709.2" type="curve" smooth="yes"/>
      <point x="390" y="709.2"/>
      <point x="457" y="627"/>
      <point x="481" y="556" type="curve"/>
    </contour>
  </outline>
</glyph>
<glyph name="ampersand" format="2">
  <advance width="675"/>
  <unicode hex="0026"/>
  <outline>
    <contour>
      <point x="207" y="401.2" type="line" smooth="yes"/>
      <point x="174" y="439.2"/>
      <point x="117" y="489"/>
      <point x="117" y="564" type="curve" smooth="yes"/>
      <point x="117" y="650"/>
      <point x="180" y="711"/>
      <point x="280" y="711" type="curve" smooth="yes"/>
      <point x="381" y="711"/>
      <point x="436" y="638"/>
      <point x="436" y="562" type="curve" smooth="yes"/>
      <point x="436" y="495"/>
      <point x="382.8" y="437.8"/>
      <point x="289.8" y="382" type="curve" smooth="yes"/>
      <point x="217.2" y="338.6"/>
      <point x="95" y="298"/>
      <point x="95" y="182" type="curve" smooth="yes"/>
      <point x="95" y="91.2"/>
      <point x="168" y="38.4"/>
      <point x="260" y="38.4" type="curve" smooth="yes"/>
      <point x="404.6" y="38.4"/>
      <point x="504.6" y="181.6"/>
      <point x="602.4" y="316" type="curve"/>
      <point x="642.8" y="290.6" type="line"/>
      <point x="538" y="150.6"/>
      <point x="436" y="-10"/>
      <point x="257" y="-10" type="curve" smooth="yes"/>
      <point x="142" y="-10"/>
      <point x="40" y="60"/>
      <point x="40" y="179" type="curve" smooth="yes"/>
      <point x="40" y="326"/>
      <point x="186.4" y="374.2"/>
      <point x="254" y="413" type="curve" smooth="yes"/>
      <point x="334.6" y="459.4"/>
      <point x="383.4" y="510"/>
      <point x="383.4" y="562" type="curve" smooth="yes"/>
      <point x="383.4" y="615"/>
      <point x="349" y="664.4"/>
      <point x="280" y="664.4" type="curve" smooth="yes"/>
      <point x="209" y="664.4"/>
      <point x="171.4" y="621"/>
      <point x="171.4" y="564" type="curve" smooth="yes"/>
      <point x="171.4" y="508.4"/>
      <point x="211" y="470.2"/>
      <point x="247" y="429" type="curve" smooth="yes"/>
      <point x="621.4" y="0" type="line"/>
      <point x="558.6" y="0" type="line"/>
    </contour>
  </outline>
</glyph>
<glyph name="parenleft" format="2">
  <advance width="282"/>
  <unicode hex="0028"/>
  <outline>
    <contour>
      <point x="205" y="780" type="curve"/>
      <point x="252" y="780" type="line"/>
      <point x="180" y="626"/>
      <point x="148" y="460"/>
      <point x="148" y="290" type="curve" smooth="yes"/>
      <point x="148" y="120"/>
      <point x="180" y="-46"/>
      <point x="252" y="-200" type="curve"/>
      <point x="205" y="-200" type="line"/>
      <point x="125" y="-50"/>
      <point x="90" y="120"/>
      <point x="90" y="290" type="curve" smooth="yes"/>
      <point x="90" y="460"/>
      <point x="125" y="630"/>
    </contour>
  </outline>
</glyph>
<glyph name="parenright" format="1">
  <advance width="282"/>
  <unicode hex="0029"/>
  <outline>
    <contour>
      <point x="77" y="-200" type="curve"/>
      <point x="30" y="-200" type="line"/>
      <point x="102" y="-46"/>
      <point x="134" y="120"/>
      <point x="134" y="290" type="curve" smooth="yes"/>
      <point x="134" y="460"/>
      <point x="102" y="626"/>
      <point x="30" y="780" type="curve"/>
      <point x="77" y="780" type="line"/>
      <point x="157" y="630"/>
      <point x="192" y="460"/>
      <point x="192" y="290" type="curve" smooth="yes"/>
      <point x="192" y="120"/>
      <point x="157" y="-50"/>
    </contour>
  </outline>
</glyph>
<glyph name="plus" format="1">
  <advance width="589"/>
  <unicode hex="002B"/>
  <outline>
    <contour>
      <point x="65" y="229" type="line"/>
      <point x="65" y="281" type="line"/>
      <point x="520" y="281" type="line"/>
      <point x="520" y="229" type="line"/>
    </contour>
    <contour>
      <point x="265" y="492" type="line"/>
      <point x="320" y="492" type="line"/>
      <point x="320" y="18" type="line"/>
      <point x="265" y="18" type="line"/>
    </contour>
  </outline>
</glyph>
<glyph name="hyphen" format="2">
  <advance width="210"/>
  <unicode hex="002D"/>
  <outline>
    <contour>
      <point x="5" y="226" type="line"/>
      <point x="5" y="275" type="line"/>
      <point x="205" y="275" type="line"/>
      <point x="205" y="226" type="line"/>
    </contour>
  </outline>
</glyph>
<glyph name="zero" format="1">
  <advance width="580"/>
  <unicode hex="0030"/>
  <outline>
    <contour>
      <point x="101" y="350" type="curve" smooth="yes"/>
      <point x="101" y="177"/>
      <point x="172" y="42"/>
      <point x="290" y="42" type="curve" smooth="yes"/>
      <point x="408" y="42"/>
      <point x="479" y="177"/>
      <point x="479" y="350" type="curve" smooth="yes"/>
      <point x="479" y="523"/>
      <point x="408" y="658"/>
      <point x="290" y="658" type="curve" smooth="yes"/>
      <point x="172" y="658"/>
      <point x="101" y="523"/>
    </contour>
    <contour>
      <point x="46" y="350" type="curve" smooth="yes"/>
      <point x="46" y="555"/>
      <point x="142" y="710"/>
      <point x="290" y="710" type="curve" smooth="yes"/>
      <point x="438" y="710"/>
      <point x="534" y="555"/>
      <point x="534" y="350" type="curve" smooth="yes"/>
      <point x="534" y="145"/>
      <point x="438" y="-10"/>
      <point x="290" y="-10" type="curve" smooth="yes"/>
      <point x="142" y="-10"/>
      <point x="46" y="145"/>
    </contour>
  </outline>
</glyph>
<glyph name="four" format="1">
  <advance width="571"/>
  <unicode hex="0034"/>
  <outline>
    <contour>
      <point x="22" y="140" type="line"/>
      <point x="408" y="700" type="line"/>
      <point x="429" y="700" type="line"/>
      <point x="429" y="0" type="line"/>
      <point x="374" y="0" type="line"/>
      <point x="374" y="162" type="line"/>
      <point x="374" y="171" type="line"/>
      <point x="374" y="573" type="line"/>
      <point x="114.157" y="189" type="line"/>
      <point x="397" y="189" type="line"/>
      <point x="408" y="189" type="line"/>
      <point x="539" y="189" type="line"/>
      <point x="539" y="140" type="line"/>
    </contour>
  </outline>
</glyph>
<glyph name="five" format="2">
  <advance width="561"/>
  <unicode hex="0035"/>
  <outline>
    <contour>
      <point x="510" y="230" type="curve" smooth="yes"/>
      <point x="510" y="71"/>
      <point x="404" y="-10"/>
      <point x="273" y="-10" type="curve" smooth="yes"/>
      <point x="152" y="-10"/>
      <point x="82" y="53"/>
      <point x="40" y="137" type="curve"/>
      <point x="86.8" y="168.4" type="line"/>
      <point x="119.8" y="97.2"/>
      <point x="184.8" y="42"/>
      <point x="273" y="42" type="curve" smooth="yes"/>
      <point x="381" y="42"/>
      <point x="453.2" y="112"/>
      <point x="453.2" y="230" type="curve" smooth="yes"/>
      <point x="453.2" y="336"/>
      <point x="379.4" y="408.4"/>
      <point x="283.4" y="408.4" type="curve" smooth="yes"/>
      <point x="208.4" y="408.4"/>
      <point x="157" y="385"/>
      <point x="94" y="327" type="curve"/>
      <point x="186" y="700" type="line"/>
      <point x="516" y="700" type="line"/>
      <point x="516" y="651" type="line"/>
      <point x="228.4" y="651" type="line"/>
      <point x="167.8" y="407.6" type="line"/>
      <point x="199.6" y="435.8"/>
      <point x="248.4" y="458"/>
      <point x="305" y="458" type="curve" smooth="yes"/>
      <point x="421" y="458"/>
      <point x="510" y="365"/>
    </contour>
  </outline>
</glyph>
<glyph name="nine" format="1">
  <advance width="560"/>
  <unicode hex="0039"/>
  <outline>
    <contour>
      <point x="457" y="474" type="curve" smooth="yes"/>
      <point x="457" y="582"/>
      <point x="384" y="660"/>
      <point x="280" y="660" type="curve" smooth="yes"/>
      <point x="176" y="660"/>
      <point x="103" y="582"/>
      <point x="103" y="474" type="curve" smooth="yes"/>
      <point x="103" y="370"/>
      <point x="180" y="292"/>
      <point x="276" y="292" type="curve" smooth="yes"/>
      <point x="386" y="292"/>
      <point x="457" y="374"/>
    </contour>
    <contour>
      <point x="230" y="0" type="line"/>
      <point x="161" y="0" type="line"/>
      <point x="389" y="311" type="line"/>
      <point x="393" y="308" type="line"/>
      <point x="360" y="267"/>
      <point x="314" y="251"/>
      <point x="257" y="251" type="curve" smooth="yes"/>
      <point x="143" y="251"/>
      <point x="50" y="349"/>
      <point x="50" y="474" type="curve" smooth="yes"/>
      <point x="50" y="614"/>
      <point x="145" y="710"/>
      <point x="280" y="710" type="curve" smooth="yes"/>
      <point x="415" y="710"/>
      <point x="510" y="614"/>
      <point x="510" y="474" type="curve" smooth="yes"/>
      <point x="510" y="417"/>
      <point x="488" y="360"/>
      <point x="461" y="323" type="curve" smooth="yes"/>
    </contour>
  </outline>
</glyph>
<glyph name="colon" format="2">
  <advance width="300"/>
  <unicode hex="003A"/>
  <outline>
    <contour>
      <point x="104.6" y="24.4" type="curve" smooth="yes"/>
      <point x="104.6" y="45.2"/>
      <point x="121.6" y="61.8"/>
      <point x="142" y="61.8" type="curve" smooth="yes"/>
      <point x="162.4" y="61.8"/>
      <point x="179.4" y="45.2"/>
      <point x="179.4" y="24.4" type="curve" smooth="yes"/>
      <point x="179.4" y="3.6"/>
      <point x="162.4" y="-13"/>
      <point x="142" y="-13" type="curve" smooth="yes"/>
      <point x="121.6" y="-13"/>
      <point x="104.6" y="3.6"/>
    </contour>
    <contour>
      <point x="104.6" y="391.6" type="curve" smooth="yes"/>
      <point x="104.6" y="412.4"/>
      <point x="121.6" y="429"/>
      <point x="142" y="429" type="curve" smooth="yes"/>
      <point x="162.4" y="429"/>
      <point x="179.4" y="412.4"/>
      <point x="179.4" y="391.6" type="curve" smooth="yes"/>
      <point x="179.4" y="370.8"/>
      <point x="162.4" y="354.2"/>
      <point x="142" y="354.2" type="curve" smooth="yes"/>
      <point x="121.6" y="354.2"/>
      <point x="104.6" y="370.8"/>
    </contour>
  </outline>
</glyph>
<glyph name="semicolon" format="2">
  <advance width="308"/>
  <unicode hex="003B"/>
  <outline>
    <contour>
      <point x="134.6" y="391.6" type="curve" smooth="yes"/>
      <point x="134.6" y="412.4"/>
      <point x="151.6" y="429"/>
      <point x="172" y="429" type="curve" smooth="yes"/>
      <point x="192.4" y="429"/>
      <point x="209.4" y="412.4"/>
      <point x="209.4" y="391.6" type="curve" smooth="yes"/>
      <point x="209.4" y="370.8"/>
      <point x="192.4" y="354.2"/>
      <point x="172" y="354.2" type="curve" smooth="yes"/>
      <point x="151.6" y="354.2"/>
      <point x="134.6" y="370.8"/>
    </contour>
    <contour>
      <point x="158.8" y="103.6" type="line"/>
      <point x="211.2" y="83.6" type="line"/>
      <point x="101.2" y="-166.4" type="line"/>
      <point x="64" y="-153" type="line"/>
    </contour>
  </outline>
</glyph>
<glyph name="less" format="2">
  <advance width="640"/>
  <unicode hex="003C"/>
  <outline>
    <contour>
      <point x="151" y="260" type="line"/>
      <point x="575" y="79" type="line"/>
      <point x="575" y="27" type="line"/>
      <point x="65" y="242.6" type="line"/>
      <point x="65" y="272" type="line"/>
      <point x="575" y="488" type="line"/>
      <point x="575" y="436" type="line"/>
    </contour>
  </outline>
</glyph>
<glyph name="question" format="1">
  <advance width="551"/>
  <unicode hex="003F"/>
  <outline>
    <contour>
      <point x="430" y="508" type="curve" smooth="yes"/>
      <point x="430" y="600"/>
      <point x="369" y="661"/>
      <point x="267" y="661" type="curve" smooth="yes"/>
      <point x="190" y="661"/>
      <point x="141" y="624"/>
      <point x="105" y="566" type="curve"/>
      <point x="62" y="593" type="line"/>
      <point x="108" y="663"/>
      <point x="162" y="710"/>
      <point x="273" y="710" type="curve" smooth="yes"/>
      <point x="398" y="710"/>
      <point x="483" y="623"/>
      <point x="483" y="508" type="curve" smooth="yes"/>
      <point x="483" y="399.754"/>
      <point x="382.194" y="313.38"/>
      <point x="264.976" y="309.161" type="curve"/>
      <point x="261" y="170" type="line"/>
      <point x="222" y="170" type="line"/>
      <point x="208" y="345" type="line"/>
      <point x="223" y="345" type="line" smooth="yes"/>
      <point x="347" y="345"/>
      <point x="430" y="424"/>
    </contour>
    <contour>
      <point x="203" y="24" type="curve" smooth="yes"/>
      <point x="203" y="45"/>
      <point x="220" y="62"/>
      <point x="240" y="62" type="curve" smooth="yes"/>
      <point x="260" y="62"/>
      <point x="277" y="45"/>
      <point x="277" y="24" type="curve" smooth="yes"/>
      <point x="277" y="3"/>
      <point x="260" y="-13"/>
      <point x="240" y="-13" type="curve" smooth="yes"/>
      <point x="220" y="-13"/>
      <point x="203" y="3"/>
    </contour>
  </outline>
</glyph>
<glyph name="at" format="2">
  <advance width="770"/>
  <unicode hex="0040"/>
  <outline>
    <contour>
      <point x="246" y="320" type="curve" smooth="yes"/>
      <point x="246" y="252"/>
      <point x="283" y="207.6"/>
      <point x="344" y="207.6" type="curve" smooth="yes"/>
      <point x="408" y="207.6"/>
      <point x="475" y="264"/>
      <point x="475" y="370" type="curve" smooth="yes"/>
      <point x="475" y="434"/>
      <point x="436" y="482.8"/>
      <point x="378" y="482.8" type="curve" smooth="yes"/>
      <point x="313" y="482.8"/>
      <point x="246" y="424"/>
    </contour>
    <contour>
      <point x="196" y="318.2" type="curve" smooth="yes"/>
      <point x="196" y="457.2"/>
      <point x="293" y="529.2"/>
      <point x="378" y="529.2" type="curve" smooth="yes"/>
      <point x="459" y="529.2"/>
      <point x="500.6" y="451.8"/>
      <point x="500.6" y="368.8" type="curve" smooth="yes"/>
      <point x="500.6" y="241.8"/>
      <point x="423.8" y="161.2"/>
      <point x="332.8" y="161.2" type="curve" smooth="yes"/>
      <point x="259" y="161.2"/>
      <point x="196" y="219.2"/>
    </contour>
    <contour>
      <point x="35" y="320" type="curve" smooth="yes"/>
      <point x="35" y="539"/>
      <point x="191" y="709.2"/>
      <point x="415" y="709.2" type="curve" smooth="yes"/>
      <point x="625" y="709.2"/>
      <point x="735" y="549"/>
      <point x="735" y="390" type="curve" smooth="yes"/>
      <point x="735" y="220"/>
      <point x="631" y="150.8"/>
      <point x="556" y="150.8" type="curve" smooth="yes"/>
      <point x="495" y="150.8"/>
      <point x="460.8" y="204"/>
      <point x="472.4" y="278" type="curve"/>
      <point x="467.4" y="278" type="line"/>
      <point x="505" y="520" type="line"/>
      <point x="554.8" y="520" type="line"/>
      <point x="513.8" y="289" type="line" smooth="yes"/>
      <point x="512.8" y="282"/>
      <point x="511.8" y="266.8"/>
      <point x="511.8" y="258.8" type="curve" smooth="yes"/>
      <point x="511.8" y="230.8"/>
      <point x="518.6" y="194.8"/>
      <point x="562" y="194.8" type="curve" smooth="yes"/>
      <point x="609.2" y="194.8"/>
      <point x="688.6" y="256"/>
      <point x="688.6" y="390" type="curve" smooth="yes"/>
      <point x="688.6" y="531"/>
      <point x="595" y="665.8"/>
      <point x="415" y="665.8" type="curve" smooth="yes"/>
      <point x="214.6" y="665.8"/>
      <point x="81.4" y="516.2"/>
      <point x="81.4" y="320" type="curve" smooth="yes"/>
      <point x="81.4" y="145"/>
      <point x="187.8" y="34.2"/>
      <point x="361" y="34.2" type="curve" smooth="yes"/>
      <point x="446.6" y="34.2"/>
      <point x="516.8" y="51.8"/>
      <point x="578.4" y="88.6" type="curve"/>
      <point x="601.8" y="50.4" type="line"/>
      <point x="541.8" y="17.2"/>
      <point x="475" y="-9.2"/>
      <point x="361" y="-9.2" type="curve" smooth="yes"/>
      <point x="151" y="-9.2"/>
      <point x="35" y="121"/>
    </contour>
  </outline>
</glyph>
<glyph name="B" format="2">
  <advance width="532"/>
  <unicode hex="0042"/>
  <outline>
    <contour>
      <point x="127" y="376.4" type="line"/>
      <point x="127" y="407.8" type="line"/>
      <point x="236" y="407.8" type="line" smooth="yes"/>
      <point x="318" y="407.8"/>
      <point x="384.6" y="446"/>
      <point x="384.6" y="528" type="curve" smooth="yes"/>
      <point x="384.6" y="605.2"/>
      <point x="326" y="650.6"/>
      <point x="236" y="650.6" type="curve" smooth="yes"/>
      <point x="139" y="650.6" type="line"/>
      <point x="139" y="49.4" type="line"/>
      <point x="246" y="49.4" type="line" smooth="yes"/>
      <point x="352" y="49.4"/>
      <point x="423.4" y="102"/>
      <point x="423.4" y="206" type="curve" smooth="yes"/>
      <point x="423.4" y="304"/>
      <point x="340" y="359.4"/>
      <point x="246" y="359.4" type="curve" smooth="yes"/>
      <point x="127" y="359.4" type="line"/>
      <point x="127" y="390.8" type="line"/>
      <point x="250" y="390.8" type="line" smooth="yes"/>
      <point x="365" y="390.8"/>
      <point x="478.8" y="332"/>
      <point x="478.8" y="203" type="curve" smooth="yes"/>
      <point x="478.8" y="64"/>
      <point x="381" y="0"/>
      <point x="246" y="0" type="curve" smooth="yes"/>
      <point x="84" y="0" type="line"/>
      <point x="84" y="700" type="line"/>
      <point x="236" y="700" type="line" smooth="yes"/>
      <point x="361" y="700"/>
      <point x="440" y="642"/>
      <point x="440" y="531" type="curve" smooth="yes"/>
      <point x="440" y="428"/>
      <point x="357" y="376.4"/>
      <point x="240" y="376.4" type="curve" smooth="yes"/>
    </contour>
  </outline>
</glyph>
<glyph name="D" format="2">
  <advance width="662"/>
  <unicode hex="0044"/>
  <outline>
    <contour>
      <point x="84" y="700" type="line"/>
      <point x="139.4" y="700" type="line"/>
      <point x="139.4" y="0" type="line"/>
      <point x="84" y="0" type="line"/>
    </contour>
    <contour>
      <point x="274" y="0" type="curve" smooth="yes"/>
      <point x="114.2" y="0" type="line"/>
      <point x="114.2" y="55.4" type="line"/>
      <point x="274" y="55.4" type="line" smooth="yes"/>
      <point x="448.8" y="55.4"/>
      <point x="562.6" y="170.6"/>
      <point x="562.6" y="350" type="curve" smooth="yes"/>
      <point x="562.6" y="529"/>
      <point x="448.8" y="644.6"/>
      <point x="274" y="644.6" type="curve" smooth="yes"/>
      <point x="114.2" y="644.6" type="line"/>
      <point x="114.2" y="700" type="line"/>
      <point x="274" y="700" type="line" smooth="yes"/>
      <point x="478" y="700"/>
      <point x="618" y="559"/>
      <point x="618" y="350" type="curve" smooth="yes"/>
      <point x="618" y="141"/>
      <point x="478" y="0"/>
    </contour>
  </outline>
</glyph>
<glyph name="G" format="1">
  <advance width="771"/>
  <unicode hex="0047"/>
  <outline>
    <contour>
      <point x="411" y="297" type="line"/>
      <point x="411" y="349" type="line"/>
      <point x="722" y="349" type="line"/>
      <point x="722" y="159"/>
      <point x="599" y="-9"/>
      <point x="393" y="-9" type="curve" smooth="yes"/>
      <point x="193" y="-9"/>
      <point x="44" y="141"/>
      <point x="44" y="350" type="curve" smooth="yes"/>
      <point x="44" y="559"/>
      <point x="193" y="709"/>
      <point x="393" y="709" type="curve" smooth="yes"/>
      <point x="522" y="709"/>
      <point x="619" y="652"/>
      <point x="679" y="559" type="curve"/>
      <point x="639" y="524" type="line"/>
      <point x="593" y="602"/>
      <point x="506" y="654"/>
      <point x="393" y="654" type="curve" smooth="yes"/>
      <point x="228" y="654"/>
      <point x="102" y="529"/>
      <point x="102" y="350" type="curve" smooth="yes"/>
      <point x="102" y="172"/>
      <point x="227" y="46"/>
      <point x="393" y="46" type="curve" smooth="yes"/>
      <point x="551.298" y="46"/>
      <point x="646.497" y="161.681"/>
      <point x="664.046" y="297" type="curve"/>
    </contour>
  </outline>
</glyph>
<glyph name="H" format="2">
  <advance width="687"/>
  <unicode hex="0048"/>
  <outline>
    <contour>
      <point x="113.4" y="354.8" type="line"/>
      <point x="113.4" y="406.8" type="line"/>
      <point x="585.4" y="406.8" type="line"/>
      <point x="585.4" y="354.8" type="line"/>
    </contour>
    <contour>
      <point x="548.4" y="700" type="line"/>
      <point x="603.8" y="700" type="line"/>
      <point x="603.8" y="0" type="line"/>
      <point x="548.4" y="0" type="line"/>
    </contour>
    <contour>
      <point x="84" y="700" type="line"/>
      <point x="139.4" y="700" type="line"/>
      <point x="139.4" y="0" type="line"/>
      <point x="84" y="0" type="line"/>
    </contour>
  </outline>
</glyph>
<glyph name="L" format="2">
  <advance width="442"/>
  <unicode hex="004C"/>
  <outline>
    <contour>
      <point x="84" y="700" type="line"/>
      <point x="139" y="700" type="line"/>
      <point x="139" y="52" type="line"/>
      <point x="428" y="52" type="line"/>
      <point x="428" y="0" type="line"/>
      <point x="84" y="0" type="line"/>
    </contour>
  </outline>
</glyph>
<glyph name="M" format="1">
  <advance width="818"/>
  <unicode hex="004D"/>
  <outline>
    <contour>
      <point x="162.587" y="550.697" type="line"/>
      <point x="103" y="0" type="line"/>
      <point x="48" y="0" type="line"/>
      <point x="129" y="727" type="line"/>
      <point x="409" y="189" type="line"/>
      <point x="689" y="727" type="line"/>
      <point x="770" y="0" type="line"/>
      <point x="715" y="0" type="line"/>
      <point x="655.413" y="550.697" type="line"/>
      <point x="409" y="81" type="line"/>
    </contour>
  </outline>
</glyph>
<glyph name="N" format="1">
  <advance width="731"/>
  <unicode hex="004E"/>
  <outline>
    <contour>
      <point x="600" y="700" type="line"/>
      <point x="655" y="700" type="line"/>
      <point x="655" y="-27" type="line"/>
      <point x="123" y="579.297" type="line"/>
      <point x="123" y="0" type="line"/>
      <point x="68" y="0" type="line"/>
      <point x="68" y="727" type="line"/>
      <point x="600" y="118.869" type="line"/>
    </contour>
  </outline>
</glyph>
<glyph name="Q" format="2">
  <advance width="782"/>
  <unicode hex="0051"/>
  <outline>
    <contour>
      <point x="102.4" y="350" type="curve" smooth="yes"/>
      <point x="102.4" y="174.8"/>
      <point x="223.6" y="46.2"/>
      <point x="391.8" y="46.2" type="curve" smooth="yes"/>
      <point x="560" y="46.2"/>
      <point x="681.2" y="174.8"/>
      <point x="681.2" y="350" type="curve" smooth="yes"/>
      <point x="681.2" y="525.2"/>
      <point x="560" y="653.8"/>
      <point x="391.8" y="653.8" type="curve" smooth="yes"/>
      <point x="223.6" y="653.8"/>
      <point x="102.4" y="525.2"/>
    </contour>
    <contour>
      <point x="44" y="350" type="curve" smooth="yes"/>
      <point x="44" y="556"/>
      <point x="191.8" y="709.2"/>
      <point x="391.8" y="709.2" type="curve" smooth="yes"/>
      <point x="591.8" y="709.2"/>
      <point x="739.6" y="556"/>
      <point x="739.6" y="350" type="curve" smooth="yes"/>
      <point x="739.6" y="144"/>
      <point x="591.8" y="-9.2"/>
      <point x="391.8" y="-9.2" type="curve" smooth="yes"/>
      <point x="191.8" y="-9.2"/>
      <point x="44" y="144"/>
    </contour>
    <contour>
      <point x="387.4" y="300" type="line"/>
      <point x="459.8" y="300" type="line"/>
      <point x="767.8" y="0" type="line"/>
      <point x="695.4" y="0" type="line"/>
    </contour>
  </outline>
</glyph>
<glyph name="T" format="2">
  <advance width="451"/>
  <unicode hex="0054"/>
  <outline>
    <contour>
      <point x="14" y="647.6" type="line"/>
      <point x="14" y="700" type="line"/>
      <point x="437.4" y="700" type="line"/>
      <point x="437.4" y="647.6" type="line"/>
      <point x="253.4" y="647.6" type="line"/>
      <point x="253.4" y="0" type="line"/>
      <point x="198" y="0" type="line"/>
      <point x="198" y="647.6" type="line"/>
    </contour>
  </outline>
</glyph>
<glyph name="V" format="2">
  <advance width="636"/>
  <unicode hex="0056"/>
  <outline>
    <contour>
      <point x="318" y="100.8" type="line"/>
      <point x="564.8" y="700" type="line"/>
      <point x="627" y="700" type="line"/>
      <point x="318" y="-27" type="line"/>
      <point x="9" y="700" type="line"/>
      <point x="71.2" y="700" type="line"/>
    </contour>
  </outline>
</glyph>
<glyph name="W" format="1">
  <advance width="974"/>
  <unicode hex="0057"/>
  <outline>
    <contour>
      <point x="699.91" y="121.649" type="line"/>
      <point x="899" y="700" type="line"/>
      <point x="960" y="700" type="line"/>
      <point x="701" y="-27" type="line"/>
      <point x="487" y="576" type="line"/>
      <point x="273" y="-27" type="line"/>
      <point x="14" y="700" type="line"/>
      <point x="75" y="700" type="line"/>
      <point x="274.09" y="121.649" type="line"/>
      <point x="487" y="727" type="line"/>
    </contour>
  </outline>
</glyph>
<glyph name="Y" format="1">
  <advance width="539"/>
  <unicode hex="0059"/>
  <outline>
    <contour>
      <point x="468" y="700" type="line"/>
      <point x="530" y="700" type="line"/>
      <point x="295" y="288.973" type="line"/>
      <point x="295" y="0" type="line"/>
      <point x="240" y="0" type="line"/>
      <point x="240" y="288.14" type="line"/>
      <point x="9" y="700" type="line"/>
      <point x="71" y="700" type="line"/>
      <point x="267" y="338" type="line"/>
    </contour>
  </outline>
</glyph>
<glyph name="bracketright" format="2">
  <advance width="284"/>
  <unicode hex="005D"/>
  <outline>
    <contour>
      <point x="132.2" y="-170.6" type="line"/>
      <point x="132.2" y="730.6" type="line"/>
      <point x="20" y="730.6" type="line"/>
      <point x="20" y="780" type="line"/>
      <point x="184" y="780" type="line"/>
      <point x="184" y="-220" type="line"/>
      <point x="20" y="-220" type="line"/>
      <point x="20" y="-170.6" type="line"/>
    </contour>
  </outline>
</glyph>
<glyph name="asciicircum" format="2">
  <advance width="510"/>
  <unicode hex="005E"/>
  <outline>
    <contour>
      <point x="255" y="649.8" type="line"/>
      <point x="119" y="460" type="line"/>
      <point x="65" y="460" type="line"/>
      <point x="243" y="710" type="line"/>
      <point x="267" y="710" type="line"/>
      <point x="445" y="460" type="line"/>
      <point x="391" y="460" type="line"/>
    </contour>
  </outline>
</glyph>
<glyph name="underscore" format="1">
  <advance width="500"/>
  <unicode hex="005F"/>
  <outline>
    <contour>
      <point x="0" y="-123" type="line"/>
      <point x="0" y="-86" type="line"/>
      <point x="500" y="-86" type="line"/>
      <point x="500" y="-123" type="line"/>
    </contour>
  </outline>
</glyph>
<glyph name="grave" format="1">
  <advance width="366"/>
  <unicode hex="0060"/>
  <outline>
    <contour>
      <point x="85" y="673" type="line"/>
      <point x="133" y="700" type="line"/>
      <point x="291" y="540" type="line"/>
      <point x="262" y="520" type="line"/>
    </contour>
  </outline>
</glyph>
<glyph name="d" format="1">
  <advance width="558"/>
  <unicode hex="0064"/>
  <outline>
    <contour>
      <point x="432" y="780" type="line"/>
      <point x="484" y="780" type="line"/>
      <point x="484" y="0" type="line"/>
      <point x="432" y="0" type="line"/>
    </contour>
    <contour>
      <point x="39" y="230" type="curve" smooth="yes"/>
      <point x="39" y="378"/>
      <point x="138" y="470"/>
      <point x="261" y="470" type="curve" smooth="yes"/>
      <point x="379" y="470"/>
      <point x="456" y="367"/>
      <point x="456" y="230" type="curve" smooth="yes"/>
      <point x="456" y="93"/>
      <point x="379" y="-10"/>
      <point x="261" y="-10" type="curve" smooth="yes"/>
      <point x="138" y="-10"/>
      <point x="39" y="82"/>
    </contour>
    <contour>
      <point x="92" y="230" type="curve" smooth="yes"/>
      <point x="92" y="110"/>
      <point x="171" y="39"/>
      <point x="268" y="39" type="curve" smooth="yes"/>
      <point x="354" y="39"/>
      <point x="432" y="120"/>
      <point x="432" y="230" type="curve" smooth="yes"/>
      <point x="432" y="340"/>
      <point x="354" y="421"/>
      <point x="268" y="421" type="curve" smooth="yes"/>
      <point x="171" y="421"/>
      <point x="92" y="350"/>
    </contour>
  </outline>
</glyph>
<glyph name="e" format="1">
  <advance width="509"/>
  <unicode hex="0065"/>
  <outline>
    <contour>
      <point x="68" y="217" type="line"/>
      <point x="68" y="262" type="line"/>
      <point x="419.721" y="262" type="line"/>
      <point x="414.951" y="355.432"/>
      <point x="349.485" y="424"/>
      <point x="259" y="424" type="curve" smooth="yes"/>
      <point x="170" y="424"/>
      <point x="93" y="358"/>
      <point x="93" y="249" type="curve"/>
      <point x="92" y="231" type="line"/>
      <point x="92" y="115"/>
      <point x="160" y="39"/>
      <point x="258" y="39" type="curve" smooth="yes"/>
      <point x="345" y="39"/>
      <point x="390" y="84"/>
      <point x="421" y="134" type="curve"/>
      <point x="463" y="107" type="line"/>
      <point x="423" y="46"/>
      <point x="373" y="-10"/>
      <point x="252" y="-10" type="curve" smooth="yes"/>
      <point x="131" y="-10"/>
      <point x="39" y="92"/>
      <point x="39" y="231" type="curve" smooth="yes"/>
      <point x="39" y="252"/>
      <point x="40" y="272"/>
      <point x="45" y="291" type="curve" smooth="yes"/>
      <point x="67" y="397"/>
      <point x="149" y="470"/>
      <point x="260" y="470" type="curve" smooth="yes"/>
      <point x="380" y="470"/>
      <point x="471" y="379"/>
      <point x="471" y="242" type="curve" smooth="yes"/>
      <point x="471" y="234"/>
      <point x="470" y="225"/>
      <point x="469" y="217" type="curve"/>
    </contour>
  </outline>
</glyph>
<glyph name="j" format="2">
  <advance width="222"/>
  <unicode hex="006A"/>
  <outline>
    <contour>
      <point x="69" y="668" type="curve" smooth="yes"/>
      <point x="69" y="688.4"/>
      <point x="85.2" y="705"/>
      <point x="106" y="705" type="curve" smooth="yes"/>
      <point x="126.8" y="705"/>
      <point x="143" y="688.4"/>
      <point x="143" y="668" type="curve" smooth="yes"/>
      <point x="143" y="647.6"/>
      <point x="126.8" y="631"/>
      <point x="106" y="631" type="curve" smooth="yes"/>
      <point x="85.2" y="631"/>
      <point x="69" y="647.6"/>
    </contour>
    <contour>
      <point x="-48.6" y="-134.4" type="line"/>
      <point x="-33.8" y="-156.2"/>
      <point x="-12.4" y="-168"/>
      <point x="12" y="-168" type="curve" smooth="yes"/>
      <point x="62" y="-168"/>
      <point x="80" y="-124.8"/>
      <point x="80" y="-62.8" type="curve" smooth="yes"/>
      <point x="80" y="460" type="line"/>
      <point x="132" y="460" type="line"/>
      <point x="132" y="-68.8" type="line" smooth="yes"/>
      <point x="132" y="-161.8"/>
      <point x="93" y="-220"/>
      <point x="9" y="-220" type="curve" smooth="yes"/>
      <point x="-34" y="-220"/>
      <point x="-62.8" y="-196.8"/>
      <point x="-77.8" y="-176.8" type="curve"/>
    </contour>
  </outline>
</glyph>
<glyph name="q" format="2">
  <advance width="558"/>
  <unicode hex="0071"/>
  <outline>
    <contour>
      <point x="432.4" y="-220" type="line"/>
      <point x="432.4" y="460" type="line"/>
      <point x="484.4" y="460" type="line"/>
      <point x="484.4" y="-220" type="line"/>
    </contour>
    <contour>
      <point x="39" y="230" type="curve" smooth="yes"/>
      <point x="39" y="378.2"/>
      <point x="138" y="470"/>
      <point x="261" y="470" type="curve" smooth="yes"/>
      <point x="379.2" y="470"/>
      <point x="456" y="367"/>
      <point x="456" y="230" type="curve" smooth="yes"/>
      <point x="456" y="93"/>
      <point x="379.2" y="-10"/>
      <point x="261" y="-10" type="curve" smooth="yes"/>
      <point x="138" y="-10"/>
      <point x="39" y="81.8"/>
    </contour>
    <contour>
      <point x="91.6" y="230" type="curve" smooth="yes"/>
      <point x="91.6" y="110"/>
      <point x="170.8" y="39"/>
      <point x="268.2" y="39" type="curve" smooth="yes"/>
      <point x="353.8" y="39"/>
      <point x="432.4" y="120"/>
      <point x="432.4" y="230" type="curve" smooth="yes"/>
      <point x="432.4" y="340"/>
      <point x="353.8" y="421"/>
      <point x="268.2" y="421" type="curve" smooth="yes"/>
      <point x="170.8" y="421"/>
      <point x="91.6" y="350"/>
    </contour>
  </outline>
</glyph>
<glyph name="r" format="2">
  <advance width="321"/>
  <unicode hex="0072"/>
  <outline>
    <contour>
      <point x="131" y="460" type="line"/>
      <point x="131" y="0" type="line"/>
      <point x="79" y="0" type="line"/>
      <point x="79" y="460" type="line"/>
    </contour>
    <contour>
      <point x="284" y="399.2" type="line"/>
      <point x="264" y="413.6"/>
      <point x="247.6" y="421"/>
      <point x="224" y="421" type="curve" smooth="yes"/>
      <point x="156" y="421"/>
      <point x="131" y="358"/>
      <point x="131" y="280" type="curve"/>
      <point x="107.4" y="280" type="line"/>
      <point x="107.4" y="389"/>
      <point x="163" y="470"/>
      <point x="236" y="470" type="curve" smooth="yes"/>
      <point x="265" y="470"/>
      <point x="291.6" y="461.8"/>
      <point x="312.8" y="442" type="curve"/>
    </contour>
  </outline>
</glyph>
<glyph name="t" format="2">
  <advance width="220"/>
  <unicode hex="0074"/>
  <outline>
    <contour>
      <point x="9" y="460" type="line"/>
      <point x="211" y="460" type="line"/>
      <point x="211" y="411" type="line"/>
      <point x="9" y="411" type="line"/>
    </contour>
    <contour>
      <point x="84" y="620" type="line"/>
      <point x="136" y="620" type="line"/>
      <point x="136" y="0" type="line"/>
      <point x="84" y="0" type="line"/>
    </contour>
  </outline>
</glyph>
<glyph name="v" format="2">
  <advance width="432"/>
  <unicode hex="0076"/>
  <outline>
    <contour>
      <point x="4" y="460" type="line"/>
      <point x="62.8" y="460" type="line"/>
      <point x="216" y="85" type="line"/>
      <point x="369.2" y="460" type="line"/>
      <point x="428" y="460" type="line"/>
      <point x="216" y="-27" type="line"/>
    </contour>
  </outline>
</glyph>
<glyph name="w" format="1">
  <advance width="656"/>
  <unicode hex="0077"/>
  <outline>
    <contour>
      <point x="9" y="460" type="line"/>
      <point x="67" y="460" type="line"/>
      <point x="190.925" y="106.947" type="line"/>
      <point x="323" y="487" type="line"/>
      <point x="464.582" y="105.542" type="line"/>
      <point x="589" y="460" type="line"/>
      <point x="647" y="460" type="line"/>
      <point x="468" y="-27" type="line"/>
      <point x="323.57" y="352.241" type="line"/>
      <point x="188" y="-27" type="line"/>
    </contour>
  </outline>
</glyph>
<glyph name="x" format="2">
  <advance width="404"/>
  <unicode hex="0078"/>
  <outline>
    <contour>
      <point x="330" y="460" type="line"/>
      <point x="389.6" y="460" type="line"/>
      <point x="230.6" y="237" type="line"/>
      <point x="400" y="0" type="line"/>
      <point x="340" y="0" type="line"/>
      <point x="202" y="196" type="line"/>
      <point x="64" y="0" type="line"/>
      <point x="4" y="0" type="line"/>
      <point x="173.4" y="237" type="line"/>
      <point x="14" y="460" type="line"/>
      <point x="74" y="460" type="line"/>
      <point x="202" y="278" type="line"/>
    </contour>
  </outline>
</glyph>
<glyph name="y" format="1">
  <advance width="434"/>
  <unicode hex="0079"/>
  <outline>
    <contour>
      <point x="430" y="460" type="line"/>
      <point x="130" y="-220" type="line"/>
      <point x="72" y="-220" type="line"/>
      <point x="190" y="47" type="line"/>
      <point x="4" y="460" type="line"/>
      <point x="66" y="460" type="line"/>
      <point x="233" y="68" type="line"/>
      <point x="209" y="70" type="line"/>
      <point x="372" y="460" type="line"/>
    </contour>
  </outline>
</glyph>
<glyph name="braceright" format="2">
  <advance width="299"/>
  <unicode hex="007D"/>
  <outline>
    <contour>
      <point x="138.4" y="-72" type="curve" smooth="yes"/>
      <point x="138.4" y="114" type="line" smooth="yes"/>
      <point x="138.4" y="203"/>
      <point x="156.4" y="296.8"/>
      <point x="233.4" y="296.8" type="curve"/>
      <point x="233.4" y="283.2" type="line"/>
      <point x="156.4" y="283.2"/>
      <point x="138.4" y="377"/>
      <point x="138.4" y="466" type="curve" smooth="yes"/>
      <point x="138.4" y="652" type="line" smooth="yes"/>
      <point x="138.4" y="706"/>
      <point x="120.4" y="734"/>
      <point x="76.4" y="734" type="curve" smooth="yes"/>
      <point x="47.4" y="734" type="line"/>
      <point x="47.4" y="780" type="line"/>
      <point x="91.4" y="780" type="line" smooth="yes"/>
      <point x="147.4" y="780"/>
      <point x="190.4" y="739"/>
      <point x="190.4" y="640" type="curve" smooth="yes"/>
      <point x="190.4" y="430" type="line" smooth="yes"/>
      <point x="190.4" y="354"/>
      <point x="212.4" y="320"/>
      <point x="242.4" y="310" type="curve"/>
      <point x="242.4" y="270" type="line"/>
      <point x="212.4" y="260"/>
      <point x="190.4" y="226"/>
      <point x="190.4" y="150" type="curve" smooth="yes"/>
      <point x="190.4" y="-60" type="line" smooth="yes"/>
      <point x="190.4" y="-159"/>
      <point x="147.4" y="-200"/>
      <point x="91.4" y="-200" type="curve" smooth="yes"/>
      <point x="47.4" y="-200" type="line"/>
      <point x="47.4" y="-154" type="line"/>
      <point x="76.4" y="-154" type="line" smooth="yes"/>
      <point x="120.4" y="-154"/>
      <point x="138.4" y="-126"/>
    </contour>
  </outline>
</glyph>
<glyph name="asciitilde" format="2">
  <advance width="575"/>
  <unicode hex="007E"/>
  <outline>
    <contour>
      <point x="120.4" y="176.8" type="curve"/>
      <point x="72" y="181" type="line"/>
      <point x="70" y="188"/>
      <point x="69" y="196"/>
      <point x="69" y="205" type="curve" smooth="yes"/>
      <point x="69" y="230.8"/>
      <point x="75.8" y="257.8"/>
      <point x="93.8" y="281" type="curve" smooth="yes"/>
      <point x="117" y="311.2"/>
      <point x="150.4" y="327"/>
      <point x="190" y="327" type="curve" smooth="yes"/>
      <point x="237" y="327"/>
      <point x="275" y="299.4"/>
      <point x="311" y="267.4" type="curve" smooth="yes"/>
      <point x="338.6" y="242"/>
      <point x="365.6" y="221"/>
      <point x="395.6" y="221" type="curve" smooth="yes"/>
      <point x="436.6" y="221"/>
      <point x="455.6" y="249.6"/>
      <point x="455.6" y="293.6" type="curve" smooth="yes"/>
      <point x="455.6" y="301.6"/>
      <point x="454.6" y="312.2"/>
      <point x="450.6" y="322.2" type="curve"/>
      <point x="502" y="318" type="line"/>
      <point x="504" y="310"/>
      <point x="506" y="300"/>
      <point x="506" y="290" type="curve" smooth="yes"/>
      <point x="506" y="265.2"/>
      <point x="500.6" y="236.4"/>
      <point x="484" y="214.2" type="curve" smooth="yes"/>
      <point x="462" y="185"/>
      <point x="432.8" y="172"/>
      <point x="398" y="172" type="curve" smooth="yes"/>
      <point x="356" y="172"/>
      <point x="322" y="197.2"/>
      <point x="285" y="229.2" type="curve" smooth="yes"/>
      <point x="257" y="254.2"/>
      <point x="226.4" y="278.6"/>
      <point x="189.4" y="278.6" type="curve" smooth="yes"/>
      <point x="142.6" y="278.6"/>
      <point x="116.4" y="247"/>
      <point x="116.4" y="198.8" type="curve" smooth="yes"/>
      <point x="116.4" y="191.8"/>
      <point x="117.4" y="184.8"/>
    </contour>
  </outline>
</glyph>
<glyph name="exclamdown" format="1">
  <advance width="300"/>
  <unicode hex="00A1"/>
  <outline>
    <contour>
      <point x="190.4" y="-245" type="line"/>
      <point x="124.8" y="-245" type="line"/>
      <point x="138.4" y="255" type="line"/>
      <point x="176.8" y="255" type="line"/>
    </contour>
    <contour>
      <point x="195" y="430.6" type="curve" smooth="yes"/>
      <point x="195" y="409.8"/>
      <point x="178" y="393.2"/>
      <point x="157.6" y="393.2" type="curve" smooth="yes"/>
      <point x="137.2" y="393.2"/>
      <point x="120.2" y="409.8"/>
      <point x="120.2" y="430.6" type="curve" smooth="yes"/>
      <point x="120.2" y="451.4"/>
      <point x="137.2" y="468"/>
      <point x="157.6" y="468" type="curve" smooth="yes"/>
      <point x="178" y="468"/>
      <point x="195" y="451.4"/>
    </contour>
  </outline>
</glyph>
<glyph name="cent" format="2">
  <advance width="580"/>
  <unicode hex="00A2"/>
  <outline>
    <contour>
      <point x="294.4" y="21.2" type="line"/>
      <point x="334.4" y="21.2" type="line"/>
      <point x="336.4" y="-112" type="line"/>
      <point x="292.4" y="-112" type="line"/>
    </contour>
    <contour>
      <point x="135.6" y="230" type="curve" smooth="yes"/>
      <point x="135.6" y="120"/>
      <point x="214.2" y="39"/>
      <point x="319" y="39" type="curve" smooth="yes"/>
      <point x="393" y="39"/>
      <point x="456" y="76.8"/>
      <point x="477" y="113.8" type="curve"/>
      <point x="477" y="48.6" type="line"/>
      <point x="449" y="15.8"/>
      <point x="386" y="-10"/>
      <point x="319" y="-10" type="curve" smooth="yes"/>
      <point x="185.2" y="-10"/>
      <point x="83" y="91"/>
      <point x="83" y="230" type="curve" smooth="yes"/>
      <point x="83" y="369"/>
      <point x="185.2" y="470"/>
      <point x="319" y="470" type="curve" smooth="yes"/>
      <point x="386" y="470"/>
      <point x="449.4" y="443.2"/>
      <point x="477" y="411.4" type="curve"/>
      <point x="477" y="346.2" type="line"/>
      <point x="456" y="383.2"/>
      <point x="393" y="421"/>
      <point x="319" y="421" type="curve" smooth="yes"/>
      <point x="214.2" y="421"/>
      <point x="135.6" y="340"/>
    </contour>
    <contour>
      <point x="292.4" y="578" type="line"/>
      <point x="336.4" y="578" type="line"/>
      <point x="334.4" y="442" type="line"/>
      <point x="294.4" y="442" type="line"/>
    </contour>
  </outline>
</glyph>
<glyph name="sterling" format="2">
  <advance width="580"/>
  <unicode hex="00A3"/>
  <outline>
    <contour>
      <point x="75" y="344" type="line"/>
      <point x="415" y="344" type="line"/>
      <point x="415" y="295" type="line"/>
      <point x="75" y="295" type="line"/>
    </contour>
    <contour>
      <point x="462.4" y="486.6" type="line"/>
      <point x="458.8" y="562"/>
      <point x="417" y="655.6"/>
      <point x="317" y="655.6" type="curve" smooth="yes"/>
      <point x="239.8" y="655.6"/>
      <point x="180.2" y="605.2"/>
      <point x="180.2" y="527.2" type="curve" smooth="yes"/>
      <point x="180.2" y="408.4"/>
      <point x="286" y="374"/>
      <point x="286" y="264" type="curve" smooth="yes"/>
      <point x="286" y="158"/>
      <point x="188.4" y="60.8"/>
      <point x="134.4" y="30" type="curve"/>
      <point x="134" y="52" type="line"/>
      <point x="509" y="52" type="line"/>
      <point x="509" y="0" type="line"/>
      <point x="76" y="0" type="line"/>
      <point x="166" y="102"/>
      <point x="233.4" y="167"/>
      <point x="233.4" y="255" type="curve" smooth="yes"/>
      <point x="233.4" y="352.2"/>
      <point x="124" y="394"/>
      <point x="124" y="526" type="curve" smooth="yes"/>
      <point x="124" y="633"/>
      <point x="202" y="710"/>
      <point x="317" y="710" type="curve" smooth="yes"/>
      <point x="450" y="710"/>
      <point x="504" y="584"/>
      <point x="509" y="504" type="curve"/>
    </contour>
  </outline>
</glyph>
<glyph name="currency" format="2">
  <advance width="572"/>
  <unicode hex="00A4"/>
  <outline>
    <contour>
      <point x="45" y="511" type="line"/>
      <point x="79" y="545" type="line"/>
      <point x="160" y="463" type="line"/>
      <point x="127" y="430" type="line"/>
    </contour>
    <contour>
      <point x="79" y="55" type="line"/>
      <point x="45" y="89" type="line"/>
      <point x="127" y="170" type="line"/>
      <point x="160" y="137" type="line"/>
    </contour>
    <contour>
      <point x="449" y="430" type="line"/>
      <point x="415" y="463" type="line"/>
      <point x="497" y="545" type="line"/>
      <point x="530" y="511" type="line"/>
    </contour>
    <contour>
      <point x="415" y="137" type="line"/>
      <point x="449" y="170" type="line"/>
      <point x="530" y="89" type="line"/>
      <point x="497" y="55" type="line"/>
    </contour>
    <contour>
      <point x="52" y="300" type="curve" smooth="yes"/>
      <point x="52" y="439"/>
      <point x="155" y="540"/>
      <point x="286" y="540" type="curve" smooth="yes"/>
      <point x="417" y="540"/>
      <point x="520" y="439"/>
      <point x="520" y="300" type="curve" smooth="yes"/>
      <point x="520" y="161"/>
      <point x="417" y="60"/>
      <point x="286" y="60" type="curve" smooth="yes"/>
      <point x="155" y="60"/>
      <point x="52" y="161"/>
    </contour>
    <contour>
      <point x="104.6" y="300" type="curve" smooth="yes"/>
      <point x="104.6" y="190"/>
      <point x="184" y="109"/>
      <point x="286" y="109" type="curve" smooth="yes"/>
      <point x="388" y="109"/>
      <point x="467.4" y="190"/>
      <point x="467.4" y="300" type="curve" smooth="yes"/>
      <point x="467.4" y="410"/>
      <point x="388" y="491"/>
      <point x="286" y="491" type="curve" smooth="yes"/>
      <point x="184" y="491"/>
      <point x="104.6" y="410"/>
    </contour>
  </outline>
</glyph>
<glyph name="yen" format="2">
  <advance width="574"/>
  <unicode hex="00A5"/>
  <outline>
    <contour>
      <point x="39" y="282" type="line"/>
      <point x="39" y="331" type="line"/>
      <point x="520.8" y="331" type="line"/>
      <point x="520.8" y="282" type="line"/>
    </contour>
    <contour>
      <point x="39" y="142" type="line"/>
      <point x="39" y="191" type="line"/>
      <point x="520.8" y="191" type="line"/>
      <point x="520.8" y="142" type="line"/>
    </contour>
    <contour>
      <point x="480.2" y="700" type="line"/>
      <point x="541.8" y="700" type="line"/>
      <point x="308" y="289.6" type="line"/>
      <point x="308" y="0" type="line"/>
      <point x="252" y="0" type="line"/>
      <point x="252" y="288.6" type="line"/>
      <point x="21" y="700" type="line"/>
      <point x="83.2" y="700" type="line"/>
      <point x="279.6" y="338" type="line"/>
    </contour>
  </outline>
</glyph>
<glyph name="section" format="1">
  <advance width="404"/>
  <unicode hex="00A7"/>
  <outline>
    <contour>
      <point x="328.8" y="593.8" type="line"/>
      <point x="308.8" y="636.2"/>
      <point x="254.4" y="660.4"/>
      <point x="206.6" y="660.4" type="curve" smooth="yes"/>
      <point x="158.6" y="660.4"/>
      <point x="111" y="640"/>
      <point x="111" y="593" type="curve" smooth="yes"/>
      <point x="111" y="543.8"/>
      <point x="188.8" y="517.8"/>
      <point x="239.8" y="496.8" type="curve" smooth="yes"/>
      <point x="304.8" y="469.8"/>
      <point x="374" y="433"/>
      <point x="374" y="366" type="curve" smooth="yes"/>
      <point x="374" y="275"/>
      <point x="307" y="240"/>
      <point x="208" y="240" type="curve"/>
      <point x="208" y="261" type="line"/>
      <point x="274" y="267"/>
      <point x="320.2" y="309.8"/>
      <point x="320.2" y="361.8" type="curve" smooth="yes"/>
      <point x="320.2" y="415.8"/>
      <point x="254" y="442"/>
      <point x="201" y="463" type="curve" smooth="yes"/>
      <point x="138" y="488"/>
      <point x="59" y="516"/>
      <point x="59" y="593" type="curve" smooth="yes"/>
      <point x="59" y="669"/>
      <point x="132" y="710"/>
      <point x="206" y="710" type="curve" smooth="yes"/>
      <point x="279" y="710"/>
      <point x="352" y="671"/>
      <point x="370" y="620" type="curve"/>
    </contour>
    <contour>
      <point x="72.8" y="147.4" type="line"/>
      <point x="85.2" y="87.4"/>
      <point x="146" y="39"/>
      <point x="215" y="39" type="curve" smooth="yes"/>
      <point x="269" y="39"/>
      <point x="320.2" y="57.8"/>
      <point x="320.2" y="113.8" type="curve" smooth="yes"/>
      <point x="320.2" y="175.8"/>
      <point x="255.2" y="198.8"/>
      <point x="198.2" y="222.2" type="curve" smooth="yes"/>
      <point x="135.6" y="248"/>
      <point x="59" y="286"/>
      <point x="59" y="359" type="curve" smooth="yes"/>
      <point x="59" y="427"/>
      <point x="112" y="480"/>
      <point x="226" y="480" type="curve"/>
      <point x="226" y="464.4" type="line"/>
      <point x="150" y="448.4"/>
      <point x="111" y="410"/>
      <point x="111" y="365" type="curve" smooth="yes"/>
      <point x="111" y="300.2"/>
      <point x="186" y="277"/>
      <point x="237" y="256" type="curve" smooth="yes"/>
      <point x="302" y="229"/>
      <point x="374" y="193"/>
      <point x="374" y="118" type="curve" smooth="yes"/>
      <point x="374" y="27"/>
      <point x="303" y="-10"/>
      <point x="212" y="-10" type="curve" smooth="yes"/>
      <point x="127" y="-10"/>
      <point x="44" y="48"/>
      <point x="30" y="123" type="curve"/>
    </contour>
  </outline>
</glyph>
<glyph name="dieresis" format="2">
  <advance width="450"/>
  <unicode hex="00A8"/>
  <outline>
    <contour>
      <point x="288" y="671.6" type="curve" smooth="yes"/>
      <point x="288" y="692.4"/>
      <point x="305" y="709"/>
      <point x="325.4" y="709" type="curve" smooth="yes"/>
      <point x="345.8" y="709"/>
      <point x="362.8" y="692.4"/>
      <point x="362.8" y="671.6" type="curve" smooth="yes"/>
      <point x="362.8" y="650.8"/>
      <point x="345.8" y="634.2"/>
      <point x="325.4" y="634.2" type="curve" smooth="yes"/>
      <point x="305" y="634.2"/>
      <point x="288" y="650.8"/>
    </contour>
    <contour>
      <point x="88" y="671.6" type="curve" smooth="yes"/>
      <point x="88" y="692.4"/>
      <point x="105" y="709"/>
      <point x="125.4" y="709" type="curve" smooth="yes"/>
      <point x="145.8" y="709"/>
      <point x="162.8" y="692.4"/>
      <point x="162.8" y="671.6" type="curve" smooth="yes"/>
      <point x="162.8" y="650.8"/>
      <point x="145.8" y="634.2"/>
      <point x="125.4" y="634.2" type="curve" smooth="yes"/>
      <point x="105" y="634.2"/>
      <point x="88" y="650.8"/>
    </contour>
  </outline>
</glyph>
<glyph name="copyright" format="1">
  <advance width="800"/>
  <unicode hex="00A9"/>
  <outline>
    <contour>
      <point x="222.6" y="350" type="curve" smooth="yes"/>
      <point x="222.6" y="243.2"/>
      <point x="294.4" y="167.8"/>
      <point x="392.6" y="167.8" type="curve" smooth="yes"/>
      <point x="451.6" y="167.8"/>
      <point x="496.2" y="189.6"/>
      <point x="527.6" y="225.4" type="curve"/>
      <point x="527.6" y="181.2" type="line"/>
      <point x="492.6" y="150.2"/>
      <point x="453.6" y="134.4"/>
      <point x="392.6" y="134.4" type="curve" smooth="yes"/>
      <point x="276.6" y="134.4"/>
      <point x="187.4" y="225"/>
      <point x="187.4" y="350" type="curve" smooth="yes"/>
      <point x="187.4" y="475"/>
      <point x="276.6" y="565.6"/>
      <point x="392.6" y="565.6" type="curve" smooth="yes"/>
      <point x="453.6" y="565.6"/>
      <point x="492.6" y="549.8"/>
      <point x="527.6" y="518.8" type="curve"/>
      <point x="527.6" y="475" type="line"/>
      <point x="496.6" y="510.8"/>
      <point x="450.4" y="532.2"/>
      <point x="392.6" y="532.2" type="curve" smooth="yes"/>
      <point x="294.4" y="532.2"/>
      <point x="222.6" y="457.6"/>
    </contour>
    <contour>
      <point x="77" y="350" type="curve" smooth="yes"/>
      <point x="77" y="162"/>
      <point x="219" y="24"/>
      <point x="400" y="24" type="curve" smooth="yes"/>
      <point x="581" y="24"/>
      <point x="723" y="162"/>
      <point x="723" y="350" type="curve" smooth="yes"/>
      <point x="723" y="538"/>
      <point x="581" y="676"/>
      <point x="400" y="676" type="curve" smooth="yes"/>
      <point x="219" y="676"/>
      <point x="77" y="538"/>
    </contour>
    <contour>
      <point x="40" y="350" type="curve" smooth="yes"/>
      <point x="40" y="559"/>
      <point x="196" y="710"/>
      <point x="400" y="710" type="curve" smooth="yes"/>
      <point x="604" y="710"/>
      <point x="760" y="559"/>
      <point x="760" y="350" type="curve" smooth="yes"/>
      <point x="760" y="141"/>
      <point x="604" y="-10"/>
      <point x="400" y="-10" type="curve" smooth="yes"/>
      <point x="196" y="-10"/>
      <point x="40" y="141"/>
    </contour>
  </outline>
</glyph>
<glyph name="ordfeminine" format="1">
  <advance width="238"/>
  <unicode hex="00AA"/>
  <outline>
    <contour>
      <point x="48.6" y="530.4" type="curve" smooth="yes"/>
      <point x="48.6" y="497.6"/>
      <point x="70.6" y="478.6"/>
      <point x="106.8" y="478.6" type="curve" smooth="yes"/>
      <point x="145.8" y="478.6"/>
      <point x="180" y="503"/>
      <point x="180" y="546" type="curve"/>
      <point x="186" y="531" type="line"/>
      <point x="186" y="487"/>
      <point x="150" y="455"/>
      <point x="100.8" y="455" type="curve" smooth="yes"/>
      <point x="60.4" y="455"/>
      <point x="22.4" y="480.2"/>
      <point x="22.4" y="530.4" type="curve" smooth="yes"/>
      <point x="22.4" y="578.4"/>
      <point x="68.8" y="607.8"/>
      <point x="117.2" y="607.8" type="curve" smooth="yes"/>
      <point x="159.2" y="607.8"/>
      <point x="181.8" y="589.4"/>
      <point x="190" y="581" type="curve"/>
      <point x="190" y="564.2" type="line"/>
      <point x="172" y="578.2"/>
      <point x="149.4" y="588.2"/>
      <point x="118.4" y="588.2" type="curve" smooth="yes"/>
      <point x="80" y="588.2"/>
      <point x="48.6" y="565.6"/>
    </contour>
    <contour>
      <point x="55.8" y="652.4" type="curve"/>
      <point x="42.8" y="672.6" type="line"/>
      <point x="59.4" y="686.2"/>
      <point x="87.2" y="703"/>
      <point x="126.8" y="703" type="curve" smooth="yes"/>
      <point x="176" y="703"/>
      <point x="206" y="675"/>
      <point x="206" y="631" type="curve" smooth="yes"/>
      <point x="206" y="460" type="line"/>
      <point x="180" y="460" type="line"/>
      <point x="180" y="631" type="line" smooth="yes"/>
      <point x="180" y="662"/>
      <point x="158.6" y="680"/>
      <point x="126.8" y="680" type="curve" smooth="yes"/>
      <point x="93.8" y="680"/>
      <point x="69.6" y="664.4"/>
    </contour>
  </outline>
</glyph>
<glyph name="registered" format="1">
  <advance width="800"/>
  <unicode hex="00AE"/>
  <outline>
    <contour>
      <point x="355.4" y="350.2" type="line"/>
      <point x="392.8" y="350.2" type="line"/>
      <point x="536" y="150" type="line"/>
      <point x="494.6" y="150" type="line"/>
    </contour>
    <contour>
      <point x="284.4" y="570" type="line"/>
      <point x="317.8" y="570" type="line"/>
      <point x="317.8" y="150" type="line"/>
      <point x="284.4" y="150" type="line"/>
    </contour>
    <contour>
      <point x="301.6" y="540.2" type="line"/>
      <point x="301.6" y="570" type="line"/>
      <point x="380.4" y="570" type="line" smooth="yes"/>
      <point x="461.4" y="570"/>
      <point x="523" y="525"/>
      <point x="523" y="448" type="curve" smooth="yes"/>
      <point x="523" y="371"/>
      <point x="461.4" y="326"/>
      <point x="380.4" y="326" type="curve" smooth="yes"/>
      <point x="301.6" y="326" type="line"/>
      <point x="301.6" y="355.4" type="line"/>
      <point x="380.4" y="355.4" type="line" smooth="yes"/>
      <point x="444.4" y="355.4"/>
      <point x="489.6" y="387.2"/>
      <point x="489.6" y="448" type="curve" smooth="yes"/>
      <point x="489.6" y="508.8"/>
      <point x="444.4" y="540.2"/>
      <point x="380.4" y="540.2" type="curve" smooth="yes"/>
    </contour>
    <contour>
      <point x="77" y="350" type="curve" smooth="yes"/>
      <point x="77" y="162"/>
      <point x="219" y="24"/>
      <point x="400" y="24" type="curve" smooth="yes"/>
      <point x="581" y="24"/>
      <point x="723" y="162"/>
      <point x="723" y="350" type="curve" smooth="yes"/>
      <point x="723" y="538"/>
      <point x="581" y="676"/>
      <point x="400" y="676" type="curve" smooth="yes"/>
      <point x="219" y="676"/>
      <point x="77" y="538"/>
    </contour>
    <contour>
      <point x="40" y="350" type="curve" smooth="yes"/>
      <point x="40" y="559"/>
      <point x="196" y="710"/>
      <point x="400" y="710" type="curve" smooth="yes"/>
      <point x="604" y="710"/>
      <point x="760" y="559"/>
      <point x="760" y="350" type="curve" smooth="yes"/>
      <point x="760" y="141"/>
      <point x="604" y="-10"/>
      <point x="400" y="-10" type="curve" smooth="yes"/>
      <point x="196" y="-10"/>
      <point x="40" y="141"/>
    </contour>
  </outline>
</glyph>
<glyph name="degree" format="1">
  <advance width="278"/>
  <unicode hex="00B0"/>
  <outline>
    <contour>
      <point x="20" y="600" type="curve" smooth="yes"/>
      <point x="20" y="670"/>
      <point x="71" y="720"/>
      <point x="139" y="720" type="curve" smooth="yes"/>
      <point x="207" y="720"/>
      <point x="258" y="670"/>
      <point x="258" y="600" type="curve" smooth="yes"/>
      <point x="258" y="530"/>
      <point x="207" y="480"/>
      <point x="139" y="480" type="curve" smooth="yes"/>
      <point x="71" y="480"/>
      <point x="20" y="530"/>
    </contour>
    <contour>
      <point x="48" y="600" type="curve" smooth="yes"/>
      <point x="48" y="545.2"/>
      <point x="88" y="506.8"/>
      <point x="139" y="506.8" type="curve" smooth="yes"/>
      <point x="190" y="506.8"/>
      <point x="230" y="545.2"/>
      <point x="230" y="600" type="curve" smooth="yes"/>
      <point x="230" y="654.8"/>
      <point x="190" y="693.2"/>
      <point x="139" y="693.2" type="curve" smooth="yes"/>
      <point x="88" y="693.2"/>
      <point x="48" y="654.8"/>
    </contour>
  </outline>
</glyph>
<glyph name="uni00B2" format="1">
  <advance width="340"/>
  <unicode hex="00B2"/>
  <outline>
    <contour>
      <point x="27" y="282" type="line"/>
      <point x="222.6" y="489.6" type="line" smooth="yes"/>
      <point x="251" y="519.4"/>
      <point x="271.8" y="548.8"/>
      <point x="271.8" y="589.2" type="curve" smooth="yes"/>
      <point x="271.8" y="630.2"/>
      <point x="245.2" y="677.8"/>
      <point x="183.4" y="677.8" type="curve" smooth="yes"/>
      <point x="122.2" y="677.8"/>
      <point x="81.6" y="630.4"/>
      <point x="81.6" y="558" type="curve"/>
      <point x="48.6" y="558" type="line"/>
      <point x="48.6" y="647"/>
      <point x="101.2" y="709"/>
      <point x="183.4" y="709" type="curve" smooth="yes"/>
      <point x="270.6" y="709"/>
      <point x="305.4" y="640.4"/>
      <point x="305.4" y="586.8" type="curve" smooth="yes"/>
      <point x="305.4" y="541.4"/>
      <point x="280.4" y="504"/>
      <point x="248.6" y="471.2" type="curve" smooth="yes"/>
      <point x="96" y="313.2" type="line"/>
      <point x="313.4" y="313.2" type="line"/>
      <point x="313.4" y="282" type="line"/>
    </contour>
  </outline>
</glyph>
<glyph name="uni00B3" format="1">
  <advance width="310"/>
  <unicode hex="00B3"/>
  <outline>
    <contour>
      <point x="140.6" y="491" type="curve"/>
      <point x="140.6" y="512.8" type="line"/>
      <point x="194.6" y="512.8"/>
      <point x="241.6" y="547"/>
      <point x="241.6" y="595.8" type="curve" smooth="yes"/>
      <point x="241.6" y="639.8"/>
      <point x="213.6" y="676"/>
      <point x="161.6" y="676" type="curve" smooth="yes"/>
      <point x="112.2" y="676"/>
      <point x="76.8" y="642.6"/>
      <point x="76.8" y="596" type="curve"/>
      <point x="45" y="596" type="line"/>
      <point x="45" y="661"/>
      <point x="92.6" y="706"/>
      <point x="161.6" y="706" type="curve" smooth="yes"/>
      <point x="233.6" y="706"/>
      <point x="275.2" y="653"/>
      <point x="275.2" y="596.4" type="curve" smooth="yes"/>
      <point x="275.2" y="535"/>
      <point x="214.4" y="491"/>
    </contour>
    <contour>
      <point x="158.6" y="274" type="curve" smooth="yes"/>
      <point x="77.6" y="274"/>
      <point x="27" y="326"/>
      <point x="27" y="391" type="curve"/>
      <point x="60.6" y="391" type="line"/>
      <point x="60.6" y="341.4"/>
      <point x="98.6" y="305.2"/>
      <point x="158.6" y="305.2" type="curve" smooth="yes"/>
      <point x="216.2" y="305.2"/>
      <point x="253.6" y="340.2"/>
      <point x="253.6" y="392.2" type="curve" smooth="yes"/>
      <point x="253.6" y="453.4"/>
      <point x="194.6" y="483.4"/>
      <point x="140.6" y="483.4" type="curve"/>
      <point x="140.6" y="505.2" type="line"/>
      <point x="214.4" y="505.2"/>
      <point x="287.2" y="469.2"/>
      <point x="287.2" y="388.6" type="curve" smooth="yes"/>
      <point x="287.2" y="320"/>
      <point x="233.6" y="274"/>
    </contour>
  </outline>
</glyph>
<glyph name="periodcentered" format="1">
  <advance width="276"/>
  <unicode hex="00B7"/>
  <outline>
    <contour>
      <point x="101" y="232.4" type="curve" smooth="yes"/>
      <point x="101" y="253.2"/>
      <point x="118" y="269.8"/>
      <point x="138.4" y="269.8" type="curve" smooth="yes"/>
      <point x="158.8" y="269.8"/>
      <point x="175.8" y="253.2"/>
      <point x="175.8" y="232.4" type="curve" smooth="yes"/>
      <point x="175.8" y="211.6"/>
      <point x="158.8" y="195"/>
      <point x="138.4" y="195" type="curve" smooth="yes"/>
      <point x="118" y="195"/>
      <point x="101" y="211.6"/>
    </contour>
  </outline>
</glyph>
<glyph name="cedilla" format="1">
  <advance width="350"/>
  <unicode hex="00B8"/>
  <outline>
    <contour>
      <point x="188" y="36" type="line"/>
      <point x="229.4" y="36" type="line"/>
      <point x="168.6" y="-61.6" type="line"/>
      <point x="180.8" y="-55.2"/>
      <point x="187" y="-52"/>
      <point x="202" y="-52" type="curve" smooth="yes"/>
      <point x="235" y="-52"/>
      <point x="275" y="-77"/>
      <point x="275" y="-126" type="curve" smooth="yes"/>
      <point x="275" y="-187"/>
      <point x="223" y="-220"/>
      <point x="168" y="-220" type="curve" smooth="yes"/>
      <point x="131" y="-220"/>
      <point x="107" y="-210"/>
      <point x="79" y="-182" type="curve"/>
      <point x="101.6" y="-155.6" type="line"/>
      <point x="124.2" y="-174.8"/>
      <point x="139.2" y="-183.6"/>
      <point x="168" y="-183.6" type="curve" smooth="yes"/>
      <point x="207.2" y="-183.6"/>
      <point x="236.8" y="-162.8"/>
      <point x="236.8" y="-126" type="curve" smooth="yes"/>
      <point x="236.8" y="-94"/>
      <point x="213.6" y="-78.8"/>
      <point x="181.6" y="-78.8" type="curve" smooth="yes"/>
      <point x="163.6" y="-78.8"/>
      <point x="136.8" y="-85.2"/>
      <point x="115" y="-100" type="curve"/>
    </contour>
  </outline>
</glyph>
<glyph name="uni00B9" format="1">
  <advance width="470"/>
  <unicode hex="00B9"/>
  <outline>
    <contour>
      <point x="148.4" y="633" type="line"/>
      <point x="148.4" y="667.6" type="line"/>
      <point x="278" y="698.8" type="line"/>
      <point x="278" y="274" type="line"/>
      <point x="245" y="274" type="line"/>
      <point x="245" y="659" type="line"/>
    </contour>
  </outline>
</glyph>
<glyph name="ordmasculine" format="1">
  <advance width="278"/>
  <unicode hex="00BA"/>
  <outline>
    <contour>
      <point x="20" y="580" type="curve" smooth="yes"/>
      <point x="20" y="650"/>
      <point x="71" y="700"/>
      <point x="139" y="700" type="curve" smooth="yes"/>
      <point x="207" y="700"/>
      <point x="258" y="650"/>
      <point x="258" y="580" type="curve" smooth="yes"/>
      <point x="258" y="510"/>
      <point x="207" y="460"/>
      <point x="139" y="460" type="curve" smooth="yes"/>
      <point x="71" y="460"/>
      <point x="20" y="510"/>
    </contour>
    <contour>
      <point x="48" y="580" type="curve" smooth="yes"/>
      <point x="48" y="525.2"/>
      <point x="88" y="486.8"/>
      <point x="139" y="486.8" type="curve" smooth="yes"/>
      <point x="190" y="486.8"/>
      <point x="230" y="525.2"/>
      <point x="230" y="580" type="curve" smooth="yes"/>
      <point x="230" y="634.8"/>
      <point x="190" y="673.2"/>
      <point x="139" y="673.2" type="curve" smooth="yes"/>
      <point x="88" y="673.2"/>
      <point x="48" y="634.8"/>
    </contour>
  </outline>
</glyph>
<glyph name="guillemotright" format="2">
  <advance width="500"/>
  <unicode hex="00BB"/>
  <outline>
    <contour>
      <point x="242" y="252.6" type="line"/>
      <point x="70" y="460.2" type="line"/>
      <point x="102.8" y="490" type="line"/>
      <point x="300" y="255" type="line"/>
      <point x="102.8" y="20" type="line"/>
      <point x="70" y="49.8" type="line"/>
    </contour>
    <contour>
      <point x="402" y="252.6" type="line"/>
      <point x="230" y="460.2" type="line"/>
      <point x="262.8" y="490" type="line"/>
      <point x="460" y="255" type="line"/>
      <point x="262.8" y="20" type="line"/>
      <point x="230" y="49.8" type="line"/>
    </contour>
  </outline>
</glyph>
<glyph name="onequarter" format="1">
  <advance width="754"/>
  <unicode hex="00BC"/>
  <outline>
    <contour>
      <point x="639.2" y="700" type="line"/>
      <point x="683" y="700" type="line"/>
      <point x="141.8" y="0" type="line"/>
      <point x="98" y="0" type="line"/>
    </contour>
    <contour>
      <point x="26.4" y="633" type="line"/>
      <point x="26.4" y="667.6" type="line"/>
      <point x="156" y="698.8" type="line"/>
      <point x="156" y="274" type="line"/>
      <point x="123" y="274" type="line"/>
      <point x="123" y="659" type="line"/>
    </contour>
    <contour>
      <point x="399.2" y="84" type="line"/>
      <point x="426.8" y="113.4" type="line"/>
      <point x="624" y="113.4" type="line" smooth="yes"/>
      <point x="630.8" y="113.4" type="line" smooth="yes"/>
      <point x="709.6" y="113.4" type="line"/>
      <point x="709.6" y="84" type="line"/>
    </contour>
    <contour>
      <point x="434.4" y="84" type="line"/>
      <point x="399.2" y="84" type="line"/>
      <point x="631" y="420" type="line"/>
      <point x="643.6" y="420" type="line"/>
      <point x="643.6" y="0" type="line"/>
      <point x="610.6" y="0" type="line"/>
      <point x="610.6" y="97.6" type="line" smooth="yes"/>
      <point x="610.6" y="102.4" type="line" smooth="yes"/>
      <point x="610.6" y="344.2" type="line"/>
    </contour>
  </outline>
</glyph>
<glyph name="onehalf" format="1">
  <advance width="819"/>
  <unicode hex="00BD"/>
  <outline>
    <contour>
      <point x="639.2" y="700" type="line"/>
      <point x="683" y="700" type="line"/>
      <point x="141.8" y="0" type="line"/>
      <point x="98" y="0" type="line"/>
    </contour>
    <contour>
      <point x="26.4" y="633" type="line"/>
      <point x="26.4" y="667.6" type="line"/>
      <point x="156" y="698.8" type="line"/>
      <point x="156" y="274" type="line"/>
      <point x="123" y="274" type="line"/>
      <point x="123" y="659" type="line"/>
    </contour>
    <contour>
      <point x="494.2" y="2" type="line"/>
      <point x="689.8" y="209.2" type="line" smooth="yes"/>
      <point x="718.2" y="239"/>
      <point x="739" y="268.4"/>
      <point x="739" y="308.8" type="curve" smooth="yes"/>
      <point x="739" y="349.8"/>
      <point x="712.4" y="397.8"/>
      <point x="650.6" y="397.8" type="curve" smooth="yes"/>
      <point x="589.4" y="397.8"/>
      <point x="548.8" y="350.4"/>
      <point x="548.8" y="278" type="curve"/>
      <point x="515.8" y="278" type="line"/>
      <point x="515.8" y="367"/>
      <point x="568.4" y="429"/>
      <point x="650.6" y="429" type="curve" smooth="yes"/>
      <point x="737.8" y="429"/>
      <point x="773" y="360"/>
      <point x="773" y="306.4" type="curve" smooth="yes"/>
      <point x="773" y="261"/>
      <point x="747.6" y="224"/>
      <point x="715.8" y="191.2" type="curve" smooth="yes"/>
      <point x="563.2" y="33.2" type="line"/>
      <point x="780.6" y="33.2" type="line"/>
      <point x="780.6" y="2" type="line"/>
    </contour>
  </outline>
</glyph>
<glyph name="threequarters" format="2">
  <advance width="820"/>
  <unicode hex="00BE"/>
  <outline>
    <contour>
      <point x="706.2" y="700" type="line"/>
      <point x="750" y="700" type="line"/>
      <point x="208.8" y="0" type="line"/>
      <point x="165" y="0" type="line"/>
    </contour>
    <contour>
      <point x="145.6" y="491" type="curve"/>
      <point x="145.6" y="512.8" type="line"/>
      <point x="199.6" y="512.8"/>
      <point x="246.6" y="547"/>
      <point x="246.6" y="595.8" type="curve" smooth="yes"/>
      <point x="246.6" y="639.8"/>
      <point x="218.6" y="676"/>
      <point x="166.6" y="676" type="curve" smooth="yes"/>
      <point x="117.2" y="676"/>
      <point x="81.8" y="642.6"/>
      <point x="81.8" y="596" type="curve"/>
      <point x="50" y="596" type="line"/>
      <point x="50" y="661"/>
      <point x="97.6" y="706"/>
      <point x="166.6" y="706" type="curve" smooth="yes"/>
      <point x="238.6" y="706"/>
      <point x="280.2" y="653"/>
      <point x="280.2" y="596.4" type="curve" smooth="yes"/>
      <point x="280.2" y="535"/>
      <point x="219.4" y="491"/>
    </contour>
    <contour>
      <point x="163.6" y="274" type="curve" smooth="yes"/>
      <point x="82.6" y="274"/>
      <point x="32" y="326"/>
      <point x="32" y="391" type="curve"/>
      <point x="65.6" y="391" type="line"/>
      <point x="65.6" y="341.4"/>
      <point x="103.6" y="305.2"/>
      <point x="163.6" y="305.2" type="curve" smooth="yes"/>
      <point x="221.2" y="305.2"/>
      <point x="258.6" y="340.2"/>
      <point x="258.6" y="392.2" type="curve" smooth="yes"/>
      <point x="258.6" y="453.4"/>
      <point x="199.6" y="483.4"/>
      <point x="145.6" y="483.4" type="curve"/>
      <point x="145.6" y="505.2" type="line"/>
      <point x="219.4" y="505.2"/>
      <point x="292.2" y="469.2"/>
      <point x="292.2" y="388.6" type="curve" smooth="yes"/>
      <point x="292.2" y="320"/>
      <point x="238.6" y="274"/>
    </contour>
    <contour>
      <point x="466.2" y="84" type="line"/>
      <point x="493.8" y="113.4" type="line"/>
      <point x="691" y="113.4" type="line" smooth="yes"/>
      <point x="697.8" y="113.4" type="line" smooth="yes"/>
      <point x="776.6" y="113.4" type="line"/>
      <point x="776.6" y="84" type="line"/>
    </contour>
    <contour>
      <point x="501.4" y="84" type="line"/>
      <point x="466.2" y="84" type="line"/>
      <point x="698" y="420" type="line"/>
      <point x="710.6" y="420" type="line"/>
      <point x="710.6" y="0" type="line"/>
      <point x="677.6" y="0" type="line"/>
      <point x="677.6" y="97.6" type="line" smooth="yes"/>
      <point x="677.6" y="102.4" type="line" smooth="yes"/>
      <point x="677.6" y="344.2" type="line"/>
    </contour>
  </outline>
</glyph>
<glyph name="Agrave" format="1">
  <advance width="636"/>
  <unicode hex="00C0"/>
  <outline>
    <contour>
      <point x="139" y="234.8" type="line"/>
      <point x="157" y="286.8" type="line"/>
      <point x="481" y="286.8" type="line"/>
      <point x="499" y="234.8" type="line"/>
    </contour>
    <contour>
      <point x="318" y="600.4" type="line"/>
      <point x="181.6" y="269.2" type="line"/>
      <point x="176.4" y="256.8" type="line"/>
      <point x="70.8" y="0" type="line"/>
      <point x="9" y="0" type="line"/>
      <point x="318" y="727" type="line"/>
      <point x="627" y="0" type="line"/>
      <point x="565.2" y="0" type="line"/>
      <point x="461.2" y="253.2" type="line"/>
      <point x="456" y="266.4" type="line"/>
    </contour>
    <contour>
      <point x="185.6" y="939.8" type="line"/>
      <point x="233.8" y="967" type="line"/>
      <point x="391.8" y="807" type="line"/>
      <point x="363.2" y="787" type="line"/>
    </contour>
  </outline>
</glyph>
<glyph name="Acircumflex" format="1">
  <advance width="636"/>
  <unicode hex="00C2"/>
  <outline>
    <contour>
      <point x="139" y="234.8" type="line"/>
      <point x="157" y="286.8" type="line"/>
      <point x="481" y="286.8" type="line"/>
      <point x="499" y="234.8" type="line"/>
    </contour>
    <contour>
      <point x="318" y="600.4" type="line"/>
      <point x="181.6" y="269.2" type="line"/>
      <point x="176.4" y="256.8" type="line"/>
      <point x="70.8" y="0" type="line"/>
      <point x="9" y="0" type="line"/>
      <point x="318" y="727" type="line"/>
      <point x="627" y="0" type="line"/>
      <point x="565.2" y="0" type="line"/>
      <point x="461.2" y="253.2" type="line"/>
      <point x="456" y="266.4" type="line"/>
    </contour>
    <contour>
      <point x="318" y="874" type="line"/>
      <point x="190.8" y="763" type="line"/>
      <point x="158" y="789.8" type="line"/>
      <point x="318" y="929.8" type="line"/>
      <point x="478" y="789.8" type="line"/>
      <point x="445.2" y="763" type="line"/>
    </contour>
  </outline>
</glyph>
<glyph name="Atilde" format="1">
  <advance width="636"/>
  <unicode hex="00C3"/>
  <outline>
    <contour>
      <point x="139" y="234.8" type="line"/>
      <point x="157" y="286.8" type="line"/>
      <point x="481" y="286.8" type="line"/>
      <point x="499" y="234.8" type="line"/>
    </contour>
    <contour>
      <point x="318" y="600.4" type="line"/>
      <point x="181.6" y="269.2" type="line"/>
      <point x="176.4" y="256.8" type="line"/>
      <point x="70.8" y="0" type="line"/>
      <point x="9" y="0" type="line"/>
      <point x="318" y="727" type="line"/>
      <point x="627" y="0" type="line"/>
      <point x="565.2" y="0" type="line"/>
      <point x="461.2" y="253.2" type="line"/>
      <point x="456" y="266.4" type="line"/>
    </contour>
    <contour>
      <point x="168.6" y="805.6" type="line"/>
      <point x="174.6" y="846.6"/>
      <point x="210.8" y="878"/>
      <point x="255.8" y="878" type="curve" smooth="yes"/>
      <point x="316.8" y="878"/>
      <point x="325.8" y="831"/>
      <point x="379.8" y="831" type="curve" smooth="yes"/>
      <point x="402.8" y="831"/>
      <point x="417.8" y="847"/>
      <point x="435.8" y="879" type="curve"/>
      <point x="467.4" y="852" type="line"/>
      <point x="451.4" y="815"/>
      <point x="419.4" y="787"/>
      <point x="377.4" y="787" type="curve" smooth="yes"/>
      <point x="322.4" y="787"/>
      <point x="301" y="834"/>
      <point x="256" y="834" type="curve" smooth="yes"/>
      <point x="215" y="834"/>
      <point x="204.4" y="802"/>
      <point x="204.4" y="783" type="curve"/>
    </contour>
  </outline>
</glyph>
<glyph name="Adieresis" format="2">
  <advance width="636"/>
  <unicode hex="00C4"/>
  <outline>
    <contour>
      <point x="139" y="234.8" type="line"/>
      <point x="157" y="286.8" type="line"/>
      <point x="481" y="286.8" type="line"/>
      <point x="499" y="234.8" type="line"/>
    </contour>
    <contour>
      <point x="318" y="600.4" type="line"/>
      <point x="181.6" y="269.2" type="line"/>
      <point x="176.4" y="256.8" type="line"/>
      <point x="70.8" y="0" type="line"/>
      <point x="9" y="0" type="line"/>
      <point x="318" y="727" type="line"/>
      <point x="627" y="0" type="line"/>
      <point x="565.2" y="0" type="line"/>
      <point x="461.2" y="253.2" type="line"/>
      <point x="456" y="266.4" type="line"/>
    </contour>
    <contour>
      <point x="380.6" y="832.4" type="curve" smooth="yes"/>
      <point x="380.6" y="853.2"/>
      <point x="397.6" y="869.8"/>
      <point x="418" y="869.8" type="curve" smooth="yes"/>
      <point x="438.4" y="869.8"/>
      <point x="455.4" y="853.2"/>
      <point x="455.4" y="832.4" type="curve" smooth="yes"/>
      <point x="455.4" y="811.6"/>
      <point x="438.4" y="795"/>
      <point x="418" y="795" type="curve" smooth="yes"/>
      <point x="397.6" y="795"/>
      <point x="380.6" y="811.6"/>
    </contour>
    <contour>
      <point x="180.6" y="832.4" type="curve" smooth="yes"/>
      <point x="180.6" y="853.2"/>
      <point x="197.6" y="869.8"/>
      <point x="218" y="869.8" type="curve" smooth="yes"/>
      <point x="238.4" y="869.8"/>
      <point x="255.4" y="853.2"/>
      <point x="255.4" y="832.4" type="curve" smooth="yes"/>
      <point x="255.4" y="811.6"/>
      <point x="238.4" y="795"/>
      <point x="218" y="795" type="curve" smooth="yes"/>
      <point x="197.6" y="795"/>
      <point x="180.6" y="811.6"/>
    </contour>
  </outline>
</glyph>
<glyph name="Aring" format="1">
  <advance width="636"/>
  <unicode hex="00C5"/>
  <outline>
    <contour>
      <point x="139" y="234.8" type="line"/>
      <point x="157" y="286.8" type="line"/>
      <point x="481" y="286.8" type="line"/>
      <point x="499" y="234.8" type="line"/>
    </contour>
    <contour>
      <point x="318" y="600.4" type="line"/>
      <point x="181.6" y="269.2" type="line"/>
      <point x="176.4" y="256.8" type="line"/>
      <point x="70.8" y="0" type="line"/>
      <point x="9" y="0" type="line"/>
      <point x="318" y="727" type="line"/>
      <point x="627" y="0" type="line"/>
      <point x="565.2" y="0" type="line"/>
      <point x="461.2" y="253.2" type="line"/>
      <point x="456" y="266.4" type="line"/>
    </contour>
    <contour>
      <point x="216" y="802" type="curve" smooth="yes"/>
      <point x="216" y="862"/>
      <point x="266" y="902"/>
      <point x="318" y="902" type="curve" smooth="yes"/>
      <point x="370" y="902"/>
      <point x="420" y="862"/>
      <point x="420" y="802" type="curve" smooth="yes"/>
      <point x="420" y="742"/>
      <point x="370" y="702"/>
      <point x="318" y="702" type="curve" smooth="yes"/>
      <point x="266" y="702"/>
      <point x="216" y="742"/>
    </contour>
    <contour>
      <point x="250.6" y="802" type="curve" smooth="yes"/>
      <point x="250.6" y="761"/>
      <point x="283.8" y="734.2"/>
      <point x="318" y="734.2" type="curve" smooth="yes"/>
      <point x="352.2" y="734.2"/>
      <point x="385.4" y="761"/>
      <point x="385.4" y="802" type="curve" smooth="yes"/>
      <point x="385.4" y="843"/>
      <point x="352.2" y="869.8"/>
      <point x="318" y="869.8" type="curve" smooth="yes"/>
      <point x="283.8" y="869.8"/>
      <point x="250.6" y="843"/>
    </contour>
  </outline>
</glyph>
<glyph name="AE" format="1">
  <advance width="934"/>
  <unicode hex="00C6"/>
  <outline>
    <contour>
      <point x="213" y="238" type="line"/>
      <point x="213" y="290" type="line"/>
      <point x="509" y="290" type="line"/>
      <point x="509" y="238" type="line"/>
    </contour>
    <contour>
      <point x="455" y="700" type="line"/>
      <point x="501.6" y="676" type="line"/>
      <point x="67.2" y="0" type="line"/>
      <point x="5" y="0" type="line"/>
    </contour>
    <contour>
      <point x="521" y="0" type="line"/>
      <point x="521" y="52" type="line"/>
      <point x="860.4" y="52" type="line"/>
      <point x="860.4" y="0" type="line"/>
    </contour>
    <contour>
      <point x="527" y="648" type="line"/>
      <point x="455" y="700" type="line"/>
      <point x="860.4" y="700" type="line"/>
      <point x="860.4" y="648" type="line"/>
    </contour>
    <contour>
      <point x="521" y="357.6" type="line"/>
      <point x="521" y="409.6" type="line"/>
      <point x="840.4" y="409.6" type="line"/>
      <point x="840.4" y="357.6" type="line"/>
    </contour>
    <contour>
      <point x="490" y="700" type="line"/>
      <point x="545.4" y="700" type="line"/>
      <point x="545.4" y="0" type="line"/>
      <point x="490" y="0" type="line"/>
    </contour>
  </outline>
</glyph>
<glyph name="Ccedilla" format="2">
  <advance width="685"/>
  <unicode hex="00C7"/>
  <outline>
    <contour>
      <point x="102.8" y="350" type="curve" smooth="yes"/>
      <point x="102.8" y="172.2"/>
      <point x="228.4" y="46.6"/>
      <point x="386" y="46.6" type="curve" smooth="yes"/>
      <point x="485" y="46.6"/>
      <point x="558.4" y="82.6"/>
      <point x="611" y="142.6" type="curve"/>
      <point x="611" y="69" type="line"/>
      <point x="552" y="17"/>
      <point x="488" y="-9.2"/>
      <point x="386" y="-9.2" type="curve" smooth="yes"/>
      <point x="192" y="-9.2"/>
      <point x="44" y="141"/>
      <point x="44" y="350" type="curve" smooth="yes"/>
      <point x="44" y="559"/>
      <point x="192" y="709.2"/>
      <point x="386" y="709.2" type="curve" smooth="yes"/>
      <point x="488" y="709.2"/>
      <point x="552" y="683"/>
      <point x="611" y="631" type="curve"/>
      <point x="611" y="557.8" type="line"/>
      <point x="559.2" y="617.4"/>
      <point x="483" y="653.4"/>
      <point x="386" y="653.4" type="curve" smooth="yes"/>
      <point x="228.8" y="653.4"/>
      <point x="102.8" y="529"/>
    </contour>
    <contour>
      <point x="377.6" y="35" type="line"/>
      <point x="418.4" y="35" type="line"/>
      <point x="358.2" y="-62.6" type="line"/>
      <point x="370.4" y="-56.2"/>
      <point x="376.6" y="-53"/>
      <point x="391.6" y="-53" type="curve" smooth="yes"/>
      <point x="424.6" y="-53"/>
      <point x="464" y="-78"/>
      <point x="464" y="-127" type="curve" smooth="yes"/>
      <point x="464" y="-188"/>
      <point x="412.6" y="-221"/>
      <point x="357.6" y="-221" type="curve" smooth="yes"/>
      <point x="320.6" y="-221"/>
      <point x="296" y="-211"/>
      <point x="268" y="-183" type="curve"/>
      <point x="291.2" y="-156.6" type="line"/>
      <point x="313.8" y="-175.8"/>
      <point x="328.8" y="-184.6"/>
      <point x="357.6" y="-184.6" type="curve" smooth="yes"/>
      <point x="396.8" y="-184.6"/>
      <point x="426.4" y="-163.8"/>
      <point x="426.4" y="-127" type="curve" smooth="yes"/>
      <point x="426.4" y="-95"/>
      <point x="403.2" y="-79.8"/>
      <point x="371.2" y="-79.8" type="curve" smooth="yes"/>
      <point x="353.2" y="-79.8"/>
      <point x="325.8" y="-86.2"/>
      <point x="304" y="-101" type="curve"/>
    </contour>
  </outline>
</glyph>
<glyph name="Egrave" format="1">
  <advance width="534"/>
  <unicode hex="00C8"/>
  <outline>
    <contour>
      <point x="113" y="0" type="line"/>
      <point x="113" y="52" type="line"/>
      <point x="460" y="52" type="line"/>
      <point x="460" y="0" type="line"/>
    </contour>
    <contour>
      <point x="113" y="648" type="line"/>
      <point x="113" y="700" type="line"/>
      <point x="460" y="700" type="line"/>
      <point x="460" y="648" type="line"/>
    </contour>
    <contour>
      <point x="113" y="357.6" type="line"/>
      <point x="113" y="409.6" type="line"/>
      <point x="440" y="409.6" type="line"/>
      <point x="440" y="357.6" type="line"/>
    </contour>
    <contour>
      <point x="84" y="700" type="line"/>
      <point x="139.4" y="700" type="line"/>
      <point x="139.4" y="0" type="line"/>
      <point x="84" y="0" type="line"/>
    </contour>
    <contour>
      <point x="131.6" y="922" type="line"/>
      <point x="179.8" y="949.2" type="line"/>
      <point x="337.8" y="789.2" type="line"/>
      <point x="309.2" y="769.2" type="line"/>
    </contour>
  </outline>
</glyph>
<glyph name="Eacute" format="2">
  <advance width="534"/>
  <unicode hex="00C9"/>
  <outline>
    <contour>
      <point x="113" y="0" type="line"/>
      <point x="113" y="52" type="line"/>
      <point x="460" y="52" type="line"/>
      <point x="460" y="0" type="line"/>
    </contour>
    <contour>
      <point x="113" y="648" type="line"/>
      <point x="113" y="700" type="line"/>
      <point x="460" y="700" type="line"/>
      <point x="460" y="648" type="line"/>
    </contour>
    <contour>
      <point x="113" y="357.6" type="line"/>
      <point x="113" y="409.6" type="line"/>
      <point x="440" y="409.6" type="line"/>
      <point x="440" y="357.6" type="line"/>
    </contour>
    <contour>
      <point x="84" y="700" type="line"/>
      <point x="139.4" y="700" type="line"/>
      <point x="139.4" y="0" type="line"/>
      <point x="84" y="0" type="line"/>
    </contour>
    <contour>
      <point x="412.4" y="922" type="line"/>
      <point x="234.8" y="769.2" type="line"/>
      <point x="206.2" y="789.2" type="line"/>
      <point x="364.2" y="949.2" type="line"/>
    </contour>
  </outline>
</glyph>
<glyph name="Ecircumflex" format="2">
  <advance width="534"/>
  <unicode hex="00CA"/>
  <outline>
    <contour>
      <point x="113" y="0" type="line"/>
      <point x="113" y="52" type="line"/>
      <point x="460" y="52" type="line"/>
      <point x="460" y="0" type="line"/>
    </contour>
    <contour>
      <point x="113" y="648" type="line"/>
      <point x="113" y="700" type="line"/>
      <point x="460" y="700" type="line"/>
      <point x="460" y="648" type="line"/>
    </contour>
    <contour>
      <point x="113" y="357.6" type="line"/>
      <point x="113" y="409.6" type="line"/>
      <point x="440" y="409.6" type="line"/>
      <point x="440" y="357.6" type="line"/>
    </contour>
    <contour>
      <point x="84" y="700" type="line"/>
      <point x="139.4" y="700" type="line"/>
      <point x="139.4" y="0" type="line"/>
      <point x="84" y="0" type="line"/>
    </contour>
    <contour>
      <point x="278" y="880.2" type="line"/>
      <point x="150.8" y="769.2" type="line"/>
      <point x="118" y="796" type="line"/>
      <point x="278" y="936" type="line"/>
      <point x="438" y="796" type="line"/>
      <point x="405.2" y="769.2" type="line"/>
    </contour>
  </outline>
</glyph>
<glyph name="Edieresis" format="2">
  <advance width="534"/>
  <unicode hex="00CB"/>
  <outline>
    <contour>
      <point x="113" y="0" type="line"/>
      <point x="113" y="52" type="line"/>
      <point x="460" y="52" type="line"/>
      <point x="460" y="0" type="line"/>
    </contour>
    <contour>
      <point x="113" y="648" type="line"/>
      <point x="113" y="700" type="line"/>
      <point x="460" y="700" type="line"/>
      <point x="460" y="648" type="line"/>
    </contour>
    <contour>
      <point x="113" y="357.6" type="line"/>
      <point x="113" y="409.6" type="line"/>
      <point x="440" y="409.6" type="line"/>
      <point x="440" y="357.6" type="line"/>
    </contour>
    <contour>
      <point x="84" y="700" type="line"/>
      <point x="139.4" y="700" type="line"/>
      <point x="139.4" y="0" type="line"/>
      <point x="84" y="0" type="line"/>
    </contour>
    <contour>
      <point x="340.6" y="826.6" type="curve" smooth="yes"/>
      <point x="340.6" y="847.4"/>
      <point x="357.6" y="864"/>
      <point x="378" y="864" type="curve" smooth="yes"/>
      <point x="398.4" y="864"/>
      <point x="415.4" y="847.4"/>
      <point x="415.4" y="826.6" type="curve" smooth="yes"/>
      <point x="415.4" y="805.8"/>
      <point x="398.4" y="789.2"/>
      <point x="378" y="789.2" type="curve" smooth="yes"/>
      <point x="357.6" y="789.2"/>
      <point x="340.6" y="805.8"/>
    </contour>
    <contour>
      <point x="140.6" y="826.6" type="curve" smooth="yes"/>
      <point x="140.6" y="847.4"/>
      <point x="157.6" y="864"/>
      <point x="178" y="864" type="curve" smooth="yes"/>
      <point x="198.4" y="864"/>
      <point x="215.4" y="847.4"/>
      <point x="215.4" y="826.6" type="curve" smooth="yes"/>
      <point x="215.4" y="805.8"/>
      <point x="198.4" y="789.2"/>
      <point x="178" y="789.2" type="curve" smooth="yes"/>
      <point x="157.6" y="789.2"/>
      <point x="140.6" y="805.8"/>
    </contour>
  </outline>
</glyph>
<glyph name="Igrave" format="1">
  <advance width="219"/>
  <unicode hex="00CC"/>
  <outline>
    <contour>
      <point x="82" y="700" type="line"/>
      <point x="137" y="700" type="line"/>
      <point x="137" y="0" type="line"/>
      <point x="82" y="0" type="line"/>
    </contour>
    <contour>
      <point x="-31.2" y="922" type="line"/>
      <point x="17.6" y="949.2" type="line"/>
      <point x="175.6" y="789.2" type="line"/>
      <point x="146.4" y="769.2" type="line"/>
    </contour>
  </outline>
</glyph>
<glyph name="Icircumflex" format="1">
  <advance width="219"/>
  <unicode hex="00CE"/>
  <outline>
    <contour>
      <point x="82" y="700" type="line"/>
      <point x="137" y="700" type="line"/>
      <point x="137" y="0" type="line"/>
      <point x="82" y="0" type="line"/>
    </contour>
    <contour>
      <point x="109.2" y="880.2" type="line"/>
      <point x="-18" y="769.2" type="line"/>
      <point x="-50.8" y="796" type="line"/>
      <point x="109.2" y="936" type="line"/>
      <point x="269.2" y="796" type="line"/>
      <point x="236.4" y="769.2" type="line"/>
    </contour>
  </outline>
</glyph>
<glyph name="Idieresis" format="2">
  <advance width="219"/>
  <unicode hex="00CF"/>
  <outline>
    <contour>
      <point x="82" y="700" type="line"/>
      <point x="137" y="700" type="line"/>
      <point x="137" y="0" type="line"/>
      <point x="82" y="0" type="line"/>
    </contour>
    <contour>
      <point x="160.4" y="814.6" type="curve" smooth="yes"/>
      <point x="160.4" y="835.4"/>
      <point x="176.8" y="852"/>
      <point x="197.2" y="852" type="curve" smooth="yes"/>
      <point x="217.6" y="852"/>
      <point x="235.2" y="835.4"/>
      <point x="235.2" y="814.6" type="curve" smooth="yes"/>
      <point x="235.2" y="793.8"/>
      <point x="217.6" y="777.2"/>
      <point x="197.2" y="777.2" type="curve" smooth="yes"/>
      <point x="176.8" y="777.2"/>
      <point x="160.4" y="793.8"/>
    </contour>
    <contour>
      <point x="-15.6" y="814.6" type="curve" smooth="yes"/>
      <point x="-15.6" y="835.4"/>
      <point x="0.8" y="852"/>
      <point x="21.2" y="852" type="curve" smooth="yes"/>
      <point x="41.6" y="852"/>
      <point x="59.2" y="835.4"/>
      <point x="59.2" y="814.6" type="curve" smooth="yes"/>
      <point x="59.2" y="793.8"/>
      <point x="41.6" y="777.2"/>
      <point x="21.2" y="777.2" type="curve" smooth="yes"/>
      <point x="0.8" y="777.2"/>
      <point x="-15.6" y="793.8"/>
    </contour>
  </outline>
</glyph>
<glyph name="Eth" format="2">
  <advance width="680"/>
  <unicode hex="00D0"/>
  <outline>
    <contour>
      <point x="5" y="324" type="line"/>
      <point x="5" y="373" type="line"/>
      <point x="305" y="373" type="line"/>
      <point x="305" y="324" type="line"/>
    </contour>
    <contour>
      <point x="84" y="700" type="line"/>
      <point x="139.4" y="700" type="line"/>
      <point x="139.4" y="0" type="line"/>
      <point x="84" y="0" type="line"/>
    </contour>
    <contour>
      <point x="274" y="0" type="curve" smooth="yes"/>
      <point x="114.2" y="0" type="line"/>
      <point x="114.2" y="55.4" type="line"/>
      <point x="274" y="55.4" type="line" smooth="yes"/>
      <point x="448" y="55.4"/>
      <point x="562.6" y="171"/>
      <point x="562.6" y="350" type="curve" smooth="yes"/>
      <point x="562.6" y="529"/>
      <point x="448" y="644.6"/>
      <point x="274" y="644.6" type="curve" smooth="yes"/>
      <point x="114.2" y="644.6" type="line"/>
      <point x="114.2" y="700" type="line"/>
      <point x="274" y="700" type="line" smooth="yes"/>
      <point x="478" y="700"/>
      <point x="618" y="559"/>
      <point x="618" y="350" type="curve" smooth="yes"/>
      <point x="618" y="141"/>
      <point x="478" y="0"/>
    </contour>
  </outline>
</glyph>
<glyph name="Ntilde" format="2">
  <advance width="731"/>
  <unicode hex="00D1"/>
  <outline>
    <contour>
      <point x="599.6" y="700" type="line"/>
      <point x="655" y="700" type="line"/>
      <point x="655" y="-27" type="line"/>
      <point x="123.4" y="583.8" type="line"/>
      <point x="123.4" y="0" type="line"/>
      <point x="68" y="0" type="line"/>
      <point x="68" y="727" type="line"/>
      <point x="599.6" y="114.2" type="line"/>
    </contour>
    <contour>
      <point x="210.8" y="777.6" type="line"/>
      <point x="216.8" y="818.6"/>
      <point x="253" y="850"/>
      <point x="298" y="850" type="curve" smooth="yes"/>
      <point x="359" y="850"/>
      <point x="368" y="803"/>
      <point x="422" y="803" type="curve" smooth="yes"/>
      <point x="445" y="803"/>
      <point x="460" y="819"/>
      <point x="478" y="851" type="curve"/>
      <point x="509.2" y="824" type="line"/>
      <point x="493.2" y="787"/>
      <point x="461.2" y="759"/>
      <point x="419.2" y="759" type="curve" smooth="yes"/>
      <point x="364.2" y="759"/>
      <point x="343.2" y="806"/>
      <point x="298.2" y="806" type="curve" smooth="yes"/>
      <point x="257.2" y="806"/>
      <point x="246.2" y="774"/>
      <point x="246.2" y="755" type="curve"/>
    </contour>
  </outline>
</glyph>
<glyph name="Ograve" format="1">
  <advance width="783"/>
  <unicode hex="00D2"/>
  <outline>
    <contour>
      <point x="102.4" y="350" type="curve" smooth="yes"/>
      <point x="102.4" y="174.8"/>
      <point x="223.6" y="46.2"/>
      <point x="391.8" y="46.2" type="curve" smooth="yes"/>
      <point x="560" y="46.2"/>
      <point x="681.2" y="174.8"/>
      <point x="681.2" y="350" type="curve" smooth="yes"/>
      <point x="681.2" y="525.2"/>
      <point x="560" y="653.8"/>
      <point x="391.8" y="653.8" type="curve" smooth="yes"/>
      <point x="223.6" y="653.8"/>
      <point x="102.4" y="525.2"/>
    </contour>
    <contour>
      <point x="44" y="350" type="curve" smooth="yes"/>
      <point x="44" y="556"/>
      <point x="191.8" y="709.2"/>
      <point x="391.8" y="709.2" type="curve" smooth="yes"/>
      <point x="591.8" y="709.2"/>
      <point x="739.6" y="556"/>
      <point x="739.6" y="350" type="curve" smooth="yes"/>
      <point x="739.6" y="144"/>
      <point x="591.8" y="-9.2"/>
      <point x="391.8" y="-9.2" type="curve" smooth="yes"/>
      <point x="191.8" y="-9.2"/>
      <point x="44" y="144"/>
    </contour>
    <contour>
      <point x="265.8" y="922" type="line"/>
      <point x="314" y="949.2" type="line"/>
      <point x="472" y="789.2" type="line"/>
      <point x="442.6" y="769.2" type="line"/>
    </contour>
  </outline>
</glyph>
<glyph name="Ocircumflex" format="1">
  <advance width="783"/>
  <unicode hex="00D4"/>
  <outline>
    <contour>
      <point x="102.4" y="350" type="curve" smooth="yes"/>
      <point x="102.4" y="174.8"/>
      <point x="223.6" y="46.2"/>
      <point x="391.8" y="46.2" type="curve" smooth="yes"/>
      <point x="560" y="46.2"/>
      <point x="681.2" y="174.8"/>
      <point x="681.2" y="350" type="curve" smooth="yes"/>
      <point x="681.2" y="525.2"/>
      <point x="560" y="653.8"/>
      <point x="391.8" y="653.8" type="curve" smooth="yes"/>
      <point x="223.6" y="653.8"/>
      <point x="102.4" y="525.2"/>
    </contour>
    <contour>
      <point x="44" y="350" type="curve" smooth="yes"/>
      <point x="44" y="556"/>
      <point x="191.8" y="709.2"/>
      <point x="391.8" y="709.2" type="curve" smooth="yes"/>
      <point x="591.8" y="709.2"/>
      <point x="739.6" y="556"/>
      <point x="739.6" y="350" type="curve" smooth="yes"/>
      <point x="739.6" y="144"/>
      <point x="591.8" y="-9.2"/>
      <point x="391.8" y="-9.2" type="curve" smooth="yes"/>
      <point x="191.8" y="-9.2"/>
      <point x="44" y="144"/>
    </contour>
    <contour>
      <point x="391.8" y="880.2" type="line"/>
      <point x="264.6" y="769.2" type="line"/>
      <point x="231.8" y="796" type="line"/>
      <point x="391.8" y="936" type="line"/>
      <point x="551.8" y="796" type="line"/>
      <point x="519" y="769.2" type="line"/>
    </contour>
  </outline>
</glyph>
<glyph name="Otilde" format="2">
  <advance width="783"/>
  <unicode hex="00D5"/>
  <outline>
    <contour>
      <point x="102.4" y="350" type="curve" smooth="yes"/>
      <point x="102.4" y="174.8"/>
      <point x="223.6" y="46.2"/>
      <point x="391.8" y="46.2" type="curve" smooth="yes"/>
      <point x="560" y="46.2"/>
      <point x="681.2" y="174.8"/>
      <point x="681.2" y="350" type="curve" smooth="yes"/>
      <point x="681.2" y="525.2"/>
      <point x="560" y="653.8"/>
      <point x="391.8" y="653.8" type="curve" smooth="yes"/>
      <point x="223.6" y="653.8"/>
      <point x="102.4" y="525.2"/>
    </contour>
    <contour>
      <point x="44" y="350" type="curve" smooth="yes"/>
      <point x="44" y="556"/>
      <point x="191.8" y="709.2"/>
      <point x="391.8" y="709.2" type="curve" smooth="yes"/>
      <point x="591.8" y="709.2"/>
      <point x="739.6" y="556"/>
      <point x="739.6" y="350" type="curve" smooth="yes"/>
      <point x="739.6" y="144"/>
      <point x="591.8" y="-9.2"/>
      <point x="391.8" y="-9.2" type="curve" smooth="yes"/>
      <point x="191.8" y="-9.2"/>
      <point x="44" y="144"/>
    </contour>
    <contour>
      <point x="242.8" y="799.8" type="line"/>
      <point x="248.8" y="840.8"/>
      <point x="285" y="872.2"/>
      <point x="330" y="872.2" type="curve" smooth="yes"/>
      <point x="391" y="872.2"/>
      <point x="400" y="825.2"/>
      <point x="454" y="825.2" type="curve" smooth="yes"/>
      <point x="477" y="825.2"/>
      <point x="492" y="841.2"/>
      <point x="510" y="873.2" type="curve"/>
      <point x="540.8" y="846.2" type="line"/>
      <point x="524.8" y="809.2"/>
      <point x="492.8" y="781.2"/>
      <point x="450.8" y="781.2" type="curve" smooth="yes"/>
      <point x="395.8" y="781.2"/>
      <point x="375.2" y="828.2"/>
      <point x="330.2" y="828.2" type="curve" smooth="yes"/>
      <point x="289.2" y="828.2"/>
      <point x="277.8" y="796.2"/>
      <point x="277.8" y="777.2" type="curve"/>
    </contour>
  </outline>
</glyph>
<glyph name="Odieresis" format="1">
  <advance width="783"/>
  <unicode hex="00D6"/>
  <outline>
    <contour>
      <point x="102.4" y="350" type="curve" smooth="yes"/>
      <point x="102.4" y="174.8"/>
      <point x="223.6" y="46.2"/>
      <point x="391.8" y="46.2" type="curve" smooth="yes"/>
      <point x="560" y="46.2"/>
      <point x="681.2" y="174.8"/>
      <point x="681.2" y="350" type="curve" smooth="yes"/>
      <point x="681.2" y="525.2"/>
      <point x="560" y="653.8"/>
      <point x="391.8" y="653.8" type="curve" smooth="yes"/>
      <point x="223.6" y="653.8"/>
      <point x="102.4" y="525.2"/>
    </contour>
    <contour>
      <point x="44" y="350" type="curve" smooth="yes"/>
      <point x="44" y="556"/>
      <point x="191.8" y="709.2"/>
      <point x="391.8" y="709.2" type="curve" smooth="yes"/>
      <point x="591.8" y="709.2"/>
      <point x="739.6" y="556"/>
      <point x="739.6" y="350" type="curve" smooth="yes"/>
      <point x="739.6" y="144"/>
      <point x="591.8" y="-9.2"/>
      <point x="391.8" y="-9.2" type="curve" smooth="yes"/>
      <point x="191.8" y="-9.2"/>
      <point x="44" y="144"/>
    </contour>
    <contour>
      <point x="458.4" y="818.6" type="curve" smooth="yes"/>
      <point x="458.4" y="839.4"/>
      <point x="475.4" y="856"/>
      <point x="495.8" y="856" type="curve" smooth="yes"/>
      <point x="516.2" y="856"/>
      <point x="533.2" y="839.4"/>
      <point x="533.2" y="818.6" type="curve" smooth="yes"/>
      <point x="533.2" y="797.8"/>
      <point x="516.2" y="781.2"/>
      <point x="495.8" y="781.2" type="curve" smooth="yes"/>
      <point x="475.4" y="781.2"/>
      <point x="458.4" y="797.8"/>
    </contour>
    <contour>
      <point x="250.4" y="818.6" type="curve" smooth="yes"/>
      <point x="250.4" y="839.4"/>
      <point x="267.4" y="856"/>
      <point x="287.8" y="856" type="curve" smooth="yes"/>
      <point x="308.2" y="856"/>
      <point x="325.2" y="839.4"/>
      <point x="325.2" y="818.6" type="curve" smooth="yes"/>
      <point x="325.2" y="797.8"/>
      <point x="308.2" y="781.2"/>
      <point x="287.8" y="781.2" type="curve" smooth="yes"/>
      <point x="267.4" y="781.2"/>
      <point x="250.4" y="797.8"/>
    </contour>
  </outline>
</glyph>
<glyph name="multiply" format="2">
  <advance width="588"/>
  <unicode hex="00D7"/>
  <outline>
    <contour>
      <point x="107.8" y="31.6" type="line"/>
      <point x="71.4" y="68" type="line"/>
      <point x="261.4" y="254.6" type="line"/>
      <point x="71" y="441.6" type="line"/>
      <point x="107.4" y="478" type="line"/>
      <point x="294.4" y="287.6" type="line"/>
      <point x="481.4" y="478" type="line"/>
      <point x="517.8" y="441.6" type="line"/>
      <point x="327.4" y="254.6" type="line"/>
      <point x="517.4" y="68" type="line"/>
      <point x="481" y="31.6" type="line"/>
      <point x="294.4" y="221.6" type="line"/>
    </contour>
  </outline>
</glyph>
<glyph name="Uacute" format="1">
  <advance width="606"/>
  <unicode hex="00DA"/>
  <outline>
    <contour>
      <point x="79" y="700" type="line"/>
      <point x="134.4" y="700" type="line"/>
      <point x="134.4" y="226" type="line" smooth="yes"/>
      <point x="134.4" y="114"/>
      <point x="195" y="42.4"/>
      <point x="303" y="42.4" type="curve" smooth="yes"/>
      <point x="411" y="42.4"/>
      <point x="471.6" y="114"/>
      <point x="471.6" y="226" type="curve" smooth="yes"/>
      <point x="471.6" y="700" type="line"/>
      <point x="527" y="700" type="line"/>
      <point x="527" y="226" type="line" smooth="yes"/>
      <point x="527" y="87"/>
      <point x="444" y="-10"/>
      <point x="303" y="-10" type="curve" smooth="yes"/>
      <point x="162" y="-10"/>
      <point x="79" y="87"/>
      <point x="79" y="226" type="curve" smooth="yes"/>
    </contour>
    <contour>
      <point x="435.4" y="922" type="line"/>
      <point x="257.8" y="769.2" type="line"/>
      <point x="229.2" y="789.2" type="line"/>
      <point x="387.2" y="949.2" type="line"/>
    </contour>
  </outline>
</glyph>
<glyph name="Ucircumflex" format="1">
  <advance width="606"/>
  <unicode hex="00DB"/>
  <outline>
    <contour>
      <point x="79" y="700" type="line"/>
      <point x="134.4" y="700" type="line"/>
      <point x="134.4" y="226" type="line" smooth="yes"/>
      <point x="134.4" y="114"/>
      <point x="195" y="42.4"/>
      <point x="303" y="42.4" type="curve" smooth="yes"/>
      <point x="411" y="42.4"/>
      <point x="471.6" y="114"/>
      <point x="471.6" y="226" type="curve" smooth="yes"/>
      <point x="471.6" y="700" type="line"/>
      <point x="527" y="700" type="line"/>
      <point x="527" y="226" type="line" smooth="yes"/>
      <point x="527" y="87"/>
      <point x="444" y="-10"/>
      <point x="303" y="-10" type="curve" smooth="yes"/>
      <point x="162" y="-10"/>
      <point x="79" y="87"/>
      <point x="79" y="226" type="curve" smooth="yes"/>
    </contour>
    <contour>
      <point x="303" y="880.2" type="line"/>
      <point x="175.8" y="769.2" type="line"/>
      <point x="143" y="796" type="line"/>
      <point x="303" y="936" type="line"/>
      <point x="463" y="796" type="line"/>
      <point x="430.2" y="769.2" type="line"/>
    </contour>
  </outline>
</glyph>
<glyph name="Udieresis" format="2">
  <advance width="606"/>
  <unicode hex="00DC"/>
  <outline>
    <contour>
      <point x="79" y="700" type="line"/>
      <point x="134.4" y="700" type="line"/>
      <point x="134.4" y="226" type="line" smooth="yes"/>
      <point x="134.4" y="114"/>
      <point x="195" y="42.4"/>
      <point x="303" y="42.4" type="curve" smooth="yes"/>
      <point x="411" y="42.4"/>
      <point x="471.6" y="114"/>
      <point x="471.6" y="226" type="curve" smooth="yes"/>
      <point x="471.6" y="700" type="line"/>
      <point x="527" y="700" type="line"/>
      <point x="527" y="226" type="line" smooth="yes"/>
      <point x="527" y="87"/>
      <point x="444" y="-10"/>
      <point x="303" y="-10" type="curve" smooth="yes"/>
      <point x="162" y="-10"/>
      <point x="79" y="87"/>
      <point x="79" y="226" type="curve" smooth="yes"/>
    </contour>
    <contour>
      <point x="361.6" y="806.6" type="curve" smooth="yes"/>
      <point x="361.6" y="827.4"/>
      <point x="378.6" y="844"/>
      <point x="399" y="844" type="curve" smooth="yes"/>
      <point x="419.4" y="844"/>
      <point x="436.4" y="827.4"/>
      <point x="436.4" y="806.6" type="curve" smooth="yes"/>
      <point x="436.4" y="785.8"/>
      <point x="419.4" y="769.2"/>
      <point x="399" y="769.2" type="curve" smooth="yes"/>
      <point x="378.6" y="769.2"/>
      <point x="361.6" y="785.8"/>
    </contour>
    <contour>
      <point x="169.6" y="806.6" type="curve" smooth="yes"/>
      <point x="169.6" y="827.4"/>
      <point x="186.6" y="844"/>
      <point x="207" y="844" type="curve" smooth="yes"/>
      <point x="227.4" y="844"/>
      <point x="244.4" y="827.4"/>
      <point x="244.4" y="806.6" type="curve" smooth="yes"/>
      <point x="244.4" y="785.8"/>
      <point x="227.4" y="769.2"/>
      <point x="207" y="769.2" type="curve" smooth="yes"/>
      <point x="186.6" y="769.2"/>
      <point x="169.6" y="785.8"/>
    </contour>
  </outline>
</glyph>
<glyph name="Yacute" format="2">
  <advance width="539"/>
  <unicode hex="00DD"/>
  <outline>
    <contour>
      <point x="409.6" y="922" type="line"/>
      <point x="232.4" y="769.2" type="line"/>
      <point x="204" y="789.2" type="line"/>
      <point x="362" y="949.2" type="line"/>
    </contour>
    <contour>
      <point x="468.2" y="700" type="line"/>
      <point x="530.4" y="700" type="line"/>
      <point x="295.4" y="288" type="line"/>
      <point x="295.4" y="0" type="line"/>
      <point x="240" y="0" type="line"/>
      <point x="240" y="287" type="line"/>
      <point x="9" y="700" type="line"/>
      <point x="71.2" y="700" type="line"/>
      <point x="267.2" y="338" type="line"/>
    </contour>
  </outline>
</glyph>
<glyph name="Thorn" format="1">
  <advance width="538"/>
  <unicode hex="00DE"/>
  <outline>
    <contour>
      <point x="80" y="700" type="line"/>
      <point x="135" y="700" type="line"/>
      <point x="135" y="0" type="line"/>
      <point x="80" y="0" type="line"/>
    </contour>
    <contour>
      <point x="109.8" y="508" type="line"/>
      <point x="109.8" y="560" type="line"/>
      <point x="258" y="560" type="line" smooth="yes"/>
      <point x="393" y="560"/>
      <point x="496" y="479"/>
      <point x="496" y="350" type="curve" smooth="yes"/>
      <point x="496" y="221"/>
      <point x="393" y="140"/>
      <point x="258" y="140" type="curve" smooth="yes"/>
      <point x="109.8" y="140" type="line"/>
      <point x="109.8" y="192" type="line"/>
      <point x="258" y="192" type="line" smooth="yes"/>
      <point x="362" y="192"/>
      <point x="440.6" y="252"/>
      <point x="440.6" y="350" type="curve" smooth="yes"/>
      <point x="440.6" y="452"/>
      <point x="362" y="508"/>
      <point x="258" y="508" type="curve" smooth="yes"/>
    </contour>
  </outline>
</glyph>
<glyph name="germandbls" format="1">
  <advance width="554"/>
  <unicode hex="00DF"/>
  <outline>
    <contour>
      <point x="264" y="39" type="line"/>
      <point x="364" y="39"/>
      <point x="456.4" y="115"/>
      <point x="456.4" y="231" type="curve" smooth="yes"/>
      <point x="456.4" y="343.8"/>
      <point x="354" y="420.2"/>
      <point x="244" y="420.2" type="curve"/>
      <point x="244" y="456" type="line"/>
      <point x="399" y="456"/>
      <point x="509" y="360"/>
      <point x="509" y="225" type="curve" smooth="yes"/>
      <point x="509" y="86"/>
      <point x="399" y="-10"/>
      <point x="264" y="-10" type="curve"/>
    </contour>
    <contour>
      <point x="244" y="433" type="curve"/>
      <point x="244" y="469.2" type="line"/>
      <point x="354" y="469.2"/>
      <point x="416.4" y="520"/>
      <point x="416.4" y="600" type="curve" smooth="yes"/>
      <point x="416.4" y="678"/>
      <point x="375" y="741"/>
      <point x="269" y="741" type="curve" smooth="yes"/>
      <point x="193" y="741"/>
      <point x="132" y="690"/>
      <point x="132" y="606" type="curve" smooth="yes"/>
      <point x="132" y="0" type="line"/>
      <point x="80" y="0" type="line"/>
      <point x="80" y="606" type="line" smooth="yes"/>
      <point x="80" y="715"/>
      <point x="164" y="790"/>
      <point x="269" y="790" type="curve" smooth="yes"/>
      <point x="404" y="790"/>
      <point x="469" y="715"/>
      <point x="469" y="606" type="curve" smooth="yes"/>
      <point x="469" y="495"/>
      <point x="399" y="433"/>
    </contour>
  </outline>
</glyph>
<glyph name="adieresis" format="1">
  <advance width="465"/>
  <unicode hex="00E4"/>
  <outline>
    <contour>
      <point x="86.6" y="135" type="curve" smooth="yes"/>
      <point x="86.6" y="66.4"/>
      <point x="135.6" y="36.6"/>
      <point x="202" y="36.6" type="curve" smooth="yes"/>
      <point x="286" y="36.6"/>
      <point x="349" y="86"/>
      <point x="349" y="172" type="curve"/>
      <point x="360.6" y="142" type="line"/>
      <point x="360.6" y="53"/>
      <point x="287.8" y="-10"/>
      <point x="190" y="-10" type="curve" smooth="yes"/>
      <point x="103" y="-10"/>
      <point x="34" y="37"/>
      <point x="34" y="129" type="curve" smooth="yes"/>
      <point x="34" y="232"/>
      <point x="121" y="284"/>
      <point x="224" y="284" type="curve" smooth="yes"/>
      <point x="308" y="284"/>
      <point x="353.2" y="246.4"/>
      <point x="370" y="229" type="curve"/>
      <point x="370" y="196.8" type="line"/>
      <point x="333.4" y="224.8"/>
      <point x="288.4" y="243.4"/>
      <point x="226.4" y="243.4" type="curve" smooth="yes"/>
      <point x="144.6" y="243.4"/>
      <point x="86.6" y="205.4"/>
    </contour>
    <contour>
      <point x="100.2" y="369.2" type="curve"/>
      <point x="74" y="409" type="line"/>
      <point x="107.6" y="436.4"/>
      <point x="163" y="470"/>
      <point x="242" y="470" type="curve" smooth="yes"/>
      <point x="341" y="470"/>
      <point x="401" y="415"/>
      <point x="401" y="326" type="curve" smooth="yes"/>
      <point x="401" y="0" type="line"/>
      <point x="349" y="0" type="line"/>
      <point x="349" y="326" type="line" smooth="yes"/>
      <point x="349" y="388"/>
      <point x="305.2" y="424"/>
      <point x="242" y="424" type="curve" smooth="yes"/>
      <point x="176" y="424"/>
      <point x="128.2" y="392.8"/>
    </contour>
    <contour>
      <point x="292.6" y="575.4" type="curve" smooth="yes"/>
      <point x="292.6" y="596.2"/>
      <point x="309.6" y="612.8"/>
      <point x="330" y="612.8" type="curve" smooth="yes"/>
      <point x="350.4" y="612.8"/>
      <point x="367.4" y="596.2"/>
      <point x="367.4" y="575.4" type="curve" smooth="yes"/>
      <point x="367.4" y="554.6"/>
      <point x="350.4" y="538"/>
      <point x="330" y="538" type="curve" smooth="yes"/>
      <point x="309.6" y="538"/>
      <point x="292.6" y="554.6"/>
    </contour>
    <contour>
      <point x="108.6" y="575.4" type="curve" smooth="yes"/>
      <point x="108.6" y="596.2"/>
      <point x="125.6" y="612.8"/>
      <point x="146" y="612.8" type="curve" smooth="yes"/>
      <point x="166.4" y="612.8"/>
      <point x="183.4" y="596.2"/>
      <point x="183.4" y="575.4" type="curve" smooth="yes"/>
      <point x="183.4" y="554.6"/>
      <point x="166.4" y="538"/>
      <point x="146" y="538" type="curve" smooth="yes"/>
      <point x="125.6" y="538"/>
      <point x="108.6" y="554.6"/>
    </contour>
  </outline>
</glyph>
<glyph name="ae" format="2">
  <advance width="825"/>
  <unicode hex="00E6"/>
  <outline>
    <contour>
      <point x="86.6" y="133.8" type="curve" smooth="yes"/>
      <point x="86.6" y="76.8"/>
      <point x="124.4" y="36.6"/>
      <point x="202.4" y="36.6" type="curve" smooth="yes"/>
      <point x="285.6" y="36.6"/>
      <point x="349" y="88.8"/>
      <point x="349" y="174.8" type="curve"/>
      <point x="379.8" y="144.4" type="line"/>
      <point x="379.8" y="55.4"/>
      <point x="299" y="-10"/>
      <point x="202.4" y="-10" type="curve" smooth="yes"/>
      <point x="92.6" y="-10"/>
      <point x="34" y="46.2"/>
      <point x="34" y="127.8" type="curve" smooth="yes"/>
      <point x="34" y="229.6"/>
      <point x="116.6" y="284"/>
      <point x="225.6" y="284" type="curve" smooth="yes"/>
      <point x="309.6" y="284"/>
      <point x="356" y="244.4"/>
      <point x="370" y="229" type="curve"/>
      <point x="370" y="196.8" type="line"/>
      <point x="335.8" y="223.2"/>
      <point x="290" y="243.4"/>
      <point x="228" y="243.4" type="curve" smooth="yes"/>
      <point x="138.6" y="243.4"/>
      <point x="86.6" y="201.8"/>
    </contour>
    <contour>
      <point x="100.2" y="369.2" type="curve"/>
      <point x="74" y="409" type="line"/>
      <point x="107.2" y="435.6"/>
      <point x="161" y="470"/>
      <point x="244" y="470" type="curve" smooth="yes"/>
      <point x="341" y="470"/>
      <point x="387.8" y="413"/>
      <point x="387.8" y="330" type="curve" smooth="yes"/>
      <point x="387.8" y="141.6" type="line"/>
      <point x="349" y="141.6" type="line"/>
      <point x="349" y="320" type="line" smooth="yes"/>
      <point x="349" y="376.8"/>
      <point x="308.8" y="424"/>
      <point x="242.8" y="424" type="curve" smooth="yes"/>
      <point x="172.8" y="424"/>
      <point x="125.4" y="390"/>
    </contour>
    <contour>
      <point x="388.4" y="217.2" type="line"/>
      <point x="388.4" y="262" type="line"/>
      <point x="773" y="262" type="line"/>
      <point x="787.4" y="217.2" type="line"/>
    </contour>
    <contour>
      <point x="733.4" y="250" type="line" smooth="yes"/>
      <point x="733.4" y="355.2"/>
      <point x="665.4" y="424"/>
      <point x="575.4" y="424" type="curve" smooth="yes"/>
      <point x="475.4" y="424"/>
      <point x="402.8" y="350.4"/>
      <point x="402.8" y="250" type="curve"/>
      <point x="401.6" y="232" type="line"/>
      <point x="401.6" y="114"/>
      <point x="471" y="39"/>
      <point x="569" y="39" type="curve" smooth="yes"/>
      <point x="656" y="39"/>
      <point x="704" y="79.6"/>
      <point x="738.6" y="134" type="curve"/>
      <point x="780.8" y="107" type="line"/>
      <point x="734.8" y="37"/>
      <point x="682" y="-10"/>
      <point x="563" y="-10" type="curve" smooth="yes"/>
      <point x="442" y="-10"/>
      <point x="355" y="91"/>
      <point x="355" y="230" type="curve" smooth="yes"/>
      <point x="355" y="247"/>
      <point x="362.8" y="263"/>
      <point x="365.8" y="279" type="curve" smooth="yes"/>
      <point x="384.8" y="392"/>
      <point x="461.6" y="470"/>
      <point x="583" y="470" type="curve" smooth="yes"/>
      <point x="681" y="470"/>
      <point x="788.8" y="386.6"/>
      <point x="788.8" y="241.6" type="curve" smooth="yes"/>
      <point x="788.8" y="233.6"/>
      <point x="788.4" y="225.2"/>
      <point x="787.4" y="217.2" type="curve"/>
      <point x="733.4" y="230" type="line"/>
    </contour>
  </outline>
</glyph>
<glyph name="ccedilla" format="1">
  <advance width="482"/>
  <unicode hex="00E7"/>
  <outline>
    <contour>
      <point x="86.6" y="230" type="curve" smooth="yes"/>
      <point x="86.6" y="118.8"/>
      <point x="166" y="39"/>
      <point x="270" y="39" type="curve" smooth="yes"/>
      <point x="344" y="39"/>
      <point x="407" y="77.2"/>
      <point x="428" y="113.8" type="curve"/>
      <point x="428" y="48.6" type="line"/>
      <point x="400" y="15.8"/>
      <point x="337" y="-10"/>
      <point x="270" y="-10" type="curve" smooth="yes"/>
      <point x="136.2" y="-10"/>
      <point x="34" y="91"/>
      <point x="34" y="230" type="curve" smooth="yes"/>
      <point x="34" y="369"/>
      <point x="136.2" y="470"/>
      <point x="270" y="470" type="curve" smooth="yes"/>
      <point x="337" y="470"/>
      <point x="400" y="443.2"/>
      <point x="428" y="411.4" type="curve"/>
      <point x="428" y="346.2" type="line"/>
      <point x="407" y="382.8"/>
      <point x="344" y="421"/>
      <point x="270" y="421" type="curve" smooth="yes"/>
      <point x="166" y="421"/>
      <point x="86.6" y="341.2"/>
    </contour>
    <contour>
      <point x="261.6" y="34.2" type="line"/>
      <point x="302.4" y="34.2" type="line"/>
      <point x="242.2" y="-63.4" type="line"/>
      <point x="254.4" y="-57"/>
      <point x="260.6" y="-53.8"/>
      <point x="275.6" y="-53.8" type="curve" smooth="yes"/>
      <point x="308.6" y="-53.8"/>
      <point x="348" y="-78.8"/>
      <point x="348" y="-127.8" type="curve" smooth="yes"/>
      <point x="348" y="-188.8"/>
      <point x="296.6" y="-221.8"/>
      <point x="241.6" y="-221.8" type="curve" smooth="yes"/>
      <point x="204.6" y="-221.8"/>
      <point x="180" y="-211.8"/>
      <point x="152" y="-183.8" type="curve"/>
      <point x="175.2" y="-157.4" type="line"/>
      <point x="197.8" y="-176.6"/>
      <point x="212.8" y="-185.4"/>
      <point x="241.6" y="-185.4" type="curve" smooth="yes"/>
      <point x="280.8" y="-185.4"/>
      <point x="310.4" y="-164.6"/>
      <point x="310.4" y="-127.8" type="curve" smooth="yes"/>
      <point x="310.4" y="-95.8"/>
      <point x="287.2" y="-80.6"/>
      <point x="255.2" y="-80.6" type="curve" smooth="yes"/>
      <point x="237.2" y="-80.6"/>
      <point x="209.8" y="-87"/>
      <point x="188" y="-101.8" type="curve"/>
    </contour>
  </outline>
</glyph>
<glyph name="egrave" format="1">
  <advance width="509"/>
  <unicode hex="00E8"/>
  <outline>
    <contour>
      <point x="72.4" y="217.2" type="line"/>
      <point x="72.4" y="262" type="line"/>
      <point x="414.2" y="262" type="line"/>
      <point x="413" y="356.4"/>
      <point x="349.4" y="424"/>
      <point x="259.8" y="424" type="curve" smooth="yes"/>
      <point x="171" y="424"/>
      <point x="92.8" y="358"/>
      <point x="92.8" y="248.8" type="curve"/>
      <point x="91.6" y="230.8" type="line"/>
      <point x="91.6" y="114.4"/>
      <point x="160.2" y="39"/>
      <point x="257.8" y="39" type="curve" smooth="yes"/>
      <point x="345.2" y="39"/>
      <point x="390" y="84.4"/>
      <point x="420.6" y="134" type="curve"/>
      <point x="462.8" y="107" type="line"/>
      <point x="423.2" y="45.8"/>
      <point x="373.2" y="-10"/>
      <point x="251.8" y="-10" type="curve" smooth="yes"/>
      <point x="130.8" y="-10"/>
      <point x="39" y="91.8"/>
      <point x="39" y="230.8" type="curve" smooth="yes"/>
      <point x="39" y="251.8"/>
      <point x="40.8" y="271.4"/>
      <point x="45.4" y="290.6" type="curve" smooth="yes"/>
      <point x="67.6" y="396.4"/>
      <point x="149.2" y="470"/>
      <point x="259.8" y="470" type="curve" smooth="yes"/>
      <point x="379.8" y="470"/>
      <point x="470.8" y="379"/>
      <point x="470.8" y="242" type="curve" smooth="yes"/>
      <point x="470.8" y="234"/>
      <point x="470.4" y="225.2"/>
      <point x="469.4" y="217.2" type="curve"/>
    </contour>
    <contour>
      <point x="117.8" y="688.8" type="line"/>
      <point x="166" y="716" type="line"/>
      <point x="324" y="556" type="line"/>
      <point x="294.6" y="536" type="line"/>
    </contour>
  </outline>
</glyph>
<glyph name="edieresis" format="1">
  <advance width="509"/>
  <unicode hex="00EB"/>
  <outline>
    <contour>
      <point x="72.4" y="217.2" type="line"/>
      <point x="72.4" y="262" type="line"/>
      <point x="414.2" y="262" type="line"/>
      <point x="413" y="356.4"/>
      <point x="349.4" y="424"/>
      <point x="259.8" y="424" type="curve" smooth="yes"/>
      <point x="171" y="424"/>
      <point x="92.8" y="358"/>
      <point x="92.8" y="248.8" type="curve"/>
      <point x="91.6" y="230.8" type="line"/>
      <point x="91.6" y="114.4"/>
      <point x="160.2" y="39"/>
      <point x="257.8" y="39" type="curve" smooth="yes"/>
      <point x="345.2" y="39"/>
      <point x="390" y="84.4"/>
      <point x="420.6" y="134" type="curve"/>
      <point x="462.8" y="107" type="line"/>
      <point x="423.2" y="45.8"/>
      <point x="373.2" y="-10"/>
      <point x="251.8" y="-10" type="curve" smooth="yes"/>
      <point x="130.8" y="-10"/>
      <point x="39" y="91.8"/>
      <point x="39" y="230.8" type="curve" smooth="yes"/>
      <point x="39" y="251.8"/>
      <point x="40.8" y="271.4"/>
      <point x="45.4" y="290.6" type="curve" smooth="yes"/>
      <point x="67.6" y="396.4"/>
      <point x="149.2" y="470"/>
      <point x="259.8" y="470" type="curve" smooth="yes"/>
      <point x="379.8" y="470"/>
      <point x="470.8" y="379"/>
      <point x="470.8" y="242" type="curve" smooth="yes"/>
      <point x="470.8" y="234"/>
      <point x="470.4" y="225.2"/>
      <point x="469.4" y="217.2" type="curve"/>
    </contour>
    <contour>
      <point x="322.4" y="567.4" type="curve" smooth="yes"/>
      <point x="322.4" y="588.2"/>
      <point x="339.4" y="604.8"/>
      <point x="359.8" y="604.8" type="curve" smooth="yes"/>
      <point x="380.2" y="604.8"/>
      <point x="397.2" y="588.2"/>
      <point x="397.2" y="567.4" type="curve" smooth="yes"/>
      <point x="397.2" y="546.6"/>
      <point x="380.2" y="530"/>
      <point x="359.8" y="530" type="curve" smooth="yes"/>
      <point x="339.4" y="530"/>
      <point x="322.4" y="546.6"/>
    </contour>
    <contour>
      <point x="122.4" y="567.4" type="curve" smooth="yes"/>
      <point x="122.4" y="588.2"/>
      <point x="139.4" y="604.8"/>
      <point x="159.8" y="604.8" type="curve" smooth="yes"/>
      <point x="180.2" y="604.8"/>
      <point x="197.2" y="588.2"/>
      <point x="197.2" y="567.4" type="curve" smooth="yes"/>
      <point x="197.2" y="546.6"/>
      <point x="180.2" y="530"/>
      <point x="159.8" y="530" type="curve" smooth="yes"/>
      <point x="139.4" y="530"/>
      <point x="122.4" y="546.6"/>
    </contour>
  </outline>
</glyph>
<glyph name="igrave" format="2">
  <advance width="232"/>
  <unicode hex="00EC"/>
  <outline>
    <contour>
      <point x="90" y="460" type="line"/>
      <point x="142" y="460" type="line"/>
      <point x="142" y="0" type="line"/>
      <point x="90" y="0" type="line"/>
    </contour>
    <contour>
      <point x="-42" y="694.8" type="line"/>
      <point x="6.2" y="722" type="line"/>
      <point x="164.2" y="562" type="line"/>
      <point x="134.8" y="542" type="line"/>
    </contour>
  </outline>
</glyph>
<glyph name="iacute" format="1">
  <advance width="232"/>
  <unicode hex="00ED"/>
  <outline>
    <contour>
      <point x="90" y="460" type="line"/>
      <point x="142" y="460" type="line"/>
      <point x="142" y="0" type="line"/>
      <point x="90" y="0" type="line"/>
    </contour>
    <contour>
      <point x="274" y="694.8" type="line"/>
      <point x="97.2" y="542" type="line"/>
      <point x="67.8" y="562" type="line"/>
      <point x="225.8" y="722" type="line"/>
    </contour>
  </outline>
</glyph>
<glyph name="icircumflex" format="2">
  <advance width="232"/>
  <unicode hex="00EE"/>
  <outline>
    <contour>
      <point x="90" y="460" type="line"/>
      <point x="142" y="460" type="line"/>
      <point x="142" y="0" type="line"/>
      <point x="90" y="0" type="line"/>
    </contour>
    <contour>
      <point x="116" y="647" type="line"/>
      <point x="-11.2" y="536" type="line"/>
      <point x="-44" y="562.8" type="line"/>
      <point x="116" y="702.8" type="line"/>
      <point x="276" y="562.8" type="line"/>
      <point x="243.2" y="536" type="line"/>
    </contour>
  </outline>
</glyph>
<glyph name="idieresis" format="1">
  <advance width="232"/>
  <unicode hex="00EF"/>
  <outline>
    <contour>
      <point x="90" y="460" type="line"/>
      <point x="142" y="460" type="line"/>
      <point x="142" y="0" type="line"/>
      <point x="90" y="0" type="line"/>
    </contour>
    <contour>
      <point x="170.6" y="585.4" type="curve" smooth="yes"/>
      <point x="170.6" y="606.2"/>
      <point x="187.6" y="622.8"/>
      <point x="208" y="622.8" type="curve" smooth="yes"/>
      <point x="228.4" y="622.8"/>
      <point x="245.4" y="606.2"/>
      <point x="245.4" y="585.4" type="curve" smooth="yes"/>
      <point x="245.4" y="564.6"/>
      <point x="228.4" y="548"/>
      <point x="208" y="548" type="curve" smooth="yes"/>
      <point x="187.6" y="548"/>
      <point x="170.6" y="564.6"/>
    </contour>
    <contour>
      <point x="-13.4" y="585.4" type="curve" smooth="yes"/>
      <point x="-13.4" y="606.2"/>
      <point x="3.6" y="622.8"/>
      <point x="24" y="622.8" type="curve" smooth="yes"/>
      <point x="44.4" y="622.8"/>
      <point x="61.4" y="606.2"/>
      <point x="61.4" y="585.4" type="curve" smooth="yes"/>
      <point x="61.4" y="564.6"/>
      <point x="44.4" y="548"/>
      <point x="24" y="548" type="curve" smooth="yes"/>
      <point x="3.6" y="548"/>
      <point x="-13.4" y="564.6"/>
    </contour>
  </outline>
</glyph>
<glyph name="eth" format="2">
  <advance width="560"/>
  <unicode hex="00F0"/>
  <outline>
    <contour>
      <point x="457.4" y="226" type="curve" smooth="yes"/>
      <point x="457.4" y="326"/>
      <point x="385.6" y="407.8"/>
      <point x="275.6" y="407.8" type="curve" smooth="yes"/>
      <point x="180" y="407.8"/>
      <point x="102.6" y="330"/>
      <point x="102.6" y="226" type="curve" smooth="yes"/>
      <point x="102.6" y="118"/>
      <point x="176" y="40.2"/>
      <point x="280" y="40.2" type="curve" smooth="yes"/>
      <point x="386" y="40.2"/>
      <point x="457.4" y="120.8"/>
    </contour>
    <contour>
      <point x="230" y="700" type="line"/>
      <point x="461.2" y="376.6" type="line" smooth="yes"/>
      <point x="488.2" y="339.6"/>
      <point x="510" y="283"/>
      <point x="510" y="226" type="curve" smooth="yes"/>
      <point x="510" y="86"/>
      <point x="415" y="-10"/>
      <point x="280" y="-10" type="curve" smooth="yes"/>
      <point x="145" y="-10"/>
      <point x="50" y="86"/>
      <point x="50" y="226" type="curve" smooth="yes"/>
      <point x="50" y="351"/>
      <point x="143" y="449"/>
      <point x="257" y="449" type="curve" smooth="yes"/>
      <point x="314" y="449"/>
      <point x="359.8" y="432.2"/>
      <point x="392.8" y="391.6" type="curve"/>
      <point x="389.2" y="388.6" type="line"/>
      <point x="161" y="700" type="line"/>
    </contour>
    <contour>
      <point x="151" y="542" type="line"/>
      <point x="151" y="585" type="line"/>
      <point x="439" y="585" type="line"/>
      <point x="439" y="542" type="line"/>
    </contour>
  </outline>
</glyph>
<glyph name="ocircumflex" format="1">
  <advance width="550"/>
  <unicode hex="00F4"/>
  <outline>
    <contour>
      <point x="39" y="230" type="curve" smooth="yes"/>
      <point x="39" y="369"/>
      <point x="141.2" y="470"/>
      <point x="275" y="470" type="curve" smooth="yes"/>
      <point x="408.8" y="470"/>
      <point x="511" y="369"/>
      <point x="511" y="230" type="curve" smooth="yes"/>
      <point x="511" y="91"/>
      <point x="408.8" y="-10"/>
      <point x="275" y="-10" type="curve" smooth="yes"/>
      <point x="141.2" y="-10"/>
      <point x="39" y="91"/>
    </contour>
    <contour>
      <point x="91.6" y="230" type="curve" smooth="yes"/>
      <point x="91.6" y="118.8"/>
      <point x="171" y="39"/>
      <point x="275" y="39" type="curve" smooth="yes"/>
      <point x="379" y="39"/>
      <point x="458.4" y="118.8"/>
      <point x="458.4" y="230" type="curve" smooth="yes"/>
      <point x="458.4" y="341.2"/>
      <point x="379" y="421"/>
      <point x="275" y="421" type="curve" smooth="yes"/>
      <point x="171" y="421"/>
      <point x="91.6" y="341.2"/>
    </contour>
    <contour>
      <point x="275" y="661" type="line"/>
      <point x="147.8" y="550" type="line"/>
      <point x="115" y="576.8" type="line"/>
      <point x="275" y="716.8" type="line"/>
      <point x="435" y="576.8" type="line"/>
      <point x="402.2" y="550" type="line"/>
    </contour>
  </outline>
</glyph>
<glyph name="otilde" format="2">
  <advance width="550"/>
  <unicode hex="00F5"/>
  <outline>
    <contour>
      <point x="39" y="230" type="curve" smooth="yes"/>
      <point x="39" y="369"/>
      <point x="141.2" y="470"/>
      <point x="275" y="470" type="curve" smooth="yes"/>
      <point x="408.8" y="470"/>
      <point x="511" y="369"/>
      <point x="511" y="230" type="curve" smooth="yes"/>
      <point x="511" y="91"/>
      <point x="408.8" y="-10"/>
      <point x="275" y="-10" type="curve" smooth="yes"/>
      <point x="141.2" y="-10"/>
      <point x="39" y="91"/>
    </contour>
    <contour>
      <point x="91.6" y="230" type="curve" smooth="yes"/>
      <point x="91.6" y="118.8"/>
      <point x="171" y="39"/>
      <point x="275" y="39" type="curve" smooth="yes"/>
      <point x="379" y="39"/>
      <point x="458.4" y="118.8"/>
      <point x="458.4" y="230" type="curve" smooth="yes"/>
      <point x="458.4" y="341.2"/>
      <point x="379" y="421"/>
      <point x="275" y="421" type="curve" smooth="yes"/>
      <point x="171" y="421"/>
      <point x="91.6" y="341.2"/>
    </contour>
    <contour>
      <point x="125.6" y="560.6" type="line"/>
      <point x="131.6" y="601.6"/>
      <point x="167.8" y="633"/>
      <point x="212.8" y="633" type="curve" smooth="yes"/>
      <point x="273.8" y="633"/>
      <point x="282.8" y="586"/>
      <point x="336.8" y="586" type="curve" smooth="yes"/>
      <point x="359.8" y="586"/>
      <point x="374.8" y="602"/>
      <point x="392.8" y="634" type="curve"/>
      <point x="424.4" y="607" type="line"/>
      <point x="408.4" y="570"/>
      <point x="376.4" y="542"/>
      <point x="334.4" y="542" type="curve" smooth="yes"/>
      <point x="279.4" y="542"/>
      <point x="258" y="589"/>
      <point x="213" y="589" type="curve" smooth="yes"/>
      <point x="172" y="589"/>
      <point x="161.4" y="557"/>
      <point x="161.4" y="538" type="curve"/>
    </contour>
  </outline>
</glyph>
<glyph name="odieresis" format="2">
  <advance width="550"/>
  <unicode hex="00F6"/>
  <outline>
    <contour>
      <point x="39" y="230" type="curve" smooth="yes"/>
      <point x="39" y="369"/>
      <point x="141.2" y="470"/>
      <point x="275" y="470" type="curve" smooth="yes"/>
      <point x="408.8" y="470"/>
      <point x="511" y="369"/>
      <point x="511" y="230" type="curve" smooth="yes"/>
      <point x="511" y="91"/>
      <point x="408.8" y="-10"/>
      <point x="275" y="-10" type="curve" smooth="yes"/>
      <point x="141.2" y="-10"/>
      <point x="39" y="91"/>
    </contour>
    <contour>
      <point x="91.6" y="230" type="curve" smooth="yes"/>
      <point x="91.6" y="118.8"/>
      <point x="171" y="39"/>
      <point x="275" y="39" type="curve" smooth="yes"/>
      <point x="379" y="39"/>
      <point x="458.4" y="118.8"/>
      <point x="458.4" y="230" type="curve" smooth="yes"/>
      <point x="458.4" y="341.2"/>
      <point x="379" y="421"/>
      <point x="275" y="421" type="curve" smooth="yes"/>
      <point x="171" y="421"/>
      <point x="91.6" y="341.2"/>
    </contour>
    <contour>
      <point x="337.6" y="593.4" type="curve" smooth="yes"/>
      <point x="337.6" y="614.2"/>
      <point x="354.6" y="630.8"/>
      <point x="375" y="630.8" type="curve" smooth="yes"/>
      <point x="395.4" y="630.8"/>
      <point x="412.4" y="614.2"/>
      <point x="412.4" y="593.4" type="curve" smooth="yes"/>
      <point x="412.4" y="572.6"/>
      <point x="395.4" y="556"/>
      <point x="375" y="556" type="curve" smooth="yes"/>
      <point x="354.6" y="556"/>
      <point x="337.6" y="572.6"/>
    </contour>
    <contour>
      <point x="137.6" y="593.4" type="curve" smooth="yes"/>
      <point x="137.6" y="614.2"/>
      <point x="154.6" y="630.8"/>
      <point x="175" y="630.8" type="curve" smooth="yes"/>
      <point x="195.4" y="630.8"/>
      <point x="212.4" y="614.2"/>
      <point x="212.4" y="593.4" type="curve" smooth="yes"/>
      <point x="212.4" y="572.6"/>
      <point x="195.4" y="556"/>
      <point x="175" y="556" type="curve" smooth="yes"/>
      <point x="154.6" y="556"/>
      <point x="137.6" y="572.6"/>
    </contour>
  </outline>
</glyph>
<glyph name="divide" format="1">
  <advance width="623"/>
  <unicode hex="00F7"/>
  <outline>
    <contour>
      <point x="272.6" y="450.4" type="curve" smooth="yes"/>
      <point x="272.6" y="471.2"/>
      <point x="289.6" y="487.8"/>
      <point x="310" y="487.8" type="curve" smooth="yes"/>
      <point x="330.4" y="487.8"/>
      <point x="347.4" y="471.2"/>
      <point x="347.4" y="450.4" type="curve" smooth="yes"/>
      <point x="347.4" y="429.6"/>
      <point x="330.4" y="413"/>
      <point x="310" y="413" type="curve" smooth="yes"/>
      <point x="289.6" y="413"/>
      <point x="272.6" y="429.6"/>
    </contour>
    <contour>
      <point x="272.6" y="54.4" type="curve" smooth="yes"/>
      <point x="272.6" y="75.2"/>
      <point x="289.6" y="91.8"/>
      <point x="310" y="91.8" type="curve" smooth="yes"/>
      <point x="330.4" y="91.8"/>
      <point x="347.4" y="75.2"/>
      <point x="347.4" y="54.4" type="curve" smooth="yes"/>
      <point x="347.4" y="33.6"/>
      <point x="330.4" y="17"/>
      <point x="310" y="17" type="curve" smooth="yes"/>
      <point x="289.6" y="17"/>
      <point x="272.6" y="33.6"/>
    </contour>
    <contour>
      <point x="60" y="229" type="line"/>
      <point x="60" y="281" type="line"/>
      <point x="560" y="281" type="line"/>
      <point x="560" y="229" type="line"/>
    </contour>
  </outline>
</glyph>
<glyph name="oslash" format="2">
  <advance width="546"/>
  <unicode hex="00F8"/>
  <outline>
    <contour>
      <point x="39" y="230" type="curve" smooth="yes"/>
      <point x="39" y="369"/>
      <point x="141.2" y="470"/>
      <point x="275" y="470" type="curve" smooth="yes"/>
      <point x="408.8" y="470"/>
      <point x="511" y="369"/>
      <point x="511" y="230" type="curve" smooth="yes"/>
      <point x="511" y="91"/>
      <point x="408.8" y="-10"/>
      <point x="275" y="-10" type="curve" smooth="yes"/>
      <point x="141.2" y="-10"/>
      <point x="39" y="91"/>
    </contour>
    <contour>
      <point x="91.6" y="230" type="curve" smooth="yes"/>
      <point x="91.6" y="118.8"/>
      <point x="171" y="39"/>
      <point x="275" y="39" type="curve" smooth="yes"/>
      <point x="379" y="39"/>
      <point x="458.4" y="118.8"/>
      <point x="458.4" y="230" type="curve" smooth="yes"/>
      <point x="458.4" y="341.2"/>
      <point x="379" y="421"/>
      <point x="275" y="421" type="curve" smooth="yes"/>
      <point x="171" y="421"/>
      <point x="91.6" y="341.2"/>
    </contour>
    <contour>
      <point x="447.2" y="497.2" type="line"/>
      <point x="477.8" y="482.8" type="line"/>
      <point x="87.8" y="-41.2" type="line"/>
      <point x="57.2" y="-26.8" type="line"/>
    </contour>
  </outline>
</glyph>
<glyph name="uacute" format="2">
  <advance width="505"/>
  <unicode hex="00FA"/>
  <outline>
    <contour>
      <point x="374" y="0" type="line"/>
      <point x="374" y="460" type="line"/>
      <point x="426" y="460" type="line"/>
      <point x="426" y="0" type="line"/>
    </contour>
    <contour>
      <point x="131" y="168" type="line" smooth="yes"/>
      <point x="131" y="86"/>
      <point x="164" y="39"/>
      <point x="239" y="39" type="curve" smooth="yes"/>
      <point x="317.4" y="39"/>
      <point x="374" y="102.4"/>
      <point x="374" y="180" type="curve"/>
      <point x="397.6" y="180" type="line"/>
      <point x="397.6" y="71"/>
      <point x="322" y="-10"/>
      <point x="227" y="-10" type="curve" smooth="yes"/>
      <point x="132" y="-10"/>
      <point x="79" y="51"/>
      <point x="79" y="162" type="curve" smooth="yes"/>
      <point x="79" y="460" type="line"/>
      <point x="131" y="460" type="line"/>
    </contour>
    <contour>
      <point x="386.4" y="698.8" type="line"/>
      <point x="209.2" y="546" type="line"/>
      <point x="180.8" y="566" type="line"/>
      <point x="338.8" y="726" type="line"/>
    </contour>
  </outline>
</glyph>
<glyph name="ucircumflex" format="2">
  <advance width="505"/>
  <unicode hex="00FB"/>
  <outline>
    <contour>
      <point x="374" y="0" type="line"/>
      <point x="374" y="460" type="line"/>
      <point x="426" y="460" type="line"/>
      <point x="426" y="0" type="line"/>
    </contour>
    <contour>
      <point x="131" y="168" type="line" smooth="yes"/>
      <point x="131" y="86"/>
      <point x="164" y="39"/>
      <point x="239" y="39" type="curve" smooth="yes"/>
      <point x="317.4" y="39"/>
      <point x="374" y="102.4"/>
      <point x="374" y="180" type="curve"/>
      <point x="397.6" y="180" type="line"/>
      <point x="397.6" y="71"/>
      <point x="322" y="-10"/>
      <point x="227" y="-10" type="curve" smooth="yes"/>
      <point x="132" y="-10"/>
      <point x="79" y="51"/>
      <point x="79" y="162" type="curve" smooth="yes"/>
      <point x="79" y="460" type="line"/>
      <point x="131" y="460" type="line"/>
    </contour>
    <contour>
      <point x="252.4" y="657" type="line"/>
      <point x="124.8" y="546" type="line"/>
      <point x="92.4" y="572.8" type="line"/>
      <point x="252.4" y="712.8" type="line"/>
      <point x="412.4" y="572.8" type="line"/>
      <point x="379.2" y="546" type="line"/>
    </contour>
  </outline>
</glyph>
<glyph name="udieresis" format="2">
  <advance width="505"/>
  <unicode hex="00FC"/>
  <outline>
    <contour>
      <point x="374" y="0" type="line"/>
      <point x="374" y="460" type="line"/>
      <point x="426" y="460" type="line"/>
      <point x="426" y="0" type="line"/>
    </contour>
    <contour>
      <point x="131" y="168" type="line" smooth="yes"/>
      <point x="131" y="86"/>
      <point x="164" y="39"/>
      <point x="239" y="39" type="curve" smooth="yes"/>
      <point x="317.4" y="39"/>
      <point x="374" y="102.4"/>
      <point x="374" y="180" type="curve"/>
      <point x="397.6" y="180" type="line"/>
      <point x="397.6" y="71"/>
      <point x="322" y="-10"/>
      <point x="227" y="-10" type="curve" smooth="yes"/>
      <point x="132" y="-10"/>
      <point x="79" y="51"/>
      <point x="79" y="162" type="curve" smooth="yes"/>
      <point x="79" y="460" type="line"/>
      <point x="131" y="460" type="line"/>
    </contour>
    <contour>
      <point x="307.2" y="587.4" type="curve" smooth="yes"/>
      <point x="307.2" y="608.2"/>
      <point x="324" y="624.8"/>
      <point x="344.4" y="624.8" type="curve" smooth="yes"/>
      <point x="364.8" y="624.8"/>
      <point x="382" y="608.2"/>
      <point x="382" y="587.4" type="curve" smooth="yes"/>
      <point x="382" y="566.6"/>
      <point x="364.8" y="550"/>
      <point x="344.4" y="550" type="curve" smooth="yes"/>
      <point x="324" y="550"/>
      <point x="307.2" y="566.6"/>
    </contour>
    <contour>
      <point x="123.2" y="587.4" type="curve" smooth="yes"/>
      <point x="123.2" y="608.2"/>
      <point x="140" y="624.8"/>
      <point x="160.4" y="624.8" type="curve" smooth="yes"/>
      <point x="180.8" y="624.8"/>
      <point x="198" y="608.2"/>
      <point x="198" y="587.4" type="curve" smooth="yes"/>
      <point x="198" y="566.6"/>
      <point x="180.8" y="550"/>
      <point x="160.4" y="550" type="curve" smooth="yes"/>
      <point x="140" y="550"/>
      <point x="123.2" y="566.6"/>
    </contour>
  </outline>
</glyph>
<glyph name="yacute" format="1">
  <advance width="434"/>
  <unicode hex="00FD"/>
  <outline>
    <contour>
      <point x="430" y="460" type="line"/>
      <point x="130" y="-220" type="line"/>
      <point x="71.6" y="-220" type="line"/>
      <point x="189.6" y="47" type="line"/>
      <point x="4" y="460" type="line"/>
      <point x="65.8" y="460" type="line"/>
      <point x="233" y="68" type="line"/>
      <point x="208.8" y="70.4" type="line"/>
      <point x="371.6" y="460" type="line"/>
    </contour>
    <contour>
      <point x="357.2" y="694.8" type="line"/>
      <point x="180" y="542" type="line"/>
      <point x="151" y="562" type="line"/>
      <point x="309" y="722" type="line"/>
    </contour>
  </outline>
</glyph>
<glyph name="ydieresis" format="2">
  <advance width="434"/>
  <unicode hex="00FF"/>
  <outline>
    <contour>
      <point x="430" y="460" type="line"/>
      <point x="130" y="-220" type="line"/>
      <point x="71.6" y="-220" type="line"/>
      <point x="189.6" y="47" type="line"/>
      <point x="4" y="460" type="line"/>
      <point x="65.8" y="460" type="line"/>
      <point x="233" y="68" type="line"/>
      <point x="208.8" y="70.4" type="line"/>
      <point x="371.6" y="460" type="line"/>
    </contour>
    <contour>
      <point x="271.8" y="575.4" type="curve" smooth="yes"/>
      <point x="271.8" y="596.2"/>
      <point x="288.4" y="612.8"/>
      <point x="308.8" y="612.8" type="curve" smooth="yes"/>
      <point x="329.2" y="612.8"/>
      <point x="346.6" y="596.2"/>
      <point x="346.6" y="575.4" type="curve" smooth="yes"/>
      <point x="346.6" y="554.6"/>
      <point x="329.2" y="538"/>
      <point x="308.8" y="538" type="curve" smooth="yes"/>
      <point x="288.4" y="538"/>
      <point x="271.8" y="554.6"/>
    </contour>
    <contour>
      <point x="87.8" y="575.4" type="curve" smooth="yes"/>
      <point x="87.8" y="596.2"/>
      <point x="104.4" y="612.8"/>
      <point x="124.8" y="612.8" type="curve" smooth="yes"/>
      <point x="145.2" y="612.8"/>
      <point x="162.6" y="596.2"/>
      <point x="162.6" y="575.4" type="curve" smooth="yes"/>
      <point x="162.6" y="554.6"/>
      <point x="145.2" y="538"/>
      <point x="124.8" y="538" type="curve" smooth="yes"/>
      <point x="104.4" y="538"/>
      <point x="87.8" y="554.6"/>
    </contour>
  </outline>
</glyph>
<glyph name="amacron" format="2">
  <advance width="465"/>
  <unicode hex="0101"/>
  <outline>
    <contour>
      <point x="86.6" y="135" type="curve" smooth="yes"/>
      <point x="86.6" y="66.4"/>
      <point x="135.6" y="36.6"/>
      <point x="202" y="36.6" type="curve" smooth="yes"/>
      <point x="286" y="36.6"/>
      <point x="349" y="86"/>
      <point x="349" y="172" type="curve"/>
      <point x="360.6" y="142" type="line"/>
      <point x="360.6" y="53"/>
      <point x="287.8" y="-10"/>
      <point x="190" y="-10" type="curve" smooth="yes"/>
      <point x="103" y="-10"/>
      <point x="34" y="37"/>
      <point x="34" y="129" type="curve" smooth="yes"/>
      <point x="34" y="232"/>
      <point x="121" y="284"/>
      <point x="224" y="284" type="curve" smooth="yes"/>
      <point x="308" y="284"/>
      <point x="353.2" y="246.4"/>
      <point x="370" y="229" type="curve"/>
      <point x="370" y="196.8" type="line"/>
      <point x="333.4" y="224.8"/>
      <point x="288.4" y="243.4"/>
      <point x="226.4" y="243.4" type="curve" smooth="yes"/>
      <point x="144.6" y="243.4"/>
      <point x="86.6" y="205.4"/>
    </contour>
    <contour>
      <point x="100.2" y="369.2" type="curve"/>
      <point x="74" y="409" type="line"/>
      <point x="107.6" y="436.4"/>
      <point x="163" y="470"/>
      <point x="242" y="470" type="curve" smooth="yes"/>
      <point x="341" y="470"/>
      <point x="401" y="415"/>
      <point x="401" y="326" type="curve" smooth="yes"/>
      <point x="401" y="0" type="line"/>
      <point x="349" y="0" type="line"/>
      <point x="349" y="326" type="line" smooth="yes"/>
      <point x="349" y="388"/>
      <point x="305.2" y="424"/>
      <point x="242" y="424" type="curve" smooth="yes"/>
      <point x="176" y="424"/>
      <point x="128.2" y="392.8"/>
    </contour>
    <contour>
      <point x="67" y="550" type="line"/>
      <point x="67" y="599" type="line"/>
      <point x="417" y="599" type="line"/>
      <point x="417" y="550" type="line"/>
    </contour>
  </outline>
</glyph>
<glyph name="Abreve" format="1">
  <advance width="636"/>
  <unicode hex="0102"/>
  <outline>
    <contour>
      <point x="139" y="234.8" type="line"/>
      <point x="157" y="286.8" type="line"/>
      <point x="481" y="286.8" type="line"/>
      <point x="499" y="234.8" type="line"/>
    </contour>
    <contour>
      <point x="318" y="600.4" type="line"/>
      <point x="181.6" y="269.2" type="line"/>
      <point x="176.4" y="256.8" type="line"/>
      <point x="70.8" y="0" type="line"/>
      <point x="9" y="0" type="line"/>
      <point x="318" y="727" type="line"/>
      <point x="627" y="0" type="line"/>
      <point x="565.2" y="0" type="line"/>
      <point x="461.2" y="253.2" type="line"/>
      <point x="456" y="266.4" type="line"/>
    </contour>
    <contour>
      <point x="160" y="931" type="curve"/>
      <point x="206.6" y="931" type="line"/>
      <point x="206.6" y="889"/>
      <point x="239.2" y="834"/>
      <point x="318" y="834" type="curve" smooth="yes"/>
      <point x="396.8" y="834"/>
      <point x="429.4" y="889"/>
      <point x="429.4" y="931" type="curve"/>
      <point x="476" y="931" type="line"/>
      <point x="476" y="862"/>
      <point x="423" y="791"/>
      <point x="318" y="791" type="curve" smooth="yes"/>
      <point x="213" y="791"/>
      <point x="160" y="862"/>
    </contour>
  </outline>
</glyph>
<glyph name="Aogonek" format="2">
  <advance width="636"/>
  <unicode hex="0104"/>
  <outline>
    <contour>
      <point x="139.8" y="234.8" type="line"/>
      <point x="157.8" y="286.8" type="line"/>
      <point x="481" y="286.8" type="line"/>
      <point x="499" y="234.8" type="line"/>
    </contour>
    <contour>
      <point x="318" y="600.4" type="line"/>
      <point x="181.6" y="269.2" type="line"/>
      <point x="176.4" y="256.8" type="line"/>
      <point x="70.8" y="0" type="line"/>
      <point x="9" y="0" type="line"/>
      <point x="318" y="727" type="line"/>
      <point x="627" y="0" type="line"/>
      <point x="565.2" y="0" type="line"/>
      <point x="461.2" y="253.2" type="line"/>
      <point x="456" y="266.4" type="line"/>
    </contour>
    <contour>
      <point x="643.6" y="-147.2" type="curve"/>
      <point x="666.2" y="-180" type="line"/>
      <point x="651.2" y="-200"/>
      <point x="617.2" y="-220"/>
      <point x="574.2" y="-220" type="curve" smooth="yes"/>
      <point x="498.2" y="-220"/>
      <point x="459.2" y="-183"/>
      <point x="459.2" y="-128" type="curve" smooth="yes"/>
      <point x="459.2" y="-65"/>
      <point x="529.6" y="-17"/>
      <point x="599.6" y="19" type="curve"/>
      <point x="627" y="0" type="line"/>
      <point x="568.6" y="-26"/>
      <point x="511.2" y="-71"/>
      <point x="511.2" y="-116" type="curve" smooth="yes"/>
      <point x="511.2" y="-156"/>
      <point x="539.2" y="-174"/>
      <point x="577.2" y="-174" type="curve" smooth="yes"/>
      <point x="608.8" y="-174"/>
      <point x="629.2" y="-162.2"/>
    </contour>
  </outline>
</glyph>
<glyph name="aogonek" format="2">
  <advance width="465"/>
  <unicode hex="0105"/>
  <outline>
    <contour>
      <point x="86.6" y="135" type="curve" smooth="yes"/>
      <point x="86.6" y="66.4"/>
      <point x="141.6" y="36.6"/>
      <point x="202" y="36.6" type="curve" smooth="yes"/>
      <point x="286" y="36.6"/>
      <point x="349" y="86"/>
      <point x="349" y="172" type="curve"/>
      <point x="360.6" y="142" type="line"/>
      <point x="360.6" y="53"/>
      <point x="287.8" y="-10"/>
      <point x="190" y="-10" type="curve" smooth="yes"/>
      <point x="107.8" y="-10"/>
      <point x="34" y="35.2"/>
      <point x="34" y="133.2" type="curve" smooth="yes"/>
      <point x="34" y="230.2"/>
      <point x="115" y="284"/>
      <point x="224" y="284" type="curve" smooth="yes"/>
      <point x="308" y="284"/>
      <point x="353.2" y="246.4"/>
      <point x="370" y="229" type="curve"/>
      <point x="370" y="196.8" type="line"/>
      <point x="333.4" y="224.8"/>
      <point x="288.4" y="243.4"/>
      <point x="226.4" y="243.4" type="curve" smooth="yes"/>
      <point x="144.6" y="243.4"/>
      <point x="86.6" y="205.4"/>
    </contour>
    <contour>
      <point x="100.2" y="369.2" type="curve"/>
      <point x="74" y="409" type="line"/>
      <point x="107.6" y="436.4"/>
      <point x="163" y="470"/>
      <point x="242" y="470" type="curve" smooth="yes"/>
      <point x="341" y="470"/>
      <point x="401" y="415"/>
      <point x="401" y="326" type="curve" smooth="yes"/>
      <point x="401" y="0" type="line"/>
      <point x="349" y="0" type="line"/>
      <point x="349" y="326" type="line" smooth="yes"/>
      <point x="349" y="388"/>
      <point x="305.2" y="424"/>
      <point x="242" y="424" type="curve" smooth="yes"/>
      <point x="176" y="424"/>
      <point x="128.2" y="392.8"/>
    </contour>
    <contour>
      <point x="417.6" y="-147.2" type="curve"/>
      <point x="440.2" y="-180" type="line"/>
      <point x="425.2" y="-200"/>
      <point x="391.2" y="-220"/>
      <point x="348.2" y="-220" type="curve" smooth="yes"/>
      <point x="272.2" y="-220"/>
      <point x="233.2" y="-183"/>
      <point x="233.2" y="-128" type="curve" smooth="yes"/>
      <point x="233.2" y="-65"/>
      <point x="303.6" y="-17"/>
      <point x="373.6" y="19" type="curve"/>
      <point x="401" y="0" type="line"/>
      <point x="342.6" y="-26"/>
      <point x="285.2" y="-71"/>
      <point x="285.2" y="-116" type="curve" smooth="yes"/>
      <point x="285.2" y="-156"/>
      <point x="313.2" y="-174"/>
      <point x="351.2" y="-174" type="curve" smooth="yes"/>
      <point x="382.8" y="-174"/>
      <point x="403.2" y="-162.2"/>
    </contour>
  </outline>
</glyph>
<glyph name="cacute" format="2">
  <advance width="482"/>
  <unicode hex="0107"/>
  <outline>
    <contour>
      <point x="86.6" y="230" type="curve" smooth="yes"/>
      <point x="86.6" y="118.8"/>
      <point x="166" y="39"/>
      <point x="270" y="39" type="curve" smooth="yes"/>
      <point x="344" y="39"/>
      <point x="407" y="77.2"/>
      <point x="428" y="113.8" type="curve"/>
      <point x="428" y="48.6" type="line"/>
      <point x="400" y="15.8"/>
      <point x="337" y="-10"/>
      <point x="270" y="-10" type="curve" smooth="yes"/>
      <point x="136.2" y="-10"/>
      <point x="34" y="91"/>
      <point x="34" y="230" type="curve" smooth="yes"/>
      <point x="34" y="369"/>
      <point x="136.2" y="470"/>
      <point x="270" y="470" type="curve" smooth="yes"/>
      <point x="337" y="470"/>
      <point x="400" y="443.2"/>
      <point x="428" y="411.4" type="curve"/>
      <point x="428" y="346.2" type="line"/>
      <point x="407" y="382.8"/>
      <point x="344" y="421"/>
      <point x="270" y="421" type="curve" smooth="yes"/>
      <point x="166" y="421"/>
      <point x="86.6" y="341.2"/>
    </contour>
    <contour>
      <point x="406" y="686.8" type="line"/>
      <point x="229.2" y="534" type="line"/>
      <point x="199.8" y="554" type="line"/>
      <point x="357.8" y="714" type="line"/>
    </contour>
  </outline>
</glyph>
<glyph name="ccircumflex" format="2">
  <advance width="482"/>
  <unicode hex="0109"/>
  <outline>
    <contour>
      <point x="86.6" y="230" type="curve" smooth="yes"/>
      <point x="86.6" y="118.8"/>
      <point x="166" y="39"/>
      <point x="270" y="39" type="curve" smooth="yes"/>
      <point x="344" y="39"/>
      <point x="407" y="77.2"/>
      <point x="428" y="113.8" type="curve"/>
      <point x="428" y="48.6" type="line"/>
      <point x="400" y="15.8"/>
      <point x="337" y="-10"/>
      <point x="270" y="-10" type="curve" smooth="yes"/>
      <point x="136.2" y="-10"/>
      <point x="34" y="91"/>
      <point x="34" y="230" type="curve" smooth="yes"/>
      <point x="34" y="369"/>
      <point x="136.2" y="470"/>
      <point x="270" y="470" type="curve" smooth="yes"/>
      <point x="337" y="470"/>
      <point x="400" y="443.2"/>
      <point x="428" y="411.4" type="curve"/>
      <point x="428" y="346.2" type="line"/>
      <point x="407" y="382.8"/>
      <point x="344" y="421"/>
      <point x="270" y="421" type="curve" smooth="yes"/>
      <point x="166" y="421"/>
      <point x="86.6" y="341.2"/>
    </contour>
    <contour>
      <point x="270" y="641" type="line"/>
      <point x="142.8" y="530" type="line"/>
      <point x="110" y="556.8" type="line"/>
      <point x="270" y="696.8" type="line"/>
      <point x="430" y="556.8" type="line"/>
      <point x="397.2" y="530" type="line"/>
    </contour>
  </outline>
</glyph>
<glyph name="Cdotaccent" format="2">
  <advance width="685"/>
  <unicode hex="010A"/>
  <outline>
    <contour>
      <point x="102.8" y="350" type="curve" smooth="yes"/>
      <point x="102.8" y="172.2"/>
      <point x="228.4" y="46.6"/>
      <point x="386" y="46.6" type="curve" smooth="yes"/>
      <point x="485" y="46.6"/>
      <point x="558.4" y="82.6"/>
      <point x="611" y="142.6" type="curve"/>
      <point x="611" y="69" type="line"/>
      <point x="552" y="17"/>
      <point x="488" y="-9.2"/>
      <point x="386" y="-9.2" type="curve" smooth="yes"/>
      <point x="192" y="-9.2"/>
      <point x="44" y="141"/>
      <point x="44" y="350" type="curve" smooth="yes"/>
      <point x="44" y="559"/>
      <point x="192" y="709.2"/>
      <point x="386" y="709.2" type="curve" smooth="yes"/>
      <point x="488" y="709.2"/>
      <point x="552" y="683"/>
      <point x="611" y="631" type="curve"/>
      <point x="611" y="557.8" type="line"/>
      <point x="559.2" y="617.4"/>
      <point x="483" y="653.4"/>
      <point x="386" y="653.4" type="curve" smooth="yes"/>
      <point x="228.8" y="653.4"/>
      <point x="102.8" y="529"/>
    </contour>
    <contour>
      <point x="348.6" y="810.6" type="curve" smooth="yes"/>
      <point x="348.6" y="831.4"/>
      <point x="365.6" y="848"/>
      <point x="386" y="848" type="curve" smooth="yes"/>
      <point x="406.4" y="848"/>
      <point x="423.4" y="831.4"/>
      <point x="423.4" y="810.6" type="curve" smooth="yes"/>
      <point x="423.4" y="789.8"/>
      <point x="406.4" y="773.2"/>
      <point x="386" y="773.2" type="curve" smooth="yes"/>
      <point x="365.6" y="773.2"/>
      <point x="348.6" y="789.8"/>
    </contour>
  </outline>
</glyph>
<glyph name="Dcaron" format="1">
  <advance width="662"/>
  <unicode hex="010E"/>
  <outline>
    <contour>
      <point x="84" y="700" type="line"/>
      <point x="139.4" y="700" type="line"/>
      <point x="139.4" y="0" type="line"/>
      <point x="84" y="0" type="line"/>
    </contour>
    <contour>
      <point x="274" y="0" type="curve" smooth="yes"/>
      <point x="114.2" y="0" type="line"/>
      <point x="114.2" y="55.4" type="line"/>
      <point x="274" y="55.4" type="line" smooth="yes"/>
      <point x="448.8" y="55.4"/>
      <point x="562.6" y="170.6"/>
      <point x="562.6" y="350" type="curve" smooth="yes"/>
      <point x="562.6" y="529"/>
      <point x="448.8" y="644.6"/>
      <point x="274" y="644.6" type="curve" smooth="yes"/>
      <point x="114.2" y="644.6" type="line"/>
      <point x="114.2" y="700" type="line"/>
      <point x="274" y="700" type="line" smooth="yes"/>
      <point x="478" y="700"/>
      <point x="618" y="559"/>
      <point x="618" y="350" type="curve" smooth="yes"/>
      <point x="618" y="141"/>
      <point x="478" y="0"/>
    </contour>
    <contour>
      <point x="325.2" y="837" type="line"/>
      <point x="452" y="948.4" type="line"/>
      <point x="485.2" y="921.2" type="line"/>
      <point x="325.2" y="781.2" type="line"/>
      <point x="165.2" y="921.2" type="line"/>
      <point x="198.4" y="948.4" type="line"/>
    </contour>
  </outline>
</glyph>
<glyph name="dcroat" format="1">
  <advance width="558"/>
  <unicode hex="0111"/>
  <outline>
    <contour>
      <point x="295" y="616" type="line"/>
      <point x="295" y="665" type="line"/>
      <point x="595" y="665" type="line"/>
      <point x="595" y="616" type="line"/>
    </contour>
    <contour>
      <point x="432.4" y="780" type="line"/>
      <point x="484.4" y="780" type="line"/>
      <point x="484.4" y="0" type="line"/>
      <point x="432.4" y="0" type="line"/>
    </contour>
    <contour>
      <point x="39" y="230" type="curve" smooth="yes"/>
      <point x="39" y="379"/>
      <point x="138" y="470"/>
      <point x="261" y="470" type="curve" smooth="yes"/>
      <point x="376" y="470"/>
      <point x="456" y="371"/>
      <point x="456" y="230" type="curve" smooth="yes"/>
      <point x="456" y="89"/>
      <point x="376" y="-10"/>
      <point x="261" y="-10" type="curve" smooth="yes"/>
      <point x="138" y="-10"/>
      <point x="39" y="81"/>
    </contour>
    <contour>
      <point x="91.6" y="230" type="curve" smooth="yes"/>
      <point x="91.6" y="110"/>
      <point x="171.2" y="39"/>
      <point x="268.2" y="39" type="curve" smooth="yes"/>
      <point x="356.2" y="39"/>
      <point x="432.4" y="124"/>
      <point x="432.4" y="230" type="curve" smooth="yes"/>
      <point x="432.4" y="336"/>
      <point x="356.2" y="421"/>
      <point x="268.2" y="421" type="curve" smooth="yes"/>
      <point x="171.2" y="421"/>
      <point x="91.6" y="350"/>
    </contour>
  </outline>
</glyph>
<glyph name="Ebreve" format="1">
  <advance width="534"/>
  <unicode hex="0114"/>
  <outline>
    <contour>
      <point x="113" y="0" type="line"/>
      <point x="113" y="52" type="line"/>
      <point x="460" y="52" type="line"/>
      <point x="460" y="0" type="line"/>
    </contour>
    <contour>
      <point x="113" y="648" type="line"/>
      <point x="113" y="700" type="line"/>
      <point x="460" y="700" type="line"/>
      <point x="460" y="648" type="line"/>
    </contour>
    <contour>
      <point x="113" y="357.6" type="line"/>
      <point x="113" y="409.6" type="line"/>
      <point x="440" y="409.6" type="line"/>
      <point x="440" y="357.6" type="line"/>
    </contour>
    <contour>
      <point x="84" y="700" type="line"/>
      <point x="139.4" y="700" type="line"/>
      <point x="139.4" y="0" type="line"/>
      <point x="84" y="0" type="line"/>
    </contour>
    <contour>
      <point x="118" y="909.2" type="curve"/>
      <point x="164.6" y="909.2" type="line"/>
      <point x="164.6" y="867.2"/>
      <point x="197.2" y="812.2"/>
      <point x="276" y="812.2" type="curve" smooth="yes"/>
      <point x="354.8" y="812.2"/>
      <point x="387.4" y="867.2"/>
      <point x="387.4" y="909.2" type="curve"/>
      <point x="434" y="909.2" type="line"/>
      <point x="434" y="840.2"/>
      <point x="381" y="769.2"/>
      <point x="276" y="769.2" type="curve" smooth="yes"/>
      <point x="171" y="769.2"/>
      <point x="118" y="840.2"/>
    </contour>
  </outline>
</glyph>
<glyph name="Edotaccent" format="1">
  <advance width="534"/>
  <unicode hex="0116"/>
  <outline>
    <contour>
      <point x="113" y="0" type="line"/>
      <point x="113" y="52" type="line"/>
      <point x="460" y="52" type="line"/>
      <point x="460" y="0" type="line"/>
    </contour>
    <contour>
      <point x="113" y="648" type="line"/>
      <point x="113" y="700" type="line"/>
      <point x="460" y="700" type="line"/>
      <point x="460" y="648" type="line"/>
    </contour>
    <contour>
      <point x="113" y="357.6" type="line"/>
      <point x="113" y="409.6" type="line"/>
      <point x="440" y="409.6" type="line"/>
      <point x="440" y="357.6" type="line"/>
    </contour>
    <contour>
      <point x="84" y="700" type="line"/>
      <point x="139.4" y="700" type="line"/>
      <point x="139.4" y="0" type="line"/>
      <point x="84" y="0" type="line"/>
    </contour>
    <contour>
      <point x="234.6" y="806.6" type="curve" smooth="yes"/>
      <point x="234.6" y="827.4"/>
      <point x="251.6" y="844"/>
      <point x="272" y="844" type="curve" smooth="yes"/>
      <point x="292.4" y="844"/>
      <point x="309.4" y="827.4"/>
      <point x="309.4" y="806.6" type="curve" smooth="yes"/>
      <point x="309.4" y="785.8"/>
      <point x="292.4" y="769.2"/>
      <point x="272" y="769.2" type="curve" smooth="yes"/>
      <point x="251.6" y="769.2"/>
      <point x="234.6" y="785.8"/>
    </contour>
  </outline>
</glyph>
<glyph name="Eogonek" format="1">
  <advance width="534"/>
  <unicode hex="0118"/>
  <outline>
    <contour>
      <point x="113" y="0" type="line"/>
      <point x="113" y="52" type="line"/>
      <point x="460" y="52" type="line"/>
      <point x="460" y="0" type="line"/>
    </contour>
    <contour>
      <point x="113" y="648" type="line"/>
      <point x="113" y="700" type="line"/>
      <point x="460" y="700" type="line"/>
      <point x="460" y="648" type="line"/>
    </contour>
    <contour>
      <point x="113" y="357.6" type="line"/>
      <point x="113" y="409.6" type="line"/>
      <point x="440" y="409.6" type="line"/>
      <point x="440" y="357.6" type="line"/>
    </contour>
    <contour>
      <point x="84" y="700" type="line"/>
      <point x="139.4" y="700" type="line"/>
      <point x="139.4" y="0" type="line"/>
      <point x="84" y="0" type="line"/>
    </contour>
    <contour>
      <point x="404.6" y="-147.2" type="curve"/>
      <point x="427.2" y="-180" type="line"/>
      <point x="412.2" y="-200"/>
      <point x="378.2" y="-220"/>
      <point x="335.2" y="-220" type="curve" smooth="yes"/>
      <point x="259.2" y="-220"/>
      <point x="220.2" y="-183"/>
      <point x="220.2" y="-128" type="curve" smooth="yes"/>
      <point x="220.2" y="-65"/>
      <point x="290.6" y="-17"/>
      <point x="360.6" y="19" type="curve"/>
      <point x="388" y="0" type="line"/>
      <point x="329.6" y="-26"/>
      <point x="272.2" y="-71"/>
      <point x="272.2" y="-116" type="curve" smooth="yes"/>
      <point x="272.2" y="-156"/>
      <point x="300.2" y="-174"/>
      <point x="338.2" y="-174" type="curve" smooth="yes"/>
      <point x="369.8" y="-174"/>
      <point x="390.2" y="-162.2"/>
    </contour>
  </outline>
</glyph>
<glyph name="eogonek" format="1">
  <advance width="509"/>
  <unicode hex="0119"/>
  <outline>
    <contour>
      <point x="72.4" y="217.2" type="line"/>
      <point x="72.4" y="262" type="line"/>
      <point x="414.2" y="262" type="line"/>
      <point x="413" y="356.4"/>
      <point x="349.4" y="424"/>
      <point x="259.8" y="424" type="curve" smooth="yes"/>
      <point x="171" y="424"/>
      <point x="92.8" y="358"/>
      <point x="92.8" y="248.8" type="curve"/>
      <point x="91.6" y="230.8" type="line"/>
      <point x="91.6" y="114.4"/>
      <point x="160.2" y="39"/>
      <point x="257.8" y="39" type="curve" smooth="yes"/>
      <point x="345.2" y="39"/>
      <point x="390" y="84.4"/>
      <point x="420.6" y="134" type="curve"/>
      <point x="462.8" y="107" type="line"/>
      <point x="423.2" y="45.8"/>
      <point x="373.2" y="-10"/>
      <point x="251.8" y="-10" type="curve" smooth="yes"/>
      <point x="130.8" y="-10"/>
      <point x="39" y="91.8"/>
      <point x="39" y="230.8" type="curve" smooth="yes"/>
      <point x="39" y="251.8"/>
      <point x="40.8" y="271.4"/>
      <point x="45.4" y="290.6" type="curve" smooth="yes"/>
      <point x="67.6" y="396.4"/>
      <point x="149.2" y="470"/>
      <point x="259.8" y="470" type="curve" smooth="yes"/>
      <point x="379.8" y="470"/>
      <point x="470.8" y="379"/>
      <point x="470.8" y="242" type="curve" smooth="yes"/>
      <point x="470.8" y="234"/>
      <point x="470.4" y="225.2"/>
      <point x="469.4" y="217.2" type="curve"/>
    </contour>
    <contour>
      <point x="294.6" y="-147.4" type="curve"/>
      <point x="316.8" y="-180.2" type="line"/>
      <point x="301.8" y="-200.2"/>
      <point x="267.8" y="-220.2"/>
      <point x="224.8" y="-220.2" type="curve" smooth="yes"/>
      <point x="148.8" y="-220.2"/>
      <point x="110.2" y="-183.2"/>
      <point x="110.2" y="-128.2" type="curve" smooth="yes"/>
      <point x="110.2" y="-65.2"/>
      <point x="180.2" y="-21.6"/>
      <point x="250.2" y="14.4" type="curve"/>
      <point x="278" y="-4.6" type="line"/>
      <point x="219.6" y="-30.6"/>
      <point x="162.2" y="-69.6"/>
      <point x="162.2" y="-116.2" type="curve" smooth="yes"/>
      <point x="162.2" y="-156.2"/>
      <point x="189.8" y="-174.2"/>
      <point x="227.8" y="-174.2" type="curve" smooth="yes"/>
      <point x="259.4" y="-174.2"/>
      <point x="280.2" y="-162.4"/>
    </contour>
  </outline>
</glyph>
<glyph name="Ecaron" format="1">
  <advance width="534"/>
  <unicode hex="011A"/>
  <outline>
    <contour>
      <point x="113" y="0" type="line"/>
      <point x="113" y="52" type="line"/>
      <point x="460" y="52" type="line"/>
      <point x="460" y="0" type="line"/>
    </contour>
    <contour>
      <point x="113" y="648" type="line"/>
      <point x="113" y="700" type="line"/>
      <point x="460" y="700" type="line"/>
      <point x="460" y="648" type="line"/>
    </contour>
    <contour>
      <point x="113" y="357.6" type="line"/>
      <point x="113" y="409.6" type="line"/>
      <point x="440" y="409.6" type="line"/>
      <point x="440" y="357.6" type="line"/>
    </contour>
    <contour>
      <point x="84" y="700" type="line"/>
      <point x="139.4" y="700" type="line"/>
      <point x="139.4" y="0" type="line"/>
      <point x="84" y="0" type="line"/>
    </contour>
    <contour>
      <point x="272" y="825" type="line"/>
      <point x="398.8" y="936.4" type="line"/>
      <point x="432" y="909.2" type="line"/>
      <point x="272" y="769.2" type="line"/>
      <point x="112" y="909.2" type="line"/>
      <point x="145.2" y="936.4" type="line"/>
    </contour>
  </outline>
</glyph>
<glyph name="uni0122" format="1">
  <advance width="771"/>
  <unicode hex="0122"/>
  <outline>
    <contour>
      <point x="411" y="297" type="line"/>
      <point x="411" y="349" type="line"/>
      <point x="722" y="349" type="line"/>
      <point x="722" y="159"/>
      <point x="599" y="-9.2"/>
      <point x="393" y="-9.2" type="curve" smooth="yes"/>
      <point x="193" y="-9.2"/>
      <point x="44" y="141"/>
      <point x="44" y="350" type="curve" smooth="yes"/>
      <point x="44" y="559"/>
      <point x="193" y="709.2"/>
      <point x="393" y="709.2" type="curve" smooth="yes"/>
      <point x="522" y="709.2"/>
      <point x="618.8" y="652"/>
      <point x="678.8" y="559" type="curve"/>
      <point x="638.8" y="523.6" type="line"/>
      <point x="592.4" y="601.2"/>
      <point x="506" y="653.8"/>
      <point x="393" y="653.8" type="curve" smooth="yes"/>
      <point x="227.8" y="653.8"/>
      <point x="102.4" y="529"/>
      <point x="102.4" y="350" type="curve" smooth="yes"/>
      <point x="102.4" y="172.2"/>
      <point x="227.4" y="46.2"/>
      <point x="393" y="46.2" type="curve" smooth="yes"/>
      <point x="550" y="46.2"/>
      <point x="647" y="161.6"/>
      <point x="662.4" y="297" type="curve"/>
    </contour>
    <contour>
      <point x="414.2" y="-69.2" type="line"/>
      <point x="466.6" y="-89.2" type="line"/>
      <point x="356.6" y="-339.2" type="line"/>
      <point x="319.4" y="-325.8" type="line"/>
    </contour>
  </outline>
</glyph>
<glyph name="Hcircumflex" format="2">
  <advance width="687"/>
  <unicode hex="0124"/>
  <outline>
    <contour>
      <point x="113.4" y="354.8" type="line"/>
      <point x="113.4" y="406.8" type="line"/>
      <point x="585.4" y="406.8" type="line"/>
      <point x="585.4" y="354.8" type="line"/>
    </contour>
    <contour>
      <point x="548.4" y="700" type="line"/>
      <point x="603.8" y="700" type="line"/>
      <point x="603.8" y="0" type="line"/>
      <point x="548.4" y="0" type="line"/>
    </contour>
    <contour>
      <point x="84" y="700" type="line"/>
      <point x="139.4" y="700" type="line"/>
      <point x="139.4" y="0" type="line"/>
      <point x="84" y="0" type="line"/>
    </contour>
    <contour>
      <point x="344.4" y="880.2" type="line"/>
      <point x="216.8" y="769.2" type="line"/>
      <point x="184.4" y="796" type="line"/>
      <point x="344.4" y="936" type="line"/>
      <point x="504.4" y="796" type="line"/>
      <point x="471.2" y="769.2" type="line"/>
    </contour>
  </outline>
</glyph>
<glyph name="hcircumflex" format="2">
  <advance width="505"/>
  <unicode hex="0125"/>
  <outline>
    <contour>
      <point x="131" y="780" type="line"/>
      <point x="131" y="0" type="line"/>
      <point x="79" y="0" type="line"/>
      <point x="79" y="780" type="line"/>
    </contour>
    <contour>
      <point x="374" y="296" type="line" smooth="yes"/>
      <point x="374" y="374"/>
      <point x="341" y="421"/>
      <point x="266" y="421" type="curve" smooth="yes"/>
      <point x="187.6" y="421"/>
      <point x="131" y="357.6"/>
      <point x="131" y="280" type="curve"/>
      <point x="107.4" y="280" type="line"/>
      <point x="107.4" y="389"/>
      <point x="183" y="470"/>
      <point x="278" y="470" type="curve" smooth="yes"/>
      <point x="373" y="470"/>
      <point x="426" y="409"/>
      <point x="426" y="302" type="curve" smooth="yes"/>
      <point x="426" y="0" type="line"/>
      <point x="374" y="0" type="line"/>
    </contour>
    <contour>
      <point x="112.4" y="951" type="line"/>
      <point x="-15.2" y="840" type="line"/>
      <point x="-47.6" y="866.8" type="line"/>
      <point x="112.4" y="1006.8" type="line"/>
      <point x="272.4" y="866.8" type="line"/>
      <point x="239.2" y="840" type="line"/>
    </contour>
  </outline>
</glyph>
<glyph name="Itilde" format="1">
  <advance width="219"/>
  <unicode hex="0128"/>
  <outline>
    <contour>
      <point x="82" y="700" type="line"/>
      <point x="137" y="700" type="line"/>
      <point x="137" y="0" type="line"/>
      <point x="82" y="0" type="line"/>
    </contour>
    <contour>
      <point x="-35.2" y="816.6" type="line"/>
      <point x="-29.2" y="857.6"/>
      <point x="7" y="889"/>
      <point x="52" y="889" type="curve" smooth="yes"/>
      <point x="113" y="889"/>
      <point x="122" y="842"/>
      <point x="176" y="842" type="curve" smooth="yes"/>
      <point x="199" y="842"/>
      <point x="214" y="858"/>
      <point x="232" y="890" type="curve"/>
      <point x="263.2" y="863" type="line"/>
      <point x="247.2" y="826"/>
      <point x="215.2" y="798"/>
      <point x="173.2" y="798" type="curve" smooth="yes"/>
      <point x="118.2" y="798"/>
      <point x="97.2" y="845"/>
      <point x="52.2" y="845" type="curve" smooth="yes"/>
      <point x="11.2" y="845"/>
      <point x="0.2" y="813"/>
      <point x="0.2" y="794" type="curve"/>
    </contour>
  </outline>
</glyph>
<glyph name="itilde" format="1">
  <advance width="232"/>
  <unicode hex="0129"/>
  <outline>
    <contour>
      <point x="90" y="460" type="line"/>
      <point x="142" y="460" type="line"/>
      <point x="142" y="0" type="line"/>
      <point x="90" y="0" type="line"/>
    </contour>
    <contour>
      <point x="-28.2" y="576.6" type="line"/>
      <point x="-22.2" y="617.6"/>
      <point x="14" y="649"/>
      <point x="59" y="649" type="curve" smooth="yes"/>
      <point x="120" y="649"/>
      <point x="129" y="602"/>
      <point x="183" y="602" type="curve" smooth="yes"/>
      <point x="206" y="602"/>
      <point x="221" y="618"/>
      <point x="239" y="650" type="curve"/>
      <point x="270.2" y="623" type="line"/>
      <point x="254.2" y="586"/>
      <point x="222.2" y="558"/>
      <point x="180.2" y="558" type="curve" smooth="yes"/>
      <point x="125.2" y="558"/>
      <point x="104.2" y="605"/>
      <point x="59.2" y="605" type="curve" smooth="yes"/>
      <point x="18.2" y="605"/>
      <point x="7.2" y="573"/>
      <point x="7.2" y="554" type="curve"/>
    </contour>
  </outline>
</glyph>
<glyph name="Ibreve" format="2">
  <advance width="219"/>
  <unicode hex="012C"/>
  <outline>
    <contour>
      <point x="82" y="700" type="line"/>
      <point x="137" y="700" type="line"/>
      <point x="137" y="0" type="line"/>
      <point x="82" y="0" type="line"/>
    </contour>
    <contour>
      <point x="-49" y="910" type="curve"/>
      <point x="-2.4" y="910" type="line"/>
      <point x="-2.4" y="868"/>
      <point x="30.2" y="813"/>
      <point x="109" y="813" type="curve" smooth="yes"/>
      <point x="187.8" y="813"/>
      <point x="220.4" y="868"/>
      <point x="220.4" y="910" type="curve"/>
      <point x="267" y="910" type="line"/>
      <point x="267" y="841"/>
      <point x="214" y="770"/>
      <point x="109" y="770" type="curve" smooth="yes"/>
      <point x="4" y="770"/>
      <point x="-49" y="841"/>
    </contour>
  </outline>
</glyph>
<glyph name="Iogonek" format="2">
  <advance width="219"/>
  <unicode hex="012E"/>
  <outline>
    <contour>
      <point x="82" y="700" type="line"/>
      <point x="137" y="700" type="line"/>
      <point x="137" y="0" type="line"/>
      <point x="82" y="0" type="line"/>
    </contour>
    <contour>
      <point x="153.6" y="-147.2" type="curve"/>
      <point x="176.2" y="-180" type="line"/>
      <point x="161.2" y="-200"/>
      <point x="127.2" y="-220"/>
      <point x="84.2" y="-220" type="curve" smooth="yes"/>
      <point x="8.2" y="-220"/>
      <point x="-30.8" y="-183"/>
      <point x="-30.8" y="-128" type="curve" smooth="yes"/>
      <point x="-30.8" y="-65"/>
      <point x="39.6" y="-17"/>
      <point x="109.6" y="19" type="curve"/>
      <point x="137" y="0" type="line"/>
      <point x="78.6" y="-26"/>
      <point x="21.2" y="-71"/>
      <point x="21.2" y="-116" type="curve" smooth="yes"/>
      <point x="21.2" y="-156"/>
      <point x="49.2" y="-174"/>
      <point x="87.2" y="-174" type="curve" smooth="yes"/>
      <point x="118.8" y="-174"/>
      <point x="139.2" y="-162.2"/>
    </contour>
  </outline>
</glyph>
<glyph name="iogonek" format="1">
  <advance width="232"/>
  <unicode hex="012F"/>
  <outline>
    <contour>
      <point x="79" y="668" type="curve" smooth="yes"/>
      <point x="79" y="688.4"/>
      <point x="95.2" y="705"/>
      <point x="116" y="705" type="curve" smooth="yes"/>
      <point x="136.8" y="705"/>
      <point x="153" y="688.4"/>
      <point x="153" y="668" type="curve" smooth="yes"/>
      <point x="153" y="647.6"/>
      <point x="136.8" y="631"/>
      <point x="116" y="631" type="curve" smooth="yes"/>
      <point x="95.2" y="631"/>
      <point x="79" y="647.6"/>
    </contour>
    <contour>
      <point x="90" y="460" type="line"/>
      <point x="142" y="460" type="line"/>
      <point x="142" y="0" type="line"/>
      <point x="90" y="0" type="line"/>
    </contour>
    <contour>
      <point x="158.6" y="-147.2" type="curve"/>
      <point x="181.2" y="-180" type="line"/>
      <point x="166.2" y="-200"/>
      <point x="132.2" y="-220"/>
      <point x="89.2" y="-220" type="curve" smooth="yes"/>
      <point x="13.2" y="-220"/>
      <point x="-25.8" y="-183"/>
      <point x="-25.8" y="-128" type="curve" smooth="yes"/>
      <point x="-25.8" y="-65"/>
      <point x="44.6" y="-17"/>
      <point x="114.6" y="19" type="curve"/>
      <point x="142" y="0" type="line"/>
      <point x="83.6" y="-26"/>
      <point x="26.2" y="-71"/>
      <point x="26.2" y="-116" type="curve" smooth="yes"/>
      <point x="26.2" y="-156"/>
      <point x="54.2" y="-174"/>
      <point x="92.2" y="-174" type="curve" smooth="yes"/>
      <point x="123.8" y="-174"/>
      <point x="144.2" y="-162.2"/>
    </contour>
  </outline>
</glyph>
<glyph name="Idotaccent" format="2">
  <advance width="219"/>
  <unicode hex="0130"/>
  <outline>
    <contour>
      <point x="82" y="700" type="line"/>
      <point x="137" y="700" type="line"/>
      <point x="137" y="0" type="line"/>
      <point x="82" y="0" type="line"/>
    </contour>
    <contour>
      <point x="71.8" y="809.4" type="curve" smooth="yes"/>
      <point x="71.8" y="830.2"/>
      <point x="88.8" y="846.8"/>
      <point x="109.2" y="846.8" type="curve" smooth="yes"/>
      <point x="129.6" y="846.8"/>
      <point x="146.6" y="830.2"/>
      <point x="146.6" y="809.4" type="curve" smooth="yes"/>
      <point x="146.6" y="788.6"/>
      <point x="129.6" y="772"/>
      <point x="109.2" y="772" type="curve" smooth="yes"/>
      <point x="88.8" y="772"/>
      <point x="71.8" y="788.6"/>
    </contour>
  </outline>
</glyph>
<glyph name="IJ" format="2">
  <advance width="490"/>
  <unicode hex="0132"/>
  <outline>
    <contour>
      <point x="159" y="-125.6" type="line"/>
      <point x="177" y="-149"/>
      <point x="210.4" y="-167.6"/>
      <point x="250.4" y="-167.6" type="curve" smooth="yes"/>
      <point x="304" y="-167.6"/>
      <point x="336.4" y="-136"/>
      <point x="336.4" y="-50" type="curve" smooth="yes"/>
      <point x="336.4" y="700" type="line"/>
      <point x="388.8" y="700" type="line"/>
      <point x="388.8" y="-60" type="line" smooth="yes"/>
      <point x="388.8" y="-169"/>
      <point x="341.8" y="-220"/>
      <point x="247.8" y="-220" type="curve" smooth="yes"/>
      <point x="194.8" y="-220"/>
      <point x="144.8" y="-188"/>
      <point x="129.8" y="-168" type="curve"/>
    </contour>
    <contour>
      <point x="82" y="700" type="line"/>
      <point x="137" y="700" type="line"/>
      <point x="137" y="0" type="line"/>
      <point x="82" y="0" type="line"/>
    </contour>
  </outline>
</glyph>
<glyph name="ij" format="2">
  <advance width="510"/>
  <unicode hex="0133"/>
  <outline>
    <contour>
      <point x="329" y="668" type="curve" smooth="yes"/>
      <point x="329" y="688.4"/>
      <point x="345.2" y="705"/>
      <point x="366" y="705" type="curve" smooth="yes"/>
      <point x="386.8" y="705"/>
      <point x="403" y="688.4"/>
      <point x="403" y="668" type="curve" smooth="yes"/>
      <point x="403" y="647.6"/>
      <point x="386.8" y="631"/>
      <point x="366" y="631" type="curve" smooth="yes"/>
      <point x="345.2" y="631"/>
      <point x="329" y="647.6"/>
    </contour>
    <contour>
      <point x="211.4" y="-134.4" type="line"/>
      <point x="226.2" y="-156.2"/>
      <point x="247.6" y="-168"/>
      <point x="272" y="-168" type="curve" smooth="yes"/>
      <point x="322" y="-168"/>
      <point x="340" y="-124.8"/>
      <point x="340" y="-62.8" type="curve" smooth="yes"/>
      <point x="340" y="460" type="line"/>
      <point x="392" y="460" type="line"/>
      <point x="392" y="-68.8" type="line" smooth="yes"/>
      <point x="392" y="-161.8"/>
      <point x="353" y="-220"/>
      <point x="269" y="-220" type="curve" smooth="yes"/>
      <point x="226" y="-220"/>
      <point x="197.2" y="-196.8"/>
      <point x="182.2" y="-176.8" type="curve"/>
    </contour>
    <contour>
      <point x="79" y="668" type="curve" smooth="yes"/>
      <point x="79" y="688.4"/>
      <point x="95.2" y="705"/>
      <point x="116" y="705" type="curve" smooth="yes"/>
      <point x="136.8" y="705"/>
      <point x="153" y="688.4"/>
      <point x="153" y="668" type="curve" smooth="yes"/>
      <point x="153" y="647.6"/>
      <point x="136.8" y="631"/>
      <point x="116" y="631" type="curve" smooth="yes"/>
      <point x="95.2" y="631"/>
      <point x="79" y="647.6"/>
    </contour>
    <contour>
      <point x="90" y="460" type="line"/>
      <point x="142" y="460" type="line"/>
      <point x="142" y="0" type="line"/>
      <point x="90" y="0" type="line"/>
    </contour>
  </outline>
</glyph>
<glyph name="Jcircumflex" format="1">
  <advance width="222"/>
  <unicode hex="0134"/>
  <outline>
    <contour>
      <point x="-91" y="-125.6" type="line"/>
      <point x="-73" y="-149"/>
      <point x="-39.6" y="-167.6"/>
      <point x="0.4" y="-167.6" type="curve" smooth="yes"/>
      <point x="54" y="-167.6"/>
      <point x="86.4" y="-136"/>
      <point x="86.4" y="-50" type="curve" smooth="yes"/>
      <point x="86.4" y="700" type="line"/>
      <point x="138.8" y="700" type="line"/>
      <point x="138.8" y="-60" type="line" smooth="yes"/>
      <point x="138.8" y="-169"/>
      <point x="91.8" y="-220"/>
      <point x="-2.2" y="-220" type="curve" smooth="yes"/>
      <point x="-55.2" y="-220"/>
      <point x="-105.2" y="-188"/>
      <point x="-120.2" y="-168" type="curve"/>
    </contour>
    <contour>
      <point x="112.8" y="880.2" type="line"/>
      <point x="-14.8" y="769.2" type="line"/>
      <point x="-47.2" y="796" type="line"/>
      <point x="112.8" y="936" type="line"/>
      <point x="272.8" y="796" type="line"/>
      <point x="239.6" y="769.2" type="line"/>
    </contour>
  </outline>
</glyph>
<glyph name="jcircumflex" format="1">
  <advance width="222"/>
  <unicode hex="0135"/>
  <outline>
    <contour>
      <point x="-48.6" y="-134.4" type="line"/>
      <point x="-33.8" y="-156.2"/>
      <point x="-12.4" y="-168"/>
      <point x="12" y="-168" type="curve" smooth="yes"/>
      <point x="62" y="-168"/>
      <point x="80" y="-124.8"/>
      <point x="80" y="-62.8" type="curve" smooth="yes"/>
      <point x="80" y="460" type="line"/>
      <point x="132" y="460" type="line"/>
      <point x="132" y="-68.8" type="line" smooth="yes"/>
      <point x="132" y="-161.8"/>
      <point x="93" y="-220"/>
      <point x="9" y="-220" type="curve" smooth="yes"/>
      <point x="-34" y="-220"/>
      <point x="-62.8" y="-196.8"/>
      <point x="-77.8" y="-176.8" type="curve"/>
    </contour>
    <contour>
      <point x="106" y="641" type="line"/>
      <point x="-21.2" y="530" type="line"/>
      <point x="-54" y="556.8" type="line"/>
      <point x="106" y="696.8" type="line"/>
      <point x="266" y="556.8" type="line"/>
      <point x="233.2" y="530" type="line"/>
    </contour>
  </outline>
</glyph>
<glyph name="uni0136" format="2">
  <advance width="520"/>
  <unicode hex="0136"/>
  <outline>
    <contour>
      <point x="82" y="700" type="line"/>
      <point x="137.4" y="700" type="line"/>
      <point x="137.4" y="0" type="line"/>
      <point x="82" y="0" type="line"/>
    </contour>
    <contour>
      <point x="427.2" y="700" type="line"/>
      <point x="496.6" y="700" type="line"/>
      <point x="188.8" y="372" type="line"/>
      <point x="511.6" y="0" type="line"/>
      <point x="441.8" y="0" type="line"/>
      <point x="121" y="370.8" type="line"/>
    </contour>
    <contour>
      <point x="318" y="-60" type="line"/>
      <point x="370.4" y="-80" type="line"/>
      <point x="260.4" y="-330" type="line"/>
      <point x="223.2" y="-316.6" type="line"/>
    </contour>
  </outline>
</glyph>
<glyph name="uni0137" format="2">
  <advance width="412"/>
  <unicode hex="0137"/>
  <outline>
    <contour>
      <point x="74" y="780" type="line"/>
      <point x="126" y="780" type="line"/>
      <point x="126" y="0" type="line"/>
      <point x="74" y="0" type="line"/>
    </contour>
    <contour>
      <point x="323.2" y="460" type="line"/>
      <point x="389.6" y="460" type="line"/>
      <point x="172.8" y="270" type="line"/>
      <point x="408.8" y="0" type="line"/>
      <point x="343.2" y="0" type="line"/>
      <point x="107.2" y="270" type="line"/>
    </contour>
    <contour>
      <point x="262.6" y="-60" type="line"/>
      <point x="315" y="-80" type="line"/>
      <point x="205" y="-330" type="line"/>
      <point x="167.8" y="-316.6" type="line"/>
    </contour>
  </outline>
</glyph>
<glyph name="kgreenlandic" format="1">
  <advance width="412"/>
  <unicode hex="0138"/>
  <outline>
    <contour>
      <point x="74" y="460" type="line"/>
      <point x="126" y="460" type="line"/>
      <point x="126" y="0" type="line"/>
      <point x="74" y="0" type="line"/>
    </contour>
    <contour>
      <point x="323.2" y="460" type="line"/>
      <point x="389.6" y="460" type="line"/>
      <point x="172.8" y="270" type="line"/>
      <point x="408.8" y="0" type="line"/>
      <point x="343.2" y="0" type="line"/>
      <point x="107.2" y="270" type="line"/>
    </contour>
  </outline>
</glyph>
<glyph name="uni013C" format="2">
  <advance width="210"/>
  <unicode hex="013C"/>
  <outline>
    <contour>
      <point x="79" y="780" type="line"/>
      <point x="131" y="780" type="line"/>
      <point x="131" y="0" type="line"/>
      <point x="79" y="0" type="line"/>
    </contour>
    <contour>
      <point x="118.2" y="-60" type="line"/>
      <point x="170.6" y="-80" type="line"/>
      <point x="60.6" y="-330" type="line"/>
      <point x="23.4" y="-316.6" type="line"/>
    </contour>
  </outline>
</glyph>
<glyph name="Lcaron" format="2">
  <advance width="442"/>
  <unicode hex="013D"/>
  <outline>
    <contour>
      <point x="84" y="700" type="line"/>
      <point x="139" y="700" type="line"/>
      <point x="139" y="52" type="line"/>
      <point x="428" y="52" type="line"/>
      <point x="428" y="0" type="line"/>
      <point x="84" y="0" type="line"/>
    </contour>
    <contour>
      <point x="334.8" y="709.2" type="line"/>
      <point x="387.2" y="689.2" type="line"/>
      <point x="277.2" y="439.2" type="line"/>
      <point x="240" y="452.6" type="line"/>
    </contour>
  </outline>
</glyph>
<glyph name="lcaron" format="2">
  <advance width="230"/>
  <unicode hex="013E"/>
  <outline>
    <contour>
      <point x="79" y="780" type="line"/>
      <point x="131" y="780" type="line"/>
      <point x="131" y="0" type="line"/>
      <point x="79" y="0" type="line"/>
    </contour>
    <contour>
      <point x="303.8" y="773.6" type="line"/>
      <point x="356.2" y="753.6" type="line"/>
      <point x="246.2" y="503.6" type="line"/>
      <point x="209" y="517" type="line"/>
    </contour>
  </outline>
</glyph>
<glyph name="Ldot" format="2">
  <advance width="442"/>
  <unicode hex="013F"/>
  <outline>
    <contour>
      <point x="84" y="700" type="line"/>
      <point x="139" y="700" type="line"/>
      <point x="139" y="52" type="line"/>
      <point x="428" y="52" type="line"/>
      <point x="428" y="0" type="line"/>
      <point x="84" y="0" type="line"/>
    </contour>
    <contour>
      <point x="260.6" y="414.6" type="curve" smooth="yes"/>
      <point x="260.6" y="435.4"/>
      <point x="277.6" y="452"/>
      <point x="298" y="452" type="curve" smooth="yes"/>
      <point x="318.4" y="452"/>
      <point x="335.4" y="435.4"/>
      <point x="335.4" y="414.6" type="curve" smooth="yes"/>
      <point x="335.4" y="393.8"/>
      <point x="318.4" y="377.2"/>
      <point x="298" y="377.2" type="curve" smooth="yes"/>
      <point x="277.6" y="377.2"/>
      <point x="260.6" y="393.8"/>
    </contour>
  </outline>
</glyph>
<glyph name="ldot" format="2">
  <advance width="370"/>
  <unicode hex="0140"/>
  <outline>
    <contour>
      <point x="79" y="780" type="line"/>
      <point x="131" y="780" type="line"/>
      <point x="131" y="0" type="line"/>
      <point x="79" y="0" type="line"/>
    </contour>
    <contour>
      <point x="221" y="407.4" type="curve" smooth="yes"/>
      <point x="221" y="428.2"/>
      <point x="238" y="444.8"/>
      <point x="258.4" y="444.8" type="curve" smooth="yes"/>
      <point x="278.8" y="444.8"/>
      <point x="295.8" y="428.2"/>
      <point x="295.8" y="407.4" type="curve" smooth="yes"/>
      <point x="295.8" y="386.6"/>
      <point x="278.8" y="370"/>
      <point x="258.4" y="370" type="curve" smooth="yes"/>
      <point x="238" y="370"/>
      <point x="221" y="386.6"/>
    </contour>
  </outline>
</glyph>
<glyph name="Lslash" format="2">
  <advance width="420"/>
  <unicode hex="0141"/>
  <outline>
    <contour>
      <point x="-0.6" y="358.8" type="line"/>
      <point x="-15" y="395" type="line"/>
      <point x="255" y="565" type="line"/>
      <point x="269.4" y="528.8" type="line"/>
    </contour>
    <contour>
      <point x="80" y="700" type="line"/>
      <point x="135.4" y="700" type="line"/>
      <point x="135.4" y="52" type="line"/>
      <point x="410" y="52" type="line"/>
      <point x="410" y="0" type="line"/>
      <point x="80" y="0" type="line"/>
    </contour>
  </outline>
</glyph>
<glyph name="lslash" format="1">
  <advance width="202"/>
  <unicode hex="0142"/>
  <outline>
    <contour>
      <point x="-0.2" y="358.8" type="line"/>
      <point x="-15" y="395" type="line"/>
      <point x="207" y="545" type="line"/>
      <point x="221.8" y="508.8" type="line"/>
    </contour>
    <contour>
      <point x="75" y="780" type="line"/>
      <point x="127" y="780" type="line"/>
      <point x="127" y="0" type="line"/>
      <point x="75" y="0" type="line"/>
    </contour>
  </outline>
</glyph>
<glyph name="Nacute" format="1">
  <advance width="731"/>
  <unicode hex="0143"/>
  <outline>
    <contour>
      <point x="599.6" y="700" type="line"/>
      <point x="655" y="700" type="line"/>
      <point x="655" y="-27" type="line"/>
      <point x="123.4" y="583.8" type="line"/>
      <point x="123.4" y="0" type="line"/>
      <point x="68" y="0" type="line"/>
      <point x="68" y="727" type="line"/>
      <point x="599.6" y="114.2" type="line"/>
    </contour>
    <contour>
      <point x="526.4" y="907.8" type="line"/>
      <point x="348.8" y="755" type="line"/>
      <point x="320.2" y="775" type="line"/>
      <point x="478.2" y="935" type="line"/>
    </contour>
  </outline>
</glyph>
<glyph name="nacute" format="1">
  <advance width="505"/>
  <unicode hex="0144"/>
  <outline>
    <contour>
      <point x="131" y="460" type="line"/>
      <point x="131" y="0" type="line"/>
      <point x="79" y="0" type="line"/>
      <point x="79" y="460" type="line"/>
    </contour>
    <contour>
      <point x="374" y="296" type="line" smooth="yes"/>
      <point x="374" y="374"/>
      <point x="341" y="421"/>
      <point x="266" y="421" type="curve" smooth="yes"/>
      <point x="187.6" y="421"/>
      <point x="131" y="357.6"/>
      <point x="131" y="280" type="curve"/>
      <point x="113.4" y="280" type="line"/>
      <point x="113.4" y="389"/>
      <point x="183" y="470"/>
      <point x="278" y="470" type="curve" smooth="yes"/>
      <point x="373" y="470"/>
      <point x="426" y="409"/>
      <point x="426" y="302" type="curve" smooth="yes"/>
      <point x="426" y="0" type="line"/>
      <point x="374" y="0" type="line"/>
    </contour>
    <contour>
      <point x="394.4" y="686.8" type="line"/>
      <point x="217.2" y="534" type="line"/>
      <point x="188.8" y="554" type="line"/>
      <point x="346.8" y="714" type="line"/>
    </contour>
  </outline>
</glyph>
<glyph name="uni0145" format="2">
  <advance width="731"/>
  <unicode hex="0145"/>
  <outline>
    <contour>
      <point x="376.2" y="-39" type="line"/>
      <point x="428.6" y="-59" type="line"/>
      <point x="318.6" y="-309" type="line"/>
      <point x="281.4" y="-295.6" type="line"/>
    </contour>
    <contour>
      <point x="599.6" y="700" type="line"/>
      <point x="655" y="700" type="line"/>
      <point x="655" y="-27" type="line"/>
      <point x="123.4" y="583.8" type="line"/>
      <point x="123.4" y="0" type="line"/>
      <point x="68" y="0" type="line"/>
      <point x="68" y="727" type="line"/>
      <point x="599.6" y="114.2" type="line"/>
    </contour>
  </outline>
</glyph>
<glyph name="Ncaron" format="2">
  <advance width="731"/>
  <unicode hex="0147"/>
  <outline>
    <contour>
      <point x="376" y="838.8" type="line"/>
      <point x="502.8" y="950.2" type="line"/>
      <point x="536" y="923" type="line"/>
      <point x="376" y="783" type="line"/>
      <point x="216" y="923" type="line"/>
      <point x="249.2" y="950.2" type="line"/>
    </contour>
    <contour>
      <point x="599.6" y="700" type="line"/>
      <point x="655" y="700" type="line"/>
      <point x="655" y="-27" type="line"/>
      <point x="123.4" y="583.8" type="line"/>
      <point x="123.4" y="0" type="line"/>
      <point x="68" y="0" type="line"/>
      <point x="68" y="727" type="line"/>
      <point x="599.6" y="114.2" type="line"/>
    </contour>
  </outline>
</glyph>
<glyph name="ncaron" format="1">
  <advance width="505"/>
  <unicode hex="0148"/>
  <outline>
    <contour>
      <point x="131" y="460" type="line"/>
      <point x="131" y="0" type="line"/>
      <point x="79" y="0" type="line"/>
      <point x="79" y="460" type="line"/>
    </contour>
    <contour>
      <point x="374" y="296" type="line" smooth="yes"/>
      <point x="374" y="374"/>
      <point x="341" y="421"/>
      <point x="266" y="421" type="curve" smooth="yes"/>
      <point x="187.6" y="421"/>
      <point x="131" y="357.6"/>
      <point x="131" y="280" type="curve"/>
      <point x="107.4" y="280" type="line"/>
      <point x="107.4" y="389"/>
      <point x="183" y="470"/>
      <point x="278" y="470" type="curve" smooth="yes"/>
      <point x="373" y="470"/>
      <point x="426" y="409"/>
      <point x="426" y="302" type="curve" smooth="yes"/>
      <point x="426" y="0" type="line"/>
      <point x="374" y="0" type="line"/>
    </contour>
    <contour>
      <point x="252.4" y="585.8" type="line"/>
      <point x="379.2" y="697.2" type="line"/>
      <point x="412.4" y="670" type="line"/>
      <point x="252.4" y="530" type="line"/>
      <point x="92.4" y="670" type="line"/>
      <point x="125.6" y="697.2" type="line"/>
    </contour>
  </outline>
</glyph>
<glyph name="Obreve" format="1">
  <advance width="783"/>
  <unicode hex="014E"/>
  <outline>
    <contour>
      <point x="102.4" y="350" type="curve" smooth="yes"/>
      <point x="102.4" y="174.8"/>
      <point x="223.6" y="46.2"/>
      <point x="391.8" y="46.2" type="curve" smooth="yes"/>
      <point x="560" y="46.2"/>
      <point x="681.2" y="174.8"/>
      <point x="681.2" y="350" type="curve" smooth="yes"/>
      <point x="681.2" y="525.2"/>
      <point x="560" y="653.8"/>
      <point x="391.8" y="653.8" type="curve" smooth="yes"/>
      <point x="223.6" y="653.8"/>
      <point x="102.4" y="525.2"/>
    </contour>
    <contour>
      <point x="44" y="350" type="curve" smooth="yes"/>
      <point x="44" y="556"/>
      <point x="191.8" y="709.2"/>
      <point x="391.8" y="709.2" type="curve" smooth="yes"/>
      <point x="591.8" y="709.2"/>
      <point x="739.6" y="556"/>
      <point x="739.6" y="350" type="curve" smooth="yes"/>
      <point x="739.6" y="144"/>
      <point x="591.8" y="-9.2"/>
      <point x="391.8" y="-9.2" type="curve" smooth="yes"/>
      <point x="191.8" y="-9.2"/>
      <point x="44" y="144"/>
    </contour>
    <contour>
      <point x="233.8" y="909.2" type="curve"/>
      <point x="280.4" y="909.2" type="line"/>
      <point x="280.4" y="867.2"/>
      <point x="313" y="812.2"/>
      <point x="391.8" y="812.2" type="curve" smooth="yes"/>
      <point x="470.6" y="812.2"/>
      <point x="503.2" y="867.2"/>
      <point x="503.2" y="909.2" type="curve"/>
      <point x="549.8" y="909.2" type="line"/>
      <point x="549.8" y="840.2"/>
      <point x="496.8" y="769.2"/>
      <point x="391.8" y="769.2" type="curve" smooth="yes"/>
      <point x="286.8" y="769.2"/>
      <point x="233.8" y="840.2"/>
    </contour>
  </outline>
</glyph>
